<?xml version="1.0" encoding="utf-8"?>
<!-- Generator: Adobe Illustrator 25.3.1, SVG Export Plug-In . SVG Version: 6.00 Build 0)  -->
<svg version="1.1" id="Calque_1" xmlns="http://www.w3.org/2000/svg" xmlns:xlink="http://www.w3.org/1999/xlink" x="0px" y="0px"
	 viewBox="0 0 1189.6 1197.7" style="enable-background:new 0 0 1189.6 1197.7;" xml:space="preserve">
<style type="text/css">
	.st0{fill:#FDC91C;}
	.st1{fill:#D93922;}
	.st2{fill:#F5A83C;}
	.st3{fill:#E63022;fill-opacity:0;}
	.st4{fill:#F49736;}
	.st5{fill:#EC652B;}
	.st6{fill:#FFFFFF;}
</style>
<g id="Calque_3">
	<path class="st0" d="M813.7,419.2c-4.1-9.4-7.3-19.2-9.7-29c-4.2-18.8-7.9-35-2.8-48.5c14.5-38.4,100.3-55.4,130.1-54
		c2.4,0.1,7.5,0.4,11.4-2.7c7.4-6.1,3.6-19.9,0.6-53.4c-2.2-24.5-1.4-31.1,3.3-35.2c1.5-1.2,3.3-2.3,20.7-4.2
		c23.6-2.5,25.5-1.1,26.3,0c3.3,4.5-5.2,12.9-12.4,27.7c-12.1,24.6-16.6,58.2-4.2,67.8c4.6,3.7,10.5,3,13.8,2.8
		c35.5-2.6,86.1,13.5,104.2,36.3c15.5,19.6,12,48.5,5.2,71.6c-20.2,68.4-87.2,178.5-163.3,167.5
		C874.7,556.9,836.9,471.3,813.7,419.2z"/>
	<g transform="translate(0.000000,1280.000000) scale(0.100000,-0.100000)">
		<path d="M10004.2,10181c-13.4-10.3-21.2-19.9-39.9-49.3c-29.9-46.9-49.2-61.8-168.5-128.3c-116.1-64.7-162.6-97.3-196.5-137.3
			c-31.8-37.7-58.2-63.4-80-78.8c-29.1-20.3-63.2-38.8-101-54.9c-40.1-17-51.6-24.3-69.6-44.4c-12.3-13.8-17.2-21.9-31.4-52.5
			c-9.3-20.1-20.4-40.8-24.6-46.4c-15.1-20.5-39.5-33.5-71.3-37.5c-9.8-1.3-55-3.3-100.6-4.7c-116.3-3.1-164.7-9.4-232.6-29.9
			c-125.6-37.9-249.8-118.7-405.2-263.8c-49.7-46.2-120.3-121.6-139-148.2c-61.1-87.1-105.3-204.5-122-324.3
			c-4.9-35.5-8.5-76.8-8.5-100.2c0-18.5,9.1-94,19.3-158.9c61.8-395.7,169.8-688.4,305-825.4c20.6-20.8,42.4-38.4,111.9-90
			c169.6-126.1,291.2-202.2,362.7-227.4c48.6-17.2,75.1-20.5,137.7-16.7c62,3.6,89.6,2,135.2-7.8c49.7-10.9,91.1-16.3,148.6-19.4
			c88.1-4.9,179.6,0.9,357.6,22.8c54.5,6.5,59.4,6.9,100.8,5.1c54.8-2.5,79-1.8,101.9,2.7c52.8,10.3,119.3,41.7,201.4,95.1
			c32.5,21.2,168.9,118.3,222.2,158.3c107,80.1,158.5,141.5,208.8,248.7c22.3,47.3,66.9,161.8,95.1,243.3
			c72,208.5,112.7,424.5,113.8,602.7c0.2,59.6-2.3,81.9-16.8,140.6c-23.1,94.9-68.6,188.6-131.8,272.3
			c-39.3,51.8-147.5,156.7-239.6,232.1c-87.4,71.9-188.7,126.8-288.9,156.9c-86.4,26.1-144.8,33.9-254.5,33.9
			c-84.7,0-119.1,5.8-157.7,26.6c-7.6,4-8.9,5.8-8.9,12.1c0,15.4,21,50.9,54.8,93.1c42.2,52.7,78.1,72.8,137.3,77
			c58.4,4,212.2,48.9,336,98c82.6,32.8,175.3,78.8,184,91.3c3.2,4.9,4.2,9.8,4.2,20.1c-0.2,31-22.3,61.6-57.5,79.7
			c-14.6,7.4-22.3,13.2-33.5,25.2c-26.7,28.1-55.2,46.7-89.6,58.3c-22.3,7.4-42,11.2-94.2,18.1c-76.6,10-106.8,17.4-145.2,35.5
			c-6.8,3.1-13.6,5.8-15.1,5.8C10017.1,10189.7,10010.7,10185.7,10004.2,10181z M10058.7,10130.4c33.5-12.3,45.2-14.7,99.8-22.1
			c72-9.6,98.9-15.8,126.3-29.5c13.4-6.7,19.7-12.3,40.3-33.9c24.8-26.6,38.8-36.6,59.2-42.9c19.3-6,30.1-25.9,22.1-40.4
			c-5.9-10.7-11.5-13.8-62.2-35.5c-130.5-55.4-252.4-98-326-114.5c-12.7-2.9-25.7-6.7-28.7-8.7c-3-2-11-6-18-8.7
			c-11.2-4.5-17-4.9-53.9-5.4c-41.2-0.2-41.4-0.2-57.3-7.4c-52.6-23-108.5-77.9-144.5-142c-15.1-27-21.6-35.5-30.8-40.2
			c-9.8-4.9-25.3-3.1-41,4.5c-6.2,3.1-11.9,5.6-12.7,5.6c-0.8,0-2.8-6-4-13.4c-1.3-7.6-4.7-19.2-7.6-26.1c-6.4-14.5-6.6-15.8-2.1-21
			c4-4.7,2.3-8.7-3.6-8.7c-12.3,0-15.1-7.4-9.1-25.2c5.1-15.8,3.6-21.9-7.2-27.2c-13.2-6.9-15.1-9.6-18.7-29.2
			c-4.5-23-7-26.8-18.3-28.8c-16.1-2.5-20.8-5.4-20.8-12.5c0-5.8,1.5-7.4,12.1-12.5c12.7-6.5,27-19.4,25.5-23.7
			c-0.4-1.8-5.7-2.5-14.4-2.2c-105.5,2.9-168.1,0.4-182.7-7.4c-12.5-6.7-16.3-1.8-20.6,27c-1.5,9.8-5.9,29.7-10,44
			c-10.2,37.1-12.5,56.2-9.8,77.9c3.8,27.2,13.8,44.2,24.6,41.3c3.6-0.9,7.2-5.4,12.1-14.5c8.3-16.7,13.6-22.1,18.5-19
			c4.9,3.3,7,14.1,4.7,23.2c-1.3,4.2-2.1,13.2-2.1,19.4c0,11.2,0.4,11.8,7,14.7c3.8,1.8,9.6,6.9,12.9,11.6
			c9.6,13.2,17.2,15.6,48.4,15.2c18.9-0.2,27.6,0.4,28.7,2.2c2.1,3.6,5.9,14.1,13.8,38.4c3.4,11.2,8.3,23.4,10.8,27.7l4.2,7.6
			l-4.7,4c-7,6-24.4,11.2-42,12.5l-15.3,1.3l3.4,5.1c5.1,8.3,28.9,23.7,54.8,35.5c33.3,15.2,39.7,20.1,55.8,41.3
			c20.6,27.5,57.7,67,82.1,87.7c34.6,29.2,62.2,46.9,130.5,82.8c72.2,37.9,77.5,41.1,121,75c17,13.2,35.2,26.3,40.8,29
			c13.4,6.5,20,15,32.9,41.5C10002.7,10144.9,10011.4,10147.8,10058.7,10130.4z M9425.2,9635.1c2.1-2.7,2.1-4,0-6.7
			c-3.6-4.7-11.5-3.3-12.3,2C9411.4,9637.5,9420.5,9641.1,9425.2,9635.1z M9366,9600.5c2.1-1.3,4-4.2,4-6.2c0-5.8-10-20.1-15.1-21.7
			c-5.7-2-8.3,1.8-8.3,12.7c0,6.2,1.3,9.4,5.5,12.7C9358.5,9603.4,9360.2,9603.6,9366,9600.5z M9309.7,9477
			c7.9-4.2,15.7-20.1,17.4-34.4c0.8-9.4,0.8-9.6-7.2-13.4c-6.8-2.9-16.6-3.6-57.3-3.8l-48.8-0.2l-12.5,10
			c-18.5,15-32.9,29-32.9,32.1c0,4.9,10,7.8,34.6,10.3C9257.1,9482.8,9299.7,9482.6,9309.7,9477z M9853.3,9474.1
			c13.2-2.7,12.9-14.1-0.2-18.7c-12.7-4.2-31,3.8-31,13.8C9822.1,9476.6,9833.3,9478.4,9853.3,9474.1z M9079.8,9470.8
			c39.3-4.9,70.3-18.3,113.3-48.7c29.9-21.2,34.8-26.3,41-43.7c5.5-16.1,7.6-19,13.8-19c2.5,0,7-1.8,9.8-4.2
			c2.8-2.2,7.4-4.9,10.4-5.8c26.7-8.7,80.2-51.8,78.1-63.2c-2.5-12.9-53.9,6.9-157.1,60.9c-53.9,28.1-65.4,32.6-95.5,35.7
			c-24.6,2.5-30.8,0.4-62.2-21.4c-16.8-11.6-35.4-27-45.8-37.9c-9.8-10-15.7-16.7-13.4-15.2c2.5,1.8,13.2,9.4,23.8,16.7
			c22.3,16.1,45.6,26.1,68.8,29.9c36.3,5.6,68.6-6,109.7-40c19.1-15.8,22.9-18.1,30.6-18.1c5.7,0,15.9-3.6,32-11.4
			c58.2-28.1,107-42.2,167.9-48.4c12.1-1.3,14.9-2.2,15.5-5.6c1.9-9.8-22.3-24.3-46.9-28.8c-7.2-1.1-15.3-2.7-17.8-3.1
			c-6.6-1.3-34.6-23.9-59-47.5c-41.4-40-83.8-93.1-98.7-123.4c-7-14.3-7.2-15.2-3.6-19c5.1-5.6,8.1-3.1,26.5,21.9
			c34.8,47.1,62,73.2,107.6,103.6c12.9,8.5,44.8,29.9,71.1,47.8c85.1,57.8,104.6,65,143.3,52.2c25.5-8.3,55.8-26.8,139-84.4
			c72.6-50.2,95.1-70.8,129.3-119c18.3-25.7,27.8-31.2,27.8-16.3c0,21.4-78.3,120.5-123.5,156.2c-31.4,24.8-38,29.2-44.6,29.2
			c-23.6,0-60.1,18.5-58.6,29.7c0.6,4.5,2.3,5.1,19.7,6.7c45.2,4.2,108,22.3,158.3,46c13.6,6.5,28.4,12.1,32.9,12.7
			c15.3,2.2,16.8,2.9,29.5,14.5c31.8,28.6,69,35,114.2,19.4c17.6-6,28.9-12.3,52.2-28.8c25.7-17.9,48.8-42.2,79.8-83.5
			c38.4-50.9,94.7-108,119.9-121.6c11.2-6,20.6-18.1,22.3-28.8c0.8-6,3.4-10.7,7-13.6c3-2.5,7-8.3,9.1-12.9
			c2.1-4.5,6.8-12.5,10.6-17.4c5.5-7.8,6.2-10,4.2-14.1c-4-7.6-10.8-7.6-31.2-0.7c-26.3,9.2-31,10-35.4,6.7
			c-1.9-1.6-7.9-15-12.9-29.9s-12.5-32.4-16.6-39.1c-9.8-15.8-31.8-39.1-39.3-41.1c-7-1.8-9.3,0.7-31,33.3
			c-31,46.4-95.7,133.5-103.8,139.3c-5.7,4.5-17.4,1.6-25.9-6.2c-9.3-8.7-14-22.3-27-77.9c-12.5-53.3-18.5-69.4-36.9-98.4
			c-27.6-43.3-64.9-82.6-119.9-125.7c-32.3-25.2-40.3-32.6-40.3-36.2c0-6.7,63.9-32.8,98.7-40.2c19.7-4.2,54.1-8.9,79.6-11.2
			c31.6-2.5,45.2-5.4,50.5-10.7c15.3-15,37.8-90,45.2-150c1.3-10.9,5.1-32.6,8.5-48c13.2-61.2,13.6-116.3,1.7-203.6
			c-7.6-56-18.7-86.6-43.3-120.5c-8.5-11.4-16.8-26.1-20.8-36.6c-6.2-15.4-8.1-18.3-15.7-22.8c-12.7-7.4-42.2-14.7-111-27.5
			c-33.3-6-100.2-18.5-148.6-27.7c-122.7-23.2-131.6-24.3-181.5-24.3c-59.6,0-86,4-257.9,40c-128.8,26.8-198.2,40.8-216.5,43.7
			c-18,2.9-25.5,6.7-25.5,13.2c0,6.2,6.8,9.2,17.8,7.6c7.9-1.3,10-0.9,11,2.2c1.9,4.9-5.7,26.3-20,56c-15.7,33-20.8,50-27,88.2
			c-7.4,46.9-9.6,68.5-9.6,103.8c0,57.4,7.9,118.7,23.6,186.2c9.3,40,30.1,109.8,35.2,117.9c4.5,7.1,12.1,8.7,62.2,14.1
			c53.9,5.6,82.8,11.2,114.4,22.1c28.9,10,57.5,23.9,57.5,27.9c0,3.6-8.5,11.6-26.5,24.8c-65.6,48-118.6,107.8-147.1,166.1
			c-15.5,31.5-21.9,50.9-31.4,94.6c-4,18.5-9.1,37.9-11.5,43.1c-4.7,11.2-14.6,18.8-24.8,18.8c-6.2,0-9.1-2.7-26.5-24.1
			c-72.8-89.7-132-183.9-149.2-237.9c-4.7-14.7-5.3-20.3-5.3-48.7c0-27,0.8-33.5,4.2-41.5c3.2-7.1,3.6-10.9,2.1-13.8
			c-1.3-2.5-15.7-11.2-32.5-19.6c-18-9.2-34-19.2-39.7-24.6l-9.6-9.2l6.6-6.2c13.8-13.4,35.2-52.7,42-76.3c5.3-19,4.2-34.2-3.8-58.7
			c-11.9-36.4-33.7-70.1-65.8-101.3c-8.9-8.7-16.1-17-16.1-18.3c0-5.4,10.6-7.4,24.2-4.7c26.5,4.9,53.9,17.4,64.7,29.7
			c5.7,6.5,13.8,37.9,17.4,68.3c1.1,10.5,3.4,21,4.9,23.4c1.5,2.5,3.2,12.5,3.8,22.3c1.1,17.4,6.4,33,25.7,74.5
			c3.2,6.5,30.4,33.5,47.1,46.7c18.7,14.5,28.2,19.9,41.8,23.7c10.4,2.9,13.8,2.9,25.5,0c20-4.7,22.9-6.5,22.9-13.8
			c0-3.6-4.9-19.9-10.8-36.4c-23.6-65.6-41.4-141.5-46.5-197.3c-1.3-13.4-4.7-41.5-7.4-62.5c-2.8-20.8-6.2-54-7.4-73.7
			c-4-58-8.7-80.4-22.5-109.1c-6.6-13.4-13.6-31.9-15.9-41.1c-2.1-9.4-5.7-18.7-7.6-21c-3.8-4.5-13.4-5.1-27.2-2
			c-4.7,1.1-23.3,3.8-41.4,5.8c-129.7,14.3-157.3,21.7-205.5,54.5c-48,32.4-140.5,79.2-140.5,71.2c0-5.6,73.9-182.6,139-333.2
			c26.7-61.8,30.6-75.2,23.3-81.5c-7.9-6.9-44.6,21-85.1,65c-11.7,12.7-22.9,25.9-25,29.5c-2.1,3.3-5.3,6-6.8,6
			c-3.6,0-3.6,0.4,0.2-11.2c5.1-15.2,20.6-37.7,38.6-56c19.7-20.1,34.2-30.6,64.3-46.9c28-15,44.4-31.7,72.2-73.2
			c22.1-32.8,44.1-58.9,64.3-75.9c26.3-21.9,99.3-68.5,126.5-80.6c23.6-10.7,37.1-13.4,74.5-15.8c41.6-2.5,67.5-6.2,99.5-14.5
			c21.4-5.6,29.5-6,24.4-1.1c-1.1,0.9-23.3,7.1-49.7,13.6c-76.6,18.5-117.6,31-159,47.8c-40.1,16.3-47.1,21.4-84.3,60.3
			c-58.4,61.6-106.3,127.5-128.2,176.6c-28.4,63.8-67.9,209.4-67.9,250.9c0,14.1,5.7,25.9,12.7,25.9c6.6,0,9.3-8.7,12.5-39.3
			c2.8-27.5,16.1-82.4,28.9-119.2c15.3-44.9,36.1-86.8,66.9-136.2c55-87.5,84.9-125,117.2-146.9c34-23.2,42.2-36.4,22.9-36.2
			c-5.3,0.2-13.4,1.1-17.8,2c-10.6,2.5-8.9-1.1,3.4-6.9c18-8.9,31.4-8,31.4,1.6c0,2.5,2.1,5.8,4.9,7.6c7.6,5.4,32.9,10.7,50.7,10.7
			c20.8,0,33.3-5.8,52.6-24.6c13.8-13.2,13.8-13.4,14.9-27.5l1.1-14.3l29.7,31.2c31.8,33.5,48.8,45.8,63.2,45.8
			c15.3,0,20.8-5.8,37.6-39.7c8.9-17.9,14.6-22.8,27.2-22.8h9.3l-1.5-21.2c-0.8-11.6-0.8-21.2-0.2-21.2c2.1,0,18.3,7.1,18.3,8
			c0,0.7-2.1,4-4.5,7.6c-5.9,8-4.5,19.4,4.9,40c4.9,11.2,11.5,19.9,27,35.9c11.2,11.8,23.6,22.8,27.4,24.3
			c9.6,4.2,16.1,0.7,36.1-18.5c8.3-8,20.8-17.6,27.6-21.2c9.3-4.9,13.6-8.7,16.1-14.7c4.5-9.8,7.6-29.2,7.6-47.5
			c0-15.4,2.5-17.4,8.3-6.7c2.8,5.1,2.5,8-1.5,27c-5.9,27.5-6.2,50.4-0.4,62.7c8.1,17.4,22.1,22.5,74.3,27.9
			c12.3,1.1,34,4.9,48.2,8.3c31.6,7.6,35,6.7,38.6-9.6c1.3-5.8,3.2-39.3,4.5-74.3c1.1-35,2.8-73.2,3.4-85
			c1.5-21.4,1.5-21.7-4.2-25.4c-5.1-3.6-7.9-3.6-30.4-1.1c-26.1,2.7-52,7.8-84.5,16.7c-39.5,10.9-55.6,13.2-93.4,13.2
			c-32.9,0-57.9-2-55.6-4.5c2.8-2.9,102.7-22.1,152.2-29c36.9-5.1,158.8-5.4,215.4,0c62.8,5.8,146,19.6,166.8,27.9
			c5.7,2.2-34.6,4.7-76,4.7c-23.8,0-29.7-0.7-36.3-4.2c-9.8-5.4-40.1-12.1-75.1-17c-26.3-3.6-27.4-3.6-34,0.4
			c-14.4,8.7-26.1,37.3-35.7,85.5c-6.2,32.1-7.4,49.1-4.7,66.5c1.3,8.3,3,18.7,3.6,23.4c1.7,10.7,7.6,17.2,15.9,17.2
			c3.4,0,13.6-2.5,22.7-5.6c9.6-3.3,26.3-6.7,39.9-8c62.4-6,73.9-9.2,81.9-23c5.3-9.2,5.5-38.6,0.4-70.1l-3.6-22.8l4.7-4.9
			c5.7-6,5.7-5.8,8.5,26.6c2.5,31.5,5.3,36.8,23.3,46.4c7.2,4,19.5,13.4,27,21c7.4,7.6,17,15.2,21.2,17.2c7.2,3.1,8.5,3.1,17.2-1.3
			c14.2-7.4,41.4-36.4,48.8-52.5c5.5-12.1,6.2-15.6,6.4-35.9c0-23.4,2.8-32.8,10.6-35.9c5.7-2.2,11,6.5,26.3,42.9
			c12.9,31.2,16.1,37.1,25.3,46c11.9,11.8,25.7,17.6,41,17.6c9.3,0,11.2-1.1,25.3-13.8c8.3-7.6,20-20.5,25.9-29
			c5.7-8.3,11.7-15.2,13.2-15.2c1.5,0,5.1-2,8.1-4.5l5.3-4.5l1.5,6.2c0.8,3.3,5.3,10,10.2,15c4.9,4.9,10.2,12.9,11.9,17.9
			c3.4,10.5,9.3,18.1,18.3,23c11.7,6.5,60.7,2.9,72.8-5.6c9.3-6.2,13.8-25.2,8.7-37.3c-2.8-6.2-7-8.5-30.6-14.5
			c-9.3-2.7-27-8.3-39.3-12.5c-29.1-10.5-60.9-19.2-103.6-28.8c-36.1-8.3-38.6-8.9-38.6-12.9c0-2.7,10-1.3,27.6,3.8
			c20.4,6,46.7,9.8,90.2,13.4c23.3,2,47.1,4.5,52.6,5.6c20.2,4.2,102.9,52,139.4,80.4c39.9,31,60.7,54.2,88.9,99.3
			c18.5,29.9,30.6,41.3,64.7,62.1c33.7,20.3,61.6,42.4,78.3,62.1c13.2,15,24.8,37.1,24.8,46.4c0,4.9-2.3,3.1-17.4-14.3
			c-35.7-40.6-64.7-67.4-86-78.3c-13.2-6.9-17.6-6-17.6,3.3c0,10.9,4.7,22.8,50.3,130.8c72.2,170.1,115.2,273.9,115.2,277.2
			c0,3.6-15.5-2.7-52.4-20.5c-45.2-22.3-60.7-28.1-64.1-24.6c-2.5,2.9-10.2,73.2-12.9,120.5c-1.1,21-2.5,43.7-3,50.7
			c-0.8,12.7-2.3,16.1-15.1,35.5c-5.5,8.3-6.4,11.8-7.2,27c-0.4,14.3,0.4,21.2,4.9,36.2c10,34.2,7,35.9-15.5,10
			c-18.3-21-18-13.4-1.5-63.6c14-42.9,23.1-91.1,23.3-125.2c0.2-19.2-0.6-28.1-2.5-30.1c-4.9-5.1-9.1,3.3-13.6,26.6
			c-2.3,12.1-5.5,24.1-7.4,27c-3,4.9-3.8,5.1-19.3,3.8c-16.8-1.8-29.7-5.8-32.7-10.7c-3.8-6.2-1.3-17,8.1-33.9
			c15.5-28.6,30.6-60.9,30.6-65.8c0-8-10.4-49.8-13.8-55.1c-7.9-12.5-14.2-14.3-72.2-20.8c-47.8-5.4-77-9.6-143.3-21.2
			c-51.2-8.9-87.7-12.3-90-8c-3,4.9,1.1,11.2,10.4,15.8c13.4,6.9,19.7,12.7,24.6,22.5c4.5,9.4,8.1,33.7,7,46.6
			c-0.4,4.2-2.1,22.3-4,40.2c-1.7,17.9-4,51.6-5.3,74.8c-7.2,139.1-23.1,230.1-55.4,317.4c-6.8,18.5-12.5,35.9-12.5,38.6
			c0,6.2,4.5,7.8,48.4,15.4c66.2,11.8,97,22.1,111,37.3l7.2,7.8l-0.2,38.4c0,35.9-0.4,39.5-5.7,54.9c-9.8,28.6-8.1,33.7,16.6,50
			c12.9,8.7,18,18.5,18,35c0,12.7,3.8,31,8.3,39.7c1.5,2.7,6.2,7.4,10.4,10.5c4.2,2.9,13.4,10,20.2,15.4
			c7.4,6.2,15.3,10.5,20.2,11.4c4.2,0.7,14.2,2.5,22.1,3.8c17.8,3.1,21.4,0.9,31.4-18.5c11.7-23.7,17.8-31.7,54.5-71.9
			c42-46,69.8-81.7,96.8-124.8c28.4-44.9,45.2-77.7,49-94.9c2.5-12.3,4.7-16.3,14.4-27c35.4-39.3,45.2-69.4,54.8-169.6
			c2.3-24.8,5.1-51.8,6.4-60.3c9.1-67.2-7.9-199.5-46.9-362.5c-5.1-21.9-8.3-40.2-8.3-48.9c0-16.3-8.3-44.4-21.4-71.6
			c-4.9-10.3-10.6-24.6-12.5-31.9c-9.1-33.5-26.5-70.8-61.1-131.2c-14.6-25.4-23.3-38.2-31.8-46.4c-14.4-13.8-40.5-32.6-50.5-36.4
			c-4-1.3-13.4-7.6-20.4-13.6c-7.2-6-24-17.2-37.6-24.6c-22.7-12.5-24.6-13.8-24-19.4c0.6-4.9-1.3-7.4-11.7-15.2
			c-11.2-8.5-13.2-9.2-21.6-8c-9.1,1.3-10.2,0.9-52-28.6c-53.1-37.1-88.9-59.8-123.7-78.1c-42.4-22.3-55.4-26.6-79.2-26.8
			c-23.6-0.2-26.7,1.3-57.7,27c-10,8.3-23.8,18.3-30.6,21.9c-14.4,8-20.6,17-18.9,27.2l1.3,7.4h-15.5c-18.9,0-27.8-4.2-36.3-17.4
			c-3.2-5.1-11.5-13.8-18.5-19.4c-16.6-13.4-28.4-27.9-31.4-38.8c-1.5-4.9-5.7-11.6-9.6-15c-20.8-18.7-81.1-36.8-170.2-51.1
			c-28.7-4.7-38.8-3.6-60.5,6.7c-16.6,7.8-38,14.1-109.9,32.1c-45,11.4-70.9,19.9-101.2,33.7c-12.7,5.8-39.1,17.9-58.4,26.6
			c-24.8,11.2-36.5,17.9-40.5,22.5c-5.1,6.2-7.6,7.1-35.7,12.3c-31.6,5.8-40.5,6.7-40.5,3.8c0-0.9,4.2-6.2,9.6-11.6
			c14.2-14.7,13.6-17.9-10-41.3c-10.8-10.7-28.2-25.4-38.6-32.8c-18.7-13.2-19.5-13.4-29.9-11.8c-22.3,2.9-82.8,27.5-131.6,53.1
			c-41,21.4-97.2,57.8-143.9,93.1c-8.9,6.7-10.8,7.4-15.9,5.4c-7.4-2.9-12.7-1.1-26.3,9.4c-8.5,6.7-10.4,9.2-9.8,14.1
			c0.6,5.4-1.3,6.7-22.3,18.1c-12.5,6.7-29.3,17.4-37.1,23.9c-7.9,6.5-22.3,15.8-32.3,21c-23.8,12.5-52.6,42.2-73,74.8
			c-17.4,28.1-42.2,81.9-56.2,121.4c-5.7,16.5-14.6,38.8-20,49.3c-12.7,26.1-17,44.6-17.2,72.8c-0.2,19.9-0.8,23.4-5.1,29.5
			c-9.3,13.4-35,145.1-47.1,242.4c-9.8,77.5-7.6,127.2,7.4,189.9c4.2,17.2,10.4,48.4,13.8,69.9c10.8,65.8,22.5,107.6,43.7,154.2
			c15.5,33.9,25.5,52,61.3,110.5c16.8,27,41.4,69.6,55.2,94.9c13.8,25.2,29.3,51.6,34.6,58.7c5.1,7.1,38.2,44.2,73.4,82.6
			c132.9,144,160,174.5,157.7,177c-0.6,0.9-5.5-1.1-10.8-4.5c-26.1-16.1-17.6-1.6,32.3,54.5c28.9,32.6,21.6,26.1-28.2-24.6
			c-50.3-51.3-73.9-74.6-112.5-110.5c-99.3-92-106.1-99.3-137.5-149.5c-10.6-17-27-39.3-39.7-53.6c-11.9-13.4-24.2-30.1-27.6-36.8
			c-3.2-6.7-10.4-16.7-15.9-22.1c-11.5-11.6-20.6-29.5-39.3-78.3c-7.2-19-18.5-45.1-24.8-58c-32-63.6-89.4-148.9-108.7-161.8
			c-4.7-2.9-12.9-11.2-18.5-18.3c-15.1-19-35.9-40.8-38.6-40.8c-5.3,0-8.7,10.9-11,34.4c-2.8,28.3-8.7,66.3-15.7,99.5
			c-4.9,22.3-4.9,24.6-2.1,45.1c7.2,54,25.3,134.8,41.2,183.7c11,33.5,26.7,68.7,39.1,86.8c5.1,7.4,12.1,19.6,15.7,27.2
			c8.9,18.5,22.1,38.4,50.1,75.4c37.8,49.8,55.4,67.2,120.1,119.4c20.4,16.5,46.9,38.6,58.6,49.1c12.1,10.7,31.6,25.2,44.1,32.6
			c30.8,18.1,34.4,21.4,31.4,27.2c-3.4,6.2-1.7,7.6,24.8,17c12.1,4.5,22.5,8.7,23.1,9.4c0.8,0.7,0.2,3.3-1.3,5.8
			c-3.4,5.6,0,10.9,6.8,10.9c2.5,0,12.9,5.6,23.1,12.3c18.3,12.3,24.2,15.4,36.1,19.2c4.7,1.3,6.8,0.9,10.2-2.7
			c6.6-6.9,12.3-4.2,33.7,17c18.9,18.5,27.2,23.4,40.5,23.4c3,0,10.6,2.9,17,6.2c6.4,3.6,20.6,10,31.6,14.7
			c11,4.5,31.6,14.7,45.6,22.5l25.5,14.5l25-1.1C9051,9473.7,9070.1,9472.1,9079.8,9470.8z M10046.8,9460.1c15.9-8.5,38-19,49-23.7
			c11-4.5,23.1-10,26.7-12.5c3.8-2.5,12.3-5.4,19.1-6.7c17.2-3.3,26.1-8.7,38-22.5c10.4-12.3,22.9-21.9,28.9-21.9
			c1.9,0,4.7,1.6,6.2,3.3c5.9,7.4,18.5,3.3,44.8-14.5c7-4.7,17.2-10.5,22.3-12.5c9.3-3.8,9.6-4.2,8.5-10.9
			c-1.3-6.7-0.8-7.6,6.6-10.7c4.5-1.8,12.5-4.5,17.6-6c5.3-1.3,12.7-4.2,16.6-6c6.2-3.1,7-4.5,5.9-9.8c-1.1-6,0.6-7.6,38.2-34.4
			c144.5-102.9,228.8-190.2,283.1-293.3c34.4-65.6,58.8-146.2,77.5-257.4l5.5-32.8l-11.9-65.4c-14.9-83-15.7-86.4-21.6-82.6
			c-1.3,0.9-9.8,14.1-18.7,29.5c-26.1,44.4-28,46.6-42.7,53.8c-12.3,5.8-13.6,7.1-21.2,22.1c-6.8,13.6-10.8,18.3-27.6,32.6
			c-22.7,19.2-34.4,33.7-44.8,55.6c-44.6,93.3-104.6,176.3-204.6,283.5c-24.6,26.3-45.8,50.9-48.2,56c-2.5,5.1-7.9,21.2-12.1,35.5
			c-4.9,16.7-9.8,29.2-13.6,34.4c-8.7,11.4-60.7,64.3-86.2,87.5c-73,66.5-147.3,121.6-190,140.8l-15.9,7.4H9942h-40.3l-35.2-19.4
			c-66.6-37.1-82.6-41.1-82.6-20.8c0,4.2,1.7,8.7,4.2,11.2c2.5,2.5,7.9,10.3,12.1,17.6c12.1,21.4,27.6,42.9,38.6,53.1
			c14,13.4,60.1,38.8,79.2,44c21.6,5.8,56.5,10.5,84.3,10.9C10017.5,9475.5,10018.4,9475.3,10046.8,9460.1z M9341.8,9405.8
			c6.4-6.2,6.6-19,0.4-27.2c-6.8-8.9-17.2-12.5-36.7-12.5c-12.1,0-18.7-1.1-21.6-3.3c-5.7-4.5-12.3-4-16.8,1.3c-4,4.2-4,4.7,0,12.5
			c6.8,12.9,29.3,29.7,46.7,34.4C9323.3,9413.7,9336.5,9411.2,9341.8,9405.8z M8816,9407.8c0-4.7-4.7-8.3-11-8.3s-7.9,3.8-3.4,8.5
			C8805,9411.6,8816,9411.4,8816,9407.8z M9750.5,9392c8.9-3.8,14.2-12.3,14.2-22.3c0-10.7-5.5-13.8-14-7.8
			c-4.9,3.3-10,4.2-23.6,4.2c-15.3,0-17.6,0.4-17.6,4c0.2,5.1,5.7,12.3,15.7,19.2C9734.6,9395.8,9740.6,9396.5,9750.5,9392z
			 M9389.3,9310.5c4.2-3.6,5.1-6.2,5.1-17.9c0-15.4-4.7-23.2-11.2-19c-4.7,3.1-19.3,27.5-19.3,32.6
			C9363.4,9314.8,9380.8,9317.7,9389.3,9310.5z M9523.6,9277.7c4.5-4.7,4.2-6.9-0.8-9.8c-6.4-3.6-15.7-2-16.6,2.9
			C9504.5,9280,9516.9,9284.9,9523.6,9277.7z M9600.3,9274.6c3.6-4.2,3.6-4.7,0-8.9c-8.1-9.4-25-1.3-21,10
			C9581.2,9280.8,9595.6,9280.2,9600.3,9274.6z M9998.4,8984.2c18.9-12.7,63.9-61.2,79.8-85.7c23.8-37.3,41-81,41-105.1
			c0-8.7-0.6-9.8-5.5-11.2c-8.3-2.2-28,0.4-34,4.7c-7.9,5.4-12.3,14.5-23.1,47.5c-15.1,46.9-38,94-65.8,135.5
			c-4.9,7.4-10,15.6-11.5,18.5C9975.3,8996.5,9982.7,8994.7,9998.4,8984.2z M9059.7,8986.2c6.4-6.7,0.6-23.7-19.5-56
			c-21.9-35-57.7-120.3-64.9-154.5c-2.8-13.2-6.4-17.9-19.1-24.6c-23.6-12.3-46.9-15.8-48.4-7.1c-1.5,8.3,31.6,89.1,53.1,129.9
			c27.8,52.7,58.2,94,80,108.7C9051.2,8989.6,9055.9,8990.2,9059.7,8986.2z M10368.8,8973c15.5-10.5,31.2-25.2,47.8-44.9
			c16.1-19.2,17.8-24.1,8.9-24.1c-11,0.2-22.9,8.5-42.4,29.2c-20.8,22.5-30.4,35.9-30.4,42.4
			C10352.7,8981.7,10356.7,8981.1,10368.8,8973z M10114.7,8774.6c7-3.8,5.5-12.3-4.2-23.4c-25.3-28.8-94.4-57.6-145.2-60.7
			c-25.3-1.3-41.2,1.1-102.9,17c-24,6-51.6,12.7-61.5,14.7c-22.7,4.9-27.2,6.9-22.9,11.4c6.4,6.7,25.5,8.7,55.2,5.6
			c41.2-4.2,93.4-5.6,117.6-2.7c30.6,3.3,57.5,11.4,90,26.6c15.7,7.4,31,13.8,34,14.5C10082.9,8779.3,10109.9,8777.5,10114.7,8774.6
			z M8996.4,8736.2c23.1-4.2,34.2-4.9,87-4.9s63.9,0.7,87.7,4.9c31.2,5.6,42.4,6,45.8,1.8c5.7-7.1-5.7-16.3-28.7-22.5
			c-29.5-8-102.5-14.7-167.5-15.2l-34-0.2l-22.3,8.5c-22.1,8.3-25.5,10.5-25.5,17c0,5.8,3.4,9.2,11.9,12.3
			C8962.3,8742,8965.7,8741.8,8996.4,8736.2z M8420.2,8176c8.9-7.4,13.8-20.5,13.8-38.6c0-17.4-1.7-22.1-7.6-20.8
			c-5.1,0.9-17,25.4-20.2,41.5C8402.2,8179.5,8407.5,8186.5,8420.2,8176z M10418,8138.5c8.9-17.6-7.4-98.7-43.1-213.2
			c-24.4-78.8-67.1-145.1-151.8-236.4c-33.5-35.9-41-41.7-46.1-36.4c-2.5,2.7-2.8,4.2-0.8,8c1.5,2.5,3.8,4.7,5.5,4.7
			c1.7,0,3.2,1.1,3.2,2.5c0,1.6-2.1,2-5.7,1.1c-14-3.3-27.6-4-29.1-1.6c-3.4,5.6,2.3,12.1,27,31.2c28.7,22.1,48.6,41.3,63.2,61.6
			c16.1,22.1,68.3,103.1,82.6,128.3c40.8,71,66.6,150.7,74.3,228.1c1.1,10.7,3,21.4,4.2,24.1
			C10404.9,8147.2,10414.2,8145.8,10418,8138.5z M8785,8115c53.3-13.8,70.5-16.7,97.4-16.7c21.4,0,23.1-0.4,28-5.6
			c6.2-6.5,6.4-9.8,2.8-52.9c-2.1-26.6-2.1-34.6,1.1-59.8c4.2-33.9,3.6-36.2-10.6-42.6c-13.6-6-30.1-5.6-42.7,1.3
			c-19.1,10.5-31,24.8-62.8,75.4c-11,17.9-24.8,38.2-30.6,45.3c-13.6,17.2-15.3,21-15.3,32.8c0,8.3-0.8,10.3-5.3,12.3
			c-6.2,2.9-9.1,12.5-5.3,17.2c1.5,1.8,3,3.3,3.2,3.3C8745.4,8125.1,8763.4,8120.6,8785,8115z M10292.8,8116.2
			c0.4-4.2-1.1-7.1-5.9-10.7c-5.3-4.2-6.4-6.5-6.4-14.7c0-8.5-1.7-11.8-12.9-27.2c-7-9.8-23.6-34.2-36.5-54.5
			c-39.1-61.2-57.3-77.5-85.5-75.4c-29.1,2-30.1,15-8.1,97.8c6.4,23.9,12.1,47.5,12.9,52.5c1.7,12.5,3.8,14.5,16.3,14.5
			s49.9,8,81.9,17.6c13.8,4,26.3,6.5,32.9,6.2C10291.1,8121.7,10292.2,8121.3,10292.8,8116.2z M9007,8111.5c0-4-0.4-4.2-3.2-2
			c-3.2,2.7-2.5,6.7,1.3,6.7C9006.2,8116.2,9007,8113.9,9007,8111.5z M8980.5,8082.7c3.6-1.6,12.5-2.7,20.2-2.5
			c9.8,0.2,20.6-1.6,37.1-6.5c12.7-3.8,29.7-8.5,37.8-10.3c17-3.6,22.1-6.2,23.6-11.4c0.6-2.2-1.3-12.9-4.2-24.1
			c-4.9-17.9-5.7-25.2-6.6-67c-1.1-44.6-1.5-47.1-5.9-52.9c-2.8-3.3-5.9-11.2-7.2-17.4c-5.3-25.9-13.8-31.7-39.7-27
			c-23.1,4.2-35.2,11.4-53.1,30.8c-18.9,20.8-39.5,48.4-46.3,62.9c-7.6,15.4-13.6,38.4-15.3,56.5c-1.9,23,3.8,61.8,10.6,70.8
			C8934.2,8088.5,8970.5,8086.9,8980.5,8082.7z M10072.1,8079.3c15.1-4.7,27.8-15.6,34.8-29.9c11.7-23.4,7-55.6-13.6-93.3
			c-10.8-20.1-39.1-57.4-55.2-73.7c-13.2-12.9-18.9-15.2-48-18.7c-27.4-3.6-27-3.8-34.4,39.3c-2.3,14.3-5.7,29-7.4,32.6
			c-4.7,9.2-4,12.5,3.8,22.8c6.8,9.2,6.8,9.6,6.6,32.8c0,21-0.6,25.2-6.8,41.3c-10.6,27.9-10,29.2,17.6,34.2
			c7,1.1,15.9,3.1,19.7,4.7c3.6,1.3,10,3.6,13.8,4.9c5.7,2.2,27.4,4.7,51.6,6C10058.3,8082.5,10065.9,8081.1,10072.1,8079.3z
			 M8425.9,8043.6c5.5-8.7,15.9-27.7,23.1-42.4c10.8-22.3,12.9-29,13.2-39.1c0.4-9.8-0.2-12.3-3.2-12.9c-4.7-0.9-18.9,15-24.8,27.7
			c-6.2,12.5-25.7,73.2-25.7,79C8408.5,8064.8,8415.7,8059.7,8425.9,8043.6z M9183.8,8047c50.7-7.8,97.4-18.3,99.8-22.8
			c1.7-2.5,1.1-9.6-1.9-24.6c-3.2-16.3-4-30.6-4.2-66.5c-0.2-25.2-0.8-48-1.7-50.7c-1.7-5.4-24.6-22.3-38.4-28.6
			c-11-4.7-74.9-19-86-19c-8.9,0-9.1,0.2-20.2,16.7c-15.9,24.1-17.8,33-22.3,106.2c-2.3,37.9-0.4,77,4.2,90.2l2.3,6.2l18.5-1.3
			C9144.2,8052.3,9166.7,8049.6,9183.8,8047z M9919.7,8049.2c8.5-16.7,3.4-159.4-6.6-178.8c-4.5-9.2-21-30.6-24.4-31.9
			c-5.9-2.5-27.6-1.3-44.8,2c-32.9,6.5-65.6,20.8-79.4,34.6l-8.3,8.3v45.1c0,36.8-0.8,49.6-4.2,67.6c-7.4,37.5-7,37.7,90.4,50.9
			C9901.2,8054.8,9916.5,8055.2,9919.7,8049.2z M9345.6,8018.8c52-7.6,137.1-27,146.4-33.5c7.2-4.9,11.2-17.6,13.8-43.3
			c6.2-62.9-1.5-113.8-19.1-127.7c-3-2.2-10.6-4.9-17-6.2c-6.4-1.1-23.1-4.5-37.1-7.6c-35.4-8-63.9-8-78.7-0.2
			c-12.9,6.9-14.9,9.8-28.2,41.3c-5.9,13.8-14.6,31.7-19.5,39.3c-13.2,21.4-17.4,37.3-17.6,67.9c0,29.2,4,63.4,8.7,71
			C9300.6,8025.5,9298.2,8025.8,9345.6,8018.8z M9720.4,8012.4c2.1-3.8,7.9-22.8,12.7-42.4c12.1-48.9,11.7-54-7-89.5
			c-7.6-14.5-17.4-35-21.6-45.5c-13.8-33.3-21-38.2-57.7-39.7c-22.5-0.9-27.8-0.4-41.2,3.8c-8.5,2.9-24,6.2-34.2,8
			c-41.8,6.5-45.6,15.4-43.7,101.6c1.1,56.7,3.4,72.8,10.8,76.1c14.6,6.5,87.2,23.7,145.6,33.9c3,0.7,11.5,0.9,18.9,0.7
			C9715.9,8019.1,9717,8018.6,9720.4,8012.4z M9221.4,7547c0-1.1-1.3-2.2-3-2.2c-1.7,0-3.8,1.1-4.5,2.2c-0.6,1.3,0.6,2.2,3,2.2
			C9219.5,7549.2,9221.4,7548.3,9221.4,7547z M9410.1,7459c2.8-3.6-0.2-6.9-8.3-9.2c-6.6-1.8-14,3.6-12.1,8.7
			C9391.4,7463.1,9406.5,7463.5,9410.1,7459z"/>
		<path d="M10008.6,10123.7c-6.2-7.4-10.4-18.1-14.6-37.1c-3.8-16.5-5.7-37.5-3.4-37.5c0.4,0,5.7,3.6,11.9,7.8
			c17,12.1,47.3,19.9,89.4,22.8l20.6,1.3l9.1-8.3c5.9-5.4,14.2-9.6,24.2-12.7c8.1-2.7,20.4-7.1,27.2-10.3c6.8-2.9,23.1-7.4,36.1-9.8
			c13.2-2.5,31-6.2,39.7-8.7c8.7-2.2,24.6-5.1,35.4-6.5c10.8-1.1,21.4-3.3,23.8-4.7c4.9-2.7,9.6-18.1,7.6-24.8
			c-1.5-4.5-2.5-4.5-35.9-2.9l-34.6,1.6l-3.6-9.8c-2.1-5.4-4.2-10.9-4.9-12.3c-1.3-3.8,21.6-11.6,41.8-14.1
			c12.9-1.8,19.1-3.6,22.1-6.9c3.4-3.3,3.8-4.9,1.7-7.1c-8.1-8.5,4-8.7,37.4-0.7c29.1,7.1,59.9,19.6,59.9,24.8
			c0,4.9-15.1,16.1-37.8,28.3c-17.4,9.2-24,11.6-31.4,11.4c-10.4-0.2-10.4-0.4-12.1,19.9c-1.3,14.5-8.3,21.7-32.3,33.9
			c-21.9,11.2-42.7,17.4-70,21.2c-10.4,1.3-23.8,4.5-29.7,6.5c-14.6,5.6-20.8,6.5-58.4,9.2c-38.2,2.5-42.9,3.6-70.7,17.2
			C10032.4,10127.5,10014.4,10130.4,10008.6,10123.7z"/>
		<path d="M10142.6,9995.5c-25.9-15.4-42.9-20.8-63.2-19.6c-12.9,0.7-14.2,0.2-14.2-3.8c0-8.9,47.8-28.1,62.2-24.8
			c3.2,0.7,22.9,5.1,43.9,9.8c21,4.7,39.5,9.2,41,10.3c2.5,1.6-6.6,14.3-24.2,34.2C10177.6,10013,10169.7,10011.8,10142.6,9995.5z"
			/>
		<path d="M9513.5,8636.4c-5.1-5.8-7.2-15.6-9.6-43.7c-3-33.7-5.5-41.1-29.5-81.5c-7.6-12.9-18-33.3-23.1-45.3
			c-5.1-12.1-11.5-25.2-14-29.5c-12.5-19.9-36.5-50.7-40.5-52.2c-2.3-1.1-14-2.7-25.7-3.6c-23.1-1.6-35-5.8-43.3-15.4
			c-6.2-6.9-12.3-7.4-23.6-1.3c-10.6,5.8-17.4,5.6-22.5-0.2c-3.6-4.2-3.6-4.9-0.6-7.1c1.9-1.6,5.3-7.1,7.6-12.7
			c2.5-6.2,11.2-17.4,22.5-28.8c15.3-15.6,20-22.3,28.9-41.1c5.9-12.1,10.8-24.1,10.8-26.3c0-6.7,5.7-7.6,17.8-2.2
			c14,6,15.1,6,31.2-2c16.1-7.8,41.4-12.5,55.8-10.3c7,1.1,12.1,3.8,16.6,8.3c8.9,8.9,21.2,9.2,29.7,0.4c4.5-4.5,8.3-6.2,14.2-6.2
			c5.5,0,10,2,14.9,6.2c7,6,13.2,7.1,23.6,4c3.4-0.9,5.3-3.1,5.3-5.8c0-4.2,1.7-4.5,26.5-4.5c40.5,0,59.4,8.9,59.4,27.7
			c0,26.6-56.5,158.9-100.8,235.7c-9.1,16.1-17.8,33.5-19.5,38.8c-4,14.3-3.4,31.7,2.3,64.3c3,16.1,4.7,31.2,4,33.7
			C9530.4,8642.3,9518.8,8642.5,9513.5,8636.4z"/>
	</g>
	<path class="st1" d="M1100.7,395.7c8.3-2.1,13.6-36-1.4-62.3c-13.6-23.9-38.9-32.7-52.5-37.3c-19.9-6.9-30-9.4-85-9.7
		c-68.9-0.3-51,2.4-86.7,5.5c-15.7,1.4-59.1,14.9-73.7,49.9c-7.7,18.3-7.4,43.5,2.8,48.5c12.5,6.1,26.2-24.6,66.9-38.6
		c6.9-2.4,32.5-3.1,83.4-4.4c33.8-0.9,47.3-0.9,66.4,2.1c19.9,3.1,34.5,5.6,49.4,15.9C1091.2,379.7,1094.5,397.2,1100.7,395.7z"/>
</g>
<g id="Calque_2_00000072986730916535048770000008889645629157537412_">
	<path class="st2" d="M883.4,372.3c-8.4,70-128.1,82.1-129.7,146.3c-0.7,26.2,18.5,54.7,38.4,58.2c27.2,4.8,38.5-39.9,93.4-60.2
		c7.3-2.7,60.3-22.3,88.9,4.2c13.4,12.2,22.4,35.3,16.6,56.1c-6.6,23.8-29.3,32.4-136.3,87.2c-28.2,14.4-46.9,20.6-55.4,40.1
		c-10.2,23.4,2.4,43.8-11.1,59.1c-11.8,13.4-33.3,10.9-46,10.8c-81.1-1-149,88.2-147.4,90.3c1.7,2.4,91-89.4,183.8-74.7
		c14.3,2.2,28.2,7,40.8,14.2c41.5,24.1,55,68.6,63.7,96.9c7,22.8,32.8,107.5-2.5,168.5c-4.9,8.5-12.3,18.8-8.5,28
		c8,19.1,52.9,4.3,83,27.6c12.9,10.1,24.8,28.4,27.7,63.7l-411.1-5.5c-26.3,0.7-52.7-0.2-78.9-2.8c-64.8-6.4-192.2-17.8-291.3-105.2
		c-89.9-79.2-154.5-213-135-346.8c13.6-93.6,69.4-195.4,151.6-259.5c68.2-53.2,138.4-67.8,150.2-128.4c10.2-52.7-32.4-96-23.5-102.1
		c11.2-7.7,92.8,52.7,112.1,143.3c9.2,43.1-1.6,82.4-23.5,159.2C396,671,369.1,677.6,362.6,756.7c-2.4,28.8-7.1,99.3,29,171.6
		c24.9,49.9,61.8,85.6,65,83.3c3.3-2.4-34.1-42.7-55.3-105.5c-5.3-15.7-38.6-116.8,2.8-218.6c19.8-48.6,40.9-59.4,88.6-160.6
		c12.9-27.2,19.2-40.8,23.5-54c29.3-89.7-7.2-131.2,8.3-190.3c27-103.3,186.2-160.1,208.9-136.3c9,9.4-8.9,25.5,0,51.9
		c12.2,36.2,55.9,34.6,96.9,71.3C837,275.5,889.3,323.3,883.4,372.3z"/>
	<path class="st3" d="M722.5,309.7c-0.5-16.4,14.1-30.1,29-30.4c19.2-0.5,35.9,20.9,30.4,38.7c-4.1,13.8-20.6,22.9-35.9,19.4
		C733.6,334.5,722.9,323.3,722.5,309.7z"/>
	<path class="st4" d="M775.8,1150.4c-20.6,33.8-127,37.9-183.4-13.8c-29.3-26.8-56.5-79.2-95.2-101c-5.9-3.2-11.5-7.1-16.6-11.5
		c-15.6-13.3-25.3-29.9-33.2-50.9c-10.1-27.3-15.9-56.1-17-85.1c-2.9-83.9-10.1-127.3,21.1-166.1c12.9-16,34.4-30.3,107.9-94.5
		c41.1-35.8,46.2-42.4,52.2-52.2c23.6-38.6,16.8-67,45.7-92c12.2-10.6,23.8-14.5,42.2-20.7c49.5-16.8,106.3-8.8,100.6-4.8
		c-3.1,2.2-5,3-15.9,11.4c-6.4,4.9-17.7,13.5-24.1,26.2c-10.1,19.6-2.7,40.3-2.2,42.2c5.9,20.6,19.4,40,37.5,38.6
		c9.1-0.7,18.5-4.5,30.8-19.4c14.7-17.8,35.5-29.3,50.4-36.5c5.9-2.9,49.6-27.7,85.3-7.7c19.6,11,35.5,35.2,32.5,58
		c-1.7,13.1-1.7,20.6-39.6,41.5c-34.1,18.8-50.5,26.2-100.1,52c-42.2,21.9-51,29.4-55.4,40.1c-10.1,25.2,2.8,38.3-8.3,55.4
		c-8.3,12.8-20.9,15-39.4,14.8c-17.3-0.3-40,0.1-66.6,13c-61.1,29.8-88.9,75-91.4,80.8c-1.3,3-2.6,8.6-7.4,19.4
		c-2.1,4.7-3.8,8.1-2.8,9c1.6,1.3,8.6-4.5,9.7-5.5c13.9-11.5,51-17.3,81.7-15.2c26.2,1.8,68.6,4.7,94.1,35.9
		c22.5,27.5,20.8,63.2,19.4,95.5c-1.7,38-12,46.1-12.4,91.3C775.4,1135.4,782,1140.2,775.8,1150.4z"/>
	<path class="st5" d="M709.7,1008.4c-5.5,1-60.5,12.7-78.5,55.5c-6.9,16.4-12.7,46.4,2.8,65.1c1,1.3,2.3,2.5,3.7,3.6
		c24.3,19.2,80.4,12.7,91.9,11.3c0,0,83.5-10.4,176.5,14.8c12.4,3.5,24.2,9.1,34.9,16.4c2.9,2.1,12.6,12,13.7,12.9
		c-188.8,0.3-260.4-4.3-315.1-5.2c-6.6-0.1-37.7,1.7-87.9,0.1c-28.8-0.9-54.8-2.5-67.3-3.7c-13.8-1.2-38.7-3.6-67.6-8.7
		c-10-1.8-54.9-10.1-95.2-25.1c-66-24.5-122.5-67.9-139.6-89c-62.1-76.8,31.1-313.1,260.5-548.3c-7.7,35.2-18.5,69.7-32.3,103
		c-15.2,36.4-25.6,51-35.8,86.7c-7.4,26-11.8,52.7-13,79.7c-1.1,26.8-3.4,87.7,30.3,150.8c12.8,23.9,51.3,95.6,110.7,101
		c11.4,1,40.6-9.9,98.3-31.8c53.1-20.1,75.7-30.9,104.5-22.8c20.8,5.8,41.3,20.1,39.4,27C743.2,1007.1,728.9,1004.6,709.7,1008.4z"
		/>
</g>
<g transform="translate(0.000000,1173.000000) scale(0.100000,-0.100000)">
	<path d="M2949.2,9568.8c1.5-1.4,9.7-5.1,18.4-8c51.8-17.8,148.8-57.8,175.3-72.2c9.2-4.9,22.8-11.2,30.3-13.7
		c20.6-7.3,58.2-25.7,125.7-62.2c141.3-76.3,260.3-155.7,380.8-254.5c20.4-16.7,25-21.4,25.9-26.5c0.7-3.5,1.8-24.7,2.4-47.5
		c2.8-91.2,9.9-186.1,30.5-406.9c28.6-306.7,31.8-360.8,34.9-605.9c0.9-80.4,2.4-155.1,2.9-165.9l1.3-19.8l-10.8-1.6
		c-6.1-0.8-17.1-3.5-24.6-6.1c-7.5-2.5-14.3-4.7-15-4.7c-2,0-32.3,44.1-53.8,78.4c-48.8,77.8-51.4,88.4-51.4,217.6
		c0,84.5,1.8,112.6,8.4,134.3c4.8,14.9,28.8,68.2,43.5,95.7c6.1,11.6,10.6,21,9.9,21c-1.7-0.2-28.1-33.7-40.6-51.2
		c-13-18.6-25.5-39.4-30.3-51.4c-13.2-32-23.9-117.3-23.9-192.6c-0.2-65.5,4.4-91,23.3-132.9c13-29,37.1-72.6,62.8-113.7l17.3-27.6
		l-13.4-14.9c-7.3-8-15.6-18.4-18.5-22.9c-2.8-4.7-5.7-8.4-6.2-8.4c-0.7,0-13.2,6.7-27.9,14.9c-69.7,39.2-115.3,73.5-127.6,96.1
		c-14.3,26.1-33.2,104.9-42.8,177.6c-4.8,36.5-4.8,52.7,0,72.6c5.1,21.6,19.3,62,36.5,104.3c7.9,19.2,13.8,34.3,12.8,33.3
		c-2.9-3.3-42.2-71.4-57.3-99.2c-8.3-15.5-18-35.1-21.5-43.7c-6.2-15.3-6.4-16.3-6.2-40.2c0.2-41,6.4-88.4,18.2-139
		c11-47.8,25.9-85.7,40.6-103.9c12.5-15.7,64.6-54.9,126.8-95.3c22.9-14.7,29.5-20,28.6-22.4c-3.3-8.8-8.3-29.8-10.1-43.7
		c-1.7-11.6-2.8-15.3-4.6-14.5c-8.1,3.3-60.6,19.8-81.5,25.5c-41.5,11.4-53.6,13.3-70.5,11c-43.1-6.5-123-48-181-94.7
		c-32.9-26.3-37.3-32.2-49.6-65.3c-10.6-28.2-42.2-130.8-42.2-136.7c0-1.2,9.2,17.8,20.4,42c23.7,51.4,45,90.4,55.8,102.4
		c21.8,24.5,132.5,91.4,177.1,107.5c16.2,5.7,18.7,6.1,34.9,5.1c19.3-1.2,43.7-7.3,74-18c18.7-6.5,65.5-24.5,65.5-25.3
		c0.7-3.3,5.5-32.2,5.5-33.5s-26.8-2-76.7-2c-74.3,0-76.9-0.2-87.9-4.5c-23.3-8.8-50.1-29-82.8-62.2
		c-32.5-33.1-69.9-81.2-80.6-103.5c-6.6-13.9-9.5-44.7-10.6-111.2l-0.9-55.9l5.3,32.2c12.5,73.7,21.1,105.9,33.6,123.3
		c29.9,42.5,92.7,108.4,124.1,130.8c16,11.2,28.4,14.7,60,16.1c40.2,1.8,132.9-5.9,134.5-11.2c2.6-7.8,23.9-38.2,35.1-49.6
		l12.8-13.3l2.9-17.1c5.5-31.4,19.8-62,36.9-78.8l8.1-7.8l-2.4-10c-3.9-15.7-2.2-20.8,11-34.5c6.4-6.9,12.3-12.4,13.2-12.4
		c0.9,0-1.1,5.1-4.6,11.2c-7,12.4-7.7,19.8-3.1,28.2c3.1,5.5,3.9,5.7,10.6,4.3c9.4-2,23.7-2,33.2,0c7.5,1.6,7.5,1.6,11.4-6.7
		c3.5-7.6,3.7-8.8,1.1-15.3c-1.5-3.9-4.8-10.4-7.3-14.3c-6.6-11-2.2-9,10.8,4.7c13.4,14.1,15.4,20,11.4,34.3l-2.8,9.4l9,9.8
		c18.5,20.6,30.3,45.9,36,78c2.9,16.9,3.1,17.1,14.1,28.2c12.7,12.9,26.2,31.2,32.7,44.3c2.6,4.9,6.2,9.4,8.3,10
		c2,0.6,17.8,2.5,34.9,4.3c39.6,4.3,110.7,4.9,127,1c22.8-5.3,47-24.3,91.4-71.8c36.7-39.2,63.7-73.3,69.7-88
		c7.5-18.2,16.9-60.8,26.4-119.8l3.5-21.6l0.2,26.9c0.2,36.1-3.1,102.9-6.2,121.8c-2,12-4.2,18.2-10.8,29.4
		c-21.8,37.3-75.6,99-111.2,127.6c-25.7,20.8-44,30-64.2,32.5c-9,1.2-43.5,2-81.3,1.6c-42.8-0.4-65.5,0-65.5,1.4
		c0,2.5,5.5,32.9,6.1,33.5c0.9,1,45.7,18.2,64.6,24.9c48.6,17.1,77.5,22,97.8,16.3c34.1-9.6,116.9-56.1,168.7-94.5
		c25.3-18.8,37.4-37.6,73.6-114.5c12.5-26.5,22.2-46.3,21.7-44.1c-3.5,13.9-17.4,60.6-27.5,92.2c-13.9,44.1-23.1,67.3-29.9,76.7
		c-14.1,20-78.7,66.9-129.2,94.1c-49.2,26.3-86.8,36.7-114.7,31.4c-24-4.7-103-27.5-122.1-35.5c-2.4-1-3.3,1.8-5.1,14.9
		c-1.3,8.8-4.2,22.9-6.4,31.4l-4.2,15.5l27.7,17.8c37.8,24.5,92.5,63.5,110.7,79c16.5,13.9,26.6,28.2,36.2,50.8
		c22.6,52.9,40.9,153.5,39.3,214.1c-0.6,23.5-0.6,23.7-9,42.4c-10.6,23.5-25.5,51.2-52.7,97.8c-22,38-26.4,44.7-21.8,33.3
		c24.8-60.8,34.3-85.9,42.2-110.6l9.5-29.6l-0.2-24.5c-0.4-59-28.3-188.8-47.4-221.2c-8.1-13.7-31.8-34.1-67.2-57.6
		c-28.1-18.6-85.9-52-87-50.2c-4.6,7.5-15.4,21.2-25.3,32.2l-12.7,13.7l17.6,28.4c36.9,58.8,66.8,116.7,75.1,144.7
		c7.7,25.9,10.5,52.9,10.5,102c-0.2,81.4-11.2,165.3-26.2,197.1c-10.5,22.4-38.2,62.5-60.2,87.5c-5.3,5.9-8.3,8.6-7,5.9
		c10.8-19.8,36.2-72,42.8-87.8c16.2-39.2,18.2-56.9,18.2-160.2c0-116.1-3.5-134.9-35.2-190c-14.5-25.1-58-91.2-68.3-103.7
		c-0.7-1-7.9,0.6-15.8,3.1c-8.1,2.7-19.1,5.5-24.8,6.3l-10.3,1.4l-1.3,57.1c-0.6,31.6-1.5,99.2-2,150.4
		c-2.2,193.3-5.9,256.5-30.3,517.7c-20.4,217.5-24.6,268.6-30.1,357.8c-3.5,55.3-7.2,143.5-6.4,150.4c0.7,4.9,2,3.9,28.3-19.4
		c15.2-13.5,38.9-35.3,52.9-48.2c13.8-13.1,29.2-26.3,34-29c4.8-2.9,42.9-25.3,84.8-49.8c122.6-72,136.5-81.8,178-126.3
		c30.7-32.9,50.1-59,82-110.4c24.8-39.8,33-49.4,64.2-74.7c9.9-8,21.7-17.8,26.2-22c10.1-9,115.1-116.3,161.1-164.7
		c69.2-72.5,108.3-125.1,132.5-177.8c6.1-13.1,12.1-25.1,13.4-26.3c1.1-1.2,5.5-3.1,9.5-4.3c4-1.4,14.9-8,23.9-14.9
		c9.2-7.1,32.7-23.1,52.3-35.7c88.1-56.7,106.1-73.5,174.4-163.3c87.2-114.5,133.4-192.2,243-405.9c29.9-58.4,30.7-60.2,38.9-91.2
		c16-60,37.4-130.6,54.5-179.2l7.7-22.2l0.6,13.7c0.6,12.7-0.6,17.3-16.7,69.2c-9.5,30.6-22.9,76.5-29.7,102.2l-12.5,46.7l7,22.9
		c11.4,38.4,30.8,85.7,44.6,109c4,7.1,4.8,7.5,6.1,4.1c0.7-2.4,1.5,3.5,1.5,14.3c0.2,10.6-0.6,17.8-1.5,17.3
		c-0.9-0.8-5.9,8.2-11.2,19.8c-21.3,48-57.3,113.9-97.5,179.2c-13,21-23.7,38.8-23.7,39.4c0,0.8,5.1-0.8,11.6-3.3
		c6.2-2.5,19.6-7.3,29.9-10.8c10.3-3.3,25.5-10.2,33.8-15.3c17.4-10.6,40.2-32.4,50.7-48.6l7.2-11.2l0.6,12.4l0.6,12.4l-10.6,11.8
		c-21.1,22.9-40.7,35.3-79.1,49.2c-13,4.7-27.9,11-33,13.7l-9.4,5.1l2.4,7.5c11.9,35.9,41.8,79,75.4,108.2
		c12.3,10.6,41.3,32.2,50.1,37.1c3.3,1.8,4,3.9,4,11c0,4.9-0.4,8.8-0.9,8.8c-2.8,0-34.9-22-50.1-34.3
		c-38.7-31.4-66.3-66.7-82.2-105.9c-2.9-7.1-5.7-12.7-6.2-12.7c-1.1,0-3.1,14.5-16.5,124.1c-5.1,41-9.2,76.9-9.2,79.8v5.7l15.2-0.8
		c8.3-0.6,25.9-1.4,38.9-1.8c33.4-1.4,70.8-9.4,99.7-21.6l11.4-4.9v7.6v7.6l-17.8,6.1c-34.7,11.4-56.2,14.9-107,17.5
		c-18.7,1-36.2,2.7-38.7,3.7c-4.6,2-4.8,2.5-9.7,47.8c-2.8,25.1-7.7,68.8-11,96.9l-5.9,51.4l9.4,1.4c5,0.6,23.7,4.1,41.3,7.8
		c43.1,8.8,43.9,8.8,65,10.8c17.3,1.4,63.9-0.6,71.2-3.1c2.8-0.8,3.3,0.2,3.3,5.7v6.7l-11.2,1.4c-20,2.2-71.8,1.2-90.7-1.8
		c-10.1-1.6-30.1-5.5-44.4-8.8c-14.5-3.1-30.7-5.9-35.8-5.9h-9.7l-8.3,69.2c-4.4,37.8-8.1,72.4-8.3,76.5c0,7.5,0.2,7.6,11,12.2
		c6.1,2.4,18.5,8.2,27.5,13.1c45.9,24.5,98,39.4,147.4,42.2l22.4,1.2v5.9v5.9l-25.1-1.2c-55.1-2.7-98.7-15.1-155.3-43.9
		c-16.2-8.2-29.7-14.1-30.5-13.1c-0.7,1-4,22-7.3,46.9c-3.3,24.7-6.4,47.3-6.8,50c-0.9,4.3,0.6,6.3,9.2,13.7
		c5.5,4.9,19.8,17.3,31.8,27.6c44.2,38.2,96.9,74.5,152.9,104.7l31.2,16.9v8.6c0,10.6,2.4,11.2-34.3-8.6
		c-65-34.7-125.9-76.9-175.8-121.6l-18.2-16.3l-8.8,55.5c-8.8,55.5-8.8,55.7-5.7,63.5c6.4,15.1,21.1,36.9,35.1,51.8
		c32.9,34.9,78.6,59.6,163.5,88.2l30.3,10.2l6.4-5.1l6.6-4.9l0.6,7.1c0.6,6.3-0.4,7.8-11,18.4c-21.7,21.2-29.5,44.7-29.5,89.2
		c0,29.8,3.1,54.7,10.8,85.3c7.2,28.4,17.1,60.2,23.9,76.9c5.3,12.5,6.2,17.3,6.2,29.4c-0.2,13.3-0.4,14.1-2.9,10.4
		c-11-15.1-29.2-63.5-38.5-102c-10.6-44.3-12.5-58.2-12.5-90.2c0-30.4,4-55.5,10.8-69.6c1.7-3.3,2.4-5.9,2-5.9
		c-2.9,0-84.4,66.1-88.1,71.2c-21.1,30.2-20.7,61.4,1.7,133.9c6.1,19.6,30.5,75.5,36.3,83.7c2.2,2.7,10.8,4.3,46.4,8.8l43.9,5.5
		l0.6,5.3c0.7,6.7,2,6.7-49.7,0.2c-22.2-2.7-43.1-4.5-46.4-3.7c-10.5,2-30.7,14.1-40,23.9c-20.9,22.2-26.1,52.9-13.6,81
		c3.7,8,19.8,26.5,40,45.9c4.8,4.5,20,13.7,38,23.1c16.5,8.4,30.3,15.3,30.5,15.3c0.4,0-2.6-6.9-6.4-15.1
		c-20.2-43.7-11.7-91.8,22.4-128c7.7-8,16.5-16.3,19.8-18.2l5.9-3.5v5.7c0,4.7-3.1,9-15.4,22.2c-16.2,17.5-23.1,29.6-27.7,48.2
		c-9.2,37.8,6.4,83.1,35.6,102.9l8.3,5.5l-37.6-0.4c-37.4-0.2-38.2-0.4-9-2.7l15.6-1.2l-39.5-21c-38.4-20.2-40.2-21-61.5-24.7
		c-62.8-11.2-121.1,2-174.5,39.2c-12.8,8.8-17.1,10.8-22.2,10.4c-6.4-0.6-6.2-0.8,12.5-14.1c48.3-34.1,95.1-50.6,145.2-51
		c13-0.2,23.5-0.4,23.5-0.6c0,0-6.4-3.9-14.1-8.6c-18.9-11-44.6-28.2-59.3-39.8l-11.9-9.4l-18.4,1.2c-10.1,0.6-25.3,2.9-34,5.1
		c-16.9,4.3-48.5,20-58.5,29l-6.2,5.5l5.9,37.3c3.3,20.4,6.4,39,7,41.6c0.9,4.1,0.4,4.3-8.8,4.3h-9.9l-7.3-12.4
		c-8.8-14.7-29.4-38-43.1-49.2c-22.8-18.4-48.3-31.4-74-37.5c-17.1-4.1-54.3-3.5-61.9,1c-10.1,5.9-84.6,67.3-83.1,68.6
		c0.7,0.8,9.7,5.1,19.8,9.6c10.1,4.5,22.9,10.8,28.4,13.9l10.1,5.7l-16,0.2c-14.7,0-17.4-0.8-36.5-8.8c-11.4-4.9-21.3-8.8-22-8.8
		c-0.7,0-5.9,3.9-11.6,9c-9.7,8.2-10.8,8.8-19.8,8.2l-9.7-0.6l15-12.5l14.9-12.7l-4.2-5.9c-2.2-3.3-9-14.3-14.7-24.5
		c-21.3-36.9-49.2-58.8-108.8-85.5c-23.7-10.6-20.4-10.4-75.2-3.3l-26.1,3.3l18.5,19.6c36,37.8,49,59.8,57.6,96.3
		c6.1,25.3,6.1,26.3-1.7,26.3h-6.2l-3.9-17.1c-2.2-9.6-8.1-26.5-13.2-37.8c-9-19.6-10.6-21.6-39.5-52.7l-29.9-32.2l-50.1,5.1
		c-27.5,2.9-61.3,6.3-74.9,7.5c-37.4,3.1-36.2,1.2-13.4,21.6c40.2,36.1,101.5,99.2,101.5,104.5c0,0.6-3.9,1.2-8.4,1.2
		c-8.4,0-8.6-0.2-31.8-24.9c-37.6-40.8-98.7-96.7-105.3-96.7c-7.2-0.2-136.2,10.2-136.9,11c-0.4,0.4,2.9,5.3,7.5,11
		c19.1,24.3,38.7,53.9,54.3,82.5l9.5,17.1h-8.8h-8.6l-7.2-13.3c-13.4-24.7-30.5-49.6-63.5-92.9c-2.8-3.5-4.8-3.5-75.2,2.4
		c-39.8,3.3-85.7,7.3-101.9,8.8c-16.2,1.6-30.7,2.9-32.3,2.9c-1.5,0-4.4,1.2-6.2,2.7c-3.3,2.5-3.5,3.1-0.7,6.5
		c5,5.9,24.4,41.6,34.5,62.9l9.4,20h-6.4c-6.2,0-6.6-0.6-13.8-15.7c-8.8-18.6-28.4-54.3-36.3-65.9c-4.6-6.7-6.4-7.8-10.6-7.5
		c-2.9,0.4-21.5,2.5-41.1,4.9c-69.2,7.8-116.4,15.3-118.7,18.8c-6.2,8.8-0.6,29,15,52.7l8.1,12.5h-6.1c-5.3,0-7-1.4-13.8-11.6
		c-11-16.9-18.5-34.9-18.5-44.7c0-10.2,2-10-37.4-3.5c-50.3,8.4-64.2,11-68.5,12l-4.2,0.8l3.3,9.4c1.8,5.3,6.8,15.5,11,23.1
		l7.7,13.5l-7.5,0.6c-4.2,0.4-8.3,0-9.2-1c-0.7-0.8-5.9-10.4-11.4-21.2c-6.8-13.3-11.2-19.8-13.6-20.2c-2-0.4-30.5,4.3-63.1,10.2
		c-145.2,26.1-192.2,32.5-236.2,32.4l-34.3-0.2l37.6-4.7c62.2-7.8,114-15.9,205.4-32.4l87-15.5l19.5-20.4
		c10.6-11.4,18.9-21,18.5-21.6c-0.6-0.4-7.3-2.2-15-3.9c-17.4-3.9-35.6-3.9-50.1-0.4c-19.5,4.9-35.4,5.9-106.5,5.9l-69.7,0.2
		l-28.4,13.3c-48.1,22.7-114.9,50.6-168.3,70.2c-21.8,8-28.3,9.6-39.5,9.6C2948.5,9571.5,2947,9571.1,2949.2,9568.8z M4824,9522.9
		c-3.1-20-5.5-29.4-8.1-33.1c-2.2-2.7-3.9-5.9-3.9-6.9c0-3.9-12.8-22.7-22.2-32.5c-5.5-5.7-15.6-14.3-22.8-19
		c-12.1-8-36.2-19.4-44-20.8c-2.4-0.6-14.3,7.8-35.4,24.7l-31.6,25.5l18.9,1.4c22.9,2,45,7.6,65.5,17.1c28.3,12.9,61.7,39,78.9,61.8
		c4.4,5.9,8.4,10.6,8.6,10.2C4828.2,9550.9,4826.6,9538.2,4824,9522.9z M4587.8,9499c22.4-17.8,40.6-33.5,40.7-34.9
		c0-1.4-2.6-9.2-5.7-17.3c-11-28.2-28.3-46.9-51.6-55.7l-10.3-3.9l-22.8,4.9c-12.5,2.5-43.1,8.4-68.5,12.7
		c-25.1,4.3-48.6,8.4-51.9,9c-5.9,1-4.4,2,22.9,16.5c45.9,24.5,66.6,43.3,87,78.6c10.8,19,14.3,23.7,17.3,22.9
		C4546.3,9531.5,4565.6,9516.8,4587.8,9499z M3540.5,9488.4c2.8-3.7,17.3-15.9,32.3-27.3c49.4-37.3,86.3-70,120-106.7l16-17.3
		l-1.7-47.1c-1.1-25.9-2-54.3-2.4-62.9l-0.4-16.1l-13.8,16.9c-22.6,27.6-58.5,66.7-130.9,141.8
		c-106.8,111.4-135.3,141.4-135.3,142.7c0,0.8,25-2.9,55.4-8l55.2-9.4L3540.5,9488.4z M5027.2,9485.8c-11.9-18.2-16.7-39-13.2-57.8
		c4.6-26.3,19.6-48.2,43.1-63.1c6.1-3.9,9.7-7.1,8.3-7.1s-25.5-3.5-53.2-7.8l-50.5-7.6l-6.1,7.1c-11.6,13.9-16,41.4-11.2,70.6
		l2,12.4l16.9,13.5c23.1,18.6,65.2,47.6,67,46.1C5030.7,9491.5,5029.2,9489,5027.2,9485.8z M3604.4,9485.5
		c23.7-3.1,57.8-7.3,75.6-9.2c43.7-4.5,40.9-1.2,36.3-45.9c-2-18.8-4.2-42.4-5-52.2l-1.5-18l-24.8,24.5
		c-29.2,28.8-68.8,63.3-96.7,83.9c-23.1,17.3-29.4,22.4-28.1,22.4C3560.9,9491.1,3580.7,9488.6,3604.4,9485.5z M4876.7,9450.9
		c7.9-2.7,23.5-6.3,34.9-7.8c18.7-2.7,25.7-5.5,22-9c-0.7-0.8-7.5-6.9-15-13.5c-7.5-6.9-17.6-16.3-22.4-21.2
		c-7-7.3-10.3-9-18.4-10.4c-16.7-2.9-34.7,2.4-47.2,13.5l-5.9,5.3l2.9,28.4c4.2,42,2,38.8,19.8,28.6
		C4855.8,9460,4869,9453.9,4876.7,9450.9z M3766.8,9467.6c11.2-1.2,56.3-5.1,100.4-8.6l80.4-6.7l11.6-9.8
		c33.4-28.4,67-75.7,83.9-117.5c16.2-40.8,18.9-64.5,17.3-153.7l-1.3-66.3l-5.7-1.4c-20.9-4.5-80.2-19.6-104.8-26.5
		c-16.2-4.5-31.2-8.6-33.6-9.2c-6.2-1.4-10.5,11.6-15,45.7c-2.2,16.3-5.5,37.8-7.5,48c-20.7,105.5-75.1,217.1-141.9,291.8
		C3733.8,9472.1,3732.5,9470.9,3766.8,9467.6z M3369.3,9462.9c31.2-6.9,44.4-15.3,77.1-49c27.5-28.4,35.1-35.1,54.1-47.3
		c7.9-5.3,25.7-19,39.5-30.8c26.6-22.7,45-33.9,59.8-36.3c8.8-1.6,10.1-2.5,34-29c13.6-15.1,35.2-39.8,48.1-54.9l23.5-27.5v-16.9
		v-17.1l-37.3,29.8c-122.6,97.8-233.5,170.4-376.4,246.5l-65.9,34.9l23.7,0.8C3299.6,9467.8,3353.3,9466.2,3369.3,9462.9z
		 M3522.7,9389.8c41.1-42.7,73.8-78.2,72.7-78.6c-3.1-1.2-16.9,4.3-25.1,10c-4,2.5-11.7,9.2-17.3,14.5
		c-19.1,18.4-30.8,27.5-48.3,37.6c-25,14.3-33.2,21.8-53.4,46.7c-11.7,14.5-21.7,24.7-29.5,30.4l-11.9,8.2l16.9,4.3
		c9.4,2.4,18,4.3,19.1,4.5C3446.9,9467.4,3481.6,9432.5,3522.7,9389.8z M4813,9439.2c-1.5-14.1-2.8-29.4-2.8-34.5
		c0-14.7-11.9-31.4-27.3-38.2c-3.3-1.6-7.2-2.7-8.4-2.7c-2,0-47.2,38.4-48.3,41c-0.2,0.8,4.4,2.9,10.1,4.9c24,8,49.9,25.1,67.5,43.9
		c5.9,6.7,11,11.8,11.4,11.6C4815.4,9464.7,4814.5,9453.1,4813,9439.2z M4675.2,9428.8c32.5-26.5,33-27.1,37.1-38.6
		c2.4-6.5,4.2-15.7,4.2-20.2c0.2-11-4.8-20.6-9.9-19.4c-2,0.4-23.5,6.3-47.7,12.7c-24.2,6.7-52.3,13.9-62.4,16.1
		c-10.1,2.4-19.5,4.5-20.9,5.1c-1.3,0.4,3.7,4.1,11,8c18.4,9.6,35.2,27.8,45,48c3.9,8.4,8.1,15.3,9,15.1
		C4641.6,9455.7,4657.2,9443.5,4675.2,9428.8z M4038.1,9445.1l60.2-4.7l14.7-13.1c45.9-40.8,79.1-101.6,90.7-165.5
		c4.6-26.3,5.3-52.7,2.2-81.4c-1.8-16.9-2.4-28.8-1.3-35.3c0.7-5.3,1.3-9.8,1.1-10c0,0-10.8-2.2-24-4.5c-13-2.5-42.8-8.4-65.9-13.3
		c-22.9-4.7-42.4-8.2-42.9-7.6c-0.6,0.6,0,27.1,1.3,58.4c2.4,62.5,1.3,88.8-5.3,115.9c-12.5,52.2-45,107.8-88.5,151.2l-16.5,16.5
		l7-0.8C3974.8,9450.4,4005.1,9447.8,4038.1,9445.1z M3750.9,9430.4c50.3-61,90.7-137.6,112-212.7c10.5-36.9,23.7-100.2,20.4-98
		c-0.7,0.6-3.7,5.1-6.4,10.4c-30.3,55.9-99.1,153.3-141.7,201l-11.9,13.3l1.1,18c2.9,44.7,7.5,87.6,9.4,87.1
		C3734.7,9449,3742.4,9440.4,3750.9,9430.4z M4187.1,9432.3c91.6-9,104.6-10.8,110.9-15.5c11.4-8.6,23.3-36.9,27.5-64.9
		c4.6-29.4,2.8-56.7-9.2-138c-7.5-50.8-7.7-52.7-4.4-55.3c1.8-1.6,3.1-2.9,2.6-3.3c-0.4-0.4-19.5-3.9-42.2-8
		c-22.8-3.9-43.1-7.6-45.1-8.2c-2.9-0.8-4.2,0-5.3,3.5c-0.7,2.4-1.5,27.5-1.7,55.5c-0.4,44.7-0.9,53.1-4.4,68.6
		c-14.3,64.1-39.8,112.6-81.5,155.5c-12.8,13.1-15,16.1-11.7,16.1C4124.9,9438.2,4153.9,9435.5,4187.1,9432.3z M4348.1,9413.9
		c38.9-5.3,37.8-4.7,59.5-28.8c21.1-23.7,38.2-51.8,50.5-82.9c9.4-23.9,14.1-44.7,17.3-74.7c1.7-16.9,3.7-27.3,6.2-32.5l3.9-7.6
		l-4.2-0.8c-2.2-0.6-8.1-2-13.2-2.9c-19.8-4.3-134.7-25.7-138.4-25.7c-0.7,0-2.8,1.2-4.4,2.5c-2.9,2.2-2.6,6.3,5.3,61.2
		c5.7,39.8,8.8,67.8,9.4,86.5c0.9,25.3,0.6,29.4-3.9,47.6c-5.1,21.2-13.2,42.2-20,52c-6.6,9.2-7.3,11-4.6,11
		C4312.7,9418.6,4329.2,9416.4,4348.1,9413.9z M4931.2,9412.3c-5-18.4,0.2-51.4,10.3-65.3c2.6-3.7,4.6-6.9,4.2-7.1
		c-0.4,0-12.5-2.2-27.2-4.7l-26.6-4.5l-4,4.9c-5.1,6.9-8.6,20.4-7.2,28.8c1.1,5.7,5.5,11.2,25.5,30.4c13.4,12.9,24.8,23.7,25.5,23.7
		C4932.5,9418.6,4932.1,9415.7,4931.2,9412.3z M4429.8,9401.9c34.3-5.7,75.1-13.1,102.4-18.8c17.1-3.5,18.9-4.5,28.4-13.3
		c20.6-19.2,36.9-47.5,46.6-80.2c5.1-17.3,9.2-47.3,8.1-60.2c-0.6-7.6-0.9-8-10.6-11.4c-13.2-4.5-63.1-18-89.6-24.1
		c-16.9-3.9-21.5-4.3-22.8-2.4c-1.7,2.9-2.4,7.6-5,32.9c-6.2,60.8-35.8,123.3-79.5,169.2c-7,7.3-11.7,13.1-10.6,13.1
		S4413.1,9404.7,4429.8,9401.9z M4835.9,9385.1c7-2.9,14.5-4.1,24.4-4.3c7.7,0,14.1-0.6,14.1-1.2c0-0.4-11-12.5-24.2-27.1
		c-19.8-21.4-24.6-25.5-25.7-22.7c-2.4,6.9-1.7,59.4,1.1,59.4C4825.7,9389.2,4830.4,9387.2,4835.9,9385.1z M4756.7,9359.2
		c5-5.7,7.3-22.4,3.5-24.1c-1.5-0.6-11,1.8-21.1,5.1l-18.4,6.1l5.3,10.2c3.1,6.1,5.3,13.1,5.3,17.6v7.5l10.8-9
		C4748,9367.6,4754.6,9361.5,4756.7,9359.2z M4809,9330.6c-0.6-0.8-29.5,25.9-29.7,27.5c-0.2,0.6,3.9,3.1,8.8,5.5
		c5,2.5,11.2,6.7,14.1,9l5.3,4.5l0.9-22.7C4809,9341.5,4809.1,9330.9,4809,9330.6z M4628.5,9360.6c68.3-17.3,73.4-19.2,81.1-28.2
		c3.7-4.5,8.6-13.1,10.6-19.2c5.3-14.9,8.8-40.8,6.2-45.1c-2.4-3.9-28.1-16.1-62.8-29.6c-27-10.4-30.7-11.4-32.5-8
		c-0.6,1-1.8,11.8-2.8,23.9c-0.9,12.2-3.5,28.8-5.5,36.9c-5,18.8-19.6,51.2-29.5,64.9c-4.2,5.9-8.6,11.8-9.7,13.3
		C4581.4,9372.5,4581,9372.7,4628.5,9360.6z M4872.8,9328.2c-0.6-0.8-7.7-2.4-15.8-3.5c-8.1-1.4-16.3-2.9-18.4-3.5
		c-2-0.6,3.1,6.3,11.9,15.9l15.4,16.9l4-12.4C4872.1,9334.9,4873.4,9328.8,4872.8,9328.2z M5063.7,9324.3
		c-11.6-24.7-22.2-55.1-31.4-90c-8.1-30.2-9.5-60-4-77.5c2-6.5,3.5-12,3.3-12.2c-1.1-1.2-56.5,43.3-58.9,47.3
		c-4.6,7.5-11.7,38.2-13.9,59.6c-2.6,24.1-0.6,46.1,6.4,67.3c4,12.4,4,12.5,12.1,14.1c10.1,2,96.2,14.7,96.7,14.3
		C5074.2,9347,5069.6,9336.6,5063.7,9324.3z M4796.7,9321.1c-0.2-0.4-5.7,1.4-11.9,3.5c-10.1,3.7-11.4,4.7-10.5,8.4
		c0.6,2.2,1.1,5.3,1.1,6.7c0,1.4,5-2,11-7.6S4797,9321.5,4796.7,9321.1z M4768.8,9318.4c27-9.2,29-10.4,25.7-12.9
		c-5.1-4.1-25.3-16.7-40.2-24.7l-12.8-7.3l-2,18.2c-1.3,9.8-4,22.9-6.1,28.8c-2.2,5.9-3.9,11-3.9,11.2c0,0.2,2.2-0.4,5.1-1.4
		C4737.4,9329.4,4752.8,9324.1,4768.8,9318.4z M4951,9319.2c-0.6-5.3-2.4-16.1-4-24.1c-4-18.6-2.8-51.2,2.6-73.3
		c2.2-8.6,3.9-15.9,3.9-16.3c0-0.2-13.4,10-29.7,23.1c-16.5,12.9-29.7,24.5-29.4,25.7c0.4,1.2-1.1,6.5-3.3,11.8
		c-7,17.3-4.4,48.6,4.4,52.7c3.9,1.8,44,9,52.3,9.4C4951.7,9328.4,4951.9,9328,4951,9319.2z M3748.7,9290.9
		c43.7-53.5,85.2-115.7,126.5-188.8c10.6-19,19.8-35.7,20.4-37.3c0.7-2-2-3.7-9.7-6.1c-5.9-1.8-20-6.5-31.6-10.2l-21.1-7.1l-2.8,4.5
		c-8.1,12.9-42.8,59.8-71.9,97.3c-17.8,22.9-34.3,44.3-36.3,47.3c-3.7,5.3-3.7,6.9-2,67.3c0.9,33.9,1.8,62.7,1.8,63.7
		c0,1.2,2.4-0.8,5.1-4.1C3729.8,9314.1,3739.5,9302.1,3748.7,9290.9z M4875.2,9309.4c-0.7-4.1-1.5-15.1-1.7-24.5v-17.1l-5.5,4.5
		c-2.9,2.4-12.7,10-21.5,16.9c-9,7.1-16.2,13.9-16.2,15.9c0,2.5,4.2,3.9,21.7,7.1c11.7,2.4,22.2,4.1,23.1,4.3
		C4876.1,9316.4,4876.1,9313.5,4875.2,9309.4z M4784.7,9274.7l-17.3-18.6l-4.6,3.9c-2.6,2-5.7,3.7-7,3.7c-5.3,0-2.2,3.1,8.6,8.8
		c6.2,3.3,16.3,9.2,22.6,13.1c6.1,4.1,11.9,7.3,13,7.5C4801.1,9293.1,4794.1,9284.9,4784.7,9274.7z M4832.3,9260.6
		c5-16.7,9.2-31.4,9.2-32.4c0-1.2-2.2-1.6-5.1-0.8c-2.8,0.6-9,1.2-13.8,1.4c-5,0-8.6,1-8.6,2.4c-0.2,7.6,6.4,60,7.7,60
		C4822.4,9291.1,4827.1,9277.4,4832.3,9260.6z M4802.5,9264.1c-1.1-11-2.8-20-3.5-20c-0.7,0-3.7,1.4-6.4,2.9
		c-2.9,1.6-7.9,2.9-11,2.9s-6.2,0.6-7,1.4c-0.6,0.8,5.5,8.6,13.9,17.6c8.3,8.8,15.2,15.9,15.6,15.5
		C4804.6,9284.3,4803.8,9274.9,4802.5,9264.1z M4866.2,9256.8c5.3-4.7,5.3-4.9,1.8-7.3c-2-1.2-6.4-5.3-9.9-8.8
		c-3.3-3.7-6.2-6.3-6.4-6.1c-0.9,2-12.1,40.2-12.1,41.6C4839.6,9277.8,4856.9,9265.3,4866.2,9256.8z M4748.8,9252.9
		c2.6-2.5,4.6-6.3,4.6-8.2c0-3.9-51-59.4-54.5-59.4c-1.1,0-3.9,2.9-5.9,6.5c-4.4,7.8-15.8,17.6-28.4,25.1l-9.2,5.5l5.3,2.2
		c3.1,1.2,13.4,5.3,22.9,9.2c9.5,3.9,25.3,10.8,34.9,15.3C4739,9259,4742.9,9259.4,4748.8,9252.9z M4917.8,9216.6
		c18.2-14.3,34-26.9,35.2-28.2c1.8-2-0.2-3.5-10.6-7.8c-17.4-7.3-38.9-22.7-51.8-36.9l-10.5-11.6l-3.7,13.3
		c-15.6,56.9-18.5,69.6-17.4,74.5c2.2,9.4,7.7,19.6,13,23.7C4878.2,9248.6,4873.7,9251.1,4917.8,9216.6z M4784.9,9235.8
		c12.5-7.5,13-9.8,8.8-35.5c-2-12.4-5.3-31.2-7.3-41.6c-2-10.6-3.7-19.6-3.7-20.2c0-0.6-4.8,3.9-10.5,9.8
		c-5.9,5.9-14.1,12.9-18.4,15.9c-9.5,6.5-27.9,13.1-36.2,13.1c-14.5,0-13.9,0.8,16.7,33.7l29,31.2l7.2-1.2
		C4774.6,9240.6,4781.1,9238,4784.9,9235.8z M4828.8,9218.2c3.5-1.2,9.2-4.3,12.8-6.9c6.2-4.3,6.8-5.9,15.4-38.4
		c4.8-18.4,9.2-34.9,9.7-36.1c0.6-2-2.4-2.4-12.7-1.4c-11.6,1-16.9,0.2-35.4-4.9c-11.9-3.3-22.2-5.7-22.8-5.3
		c-0.4,0.6,1.7,14.5,4.8,31c3.1,16.5,6.6,35.7,7.7,42.7c3.3,21.8,3.3,21.6,9,21.6C4820.2,9220.6,4825.3,9219.6,4828.8,9218.2z
		 M4646.5,9210.7c12.5-6.1,23.3-15.3,32.1-27.5l8.3-11.2l-26.1-27.5c-14.1-14.9-36-37.6-48.5-50.4l-22.6-23.3l-6.1,14.7
		c-9.5,23.5-25.5,47.8-45,68.2c-9.7,10.4-20.4,20-23.5,21.4c-3.3,1.4-6.1,3.1-6.1,3.9s15,5.1,33.6,9.6c18.4,4.5,45.9,12.2,60.9,16.9
		c15.2,4.7,29.2,8.8,31.2,8.8C4637,9214.5,4642.1,9212.9,4646.5,9210.7z M4989.2,9160.6c13.2-10.4,31.2-24.5,40-31.6l16.3-12.7
		l-17.3-8.2c-36.9-17.8-69.7-42.4-99.5-74.5c-17.3-18.4-20.4-21-21.5-17.6c-0.7,2-6.2,25.9-12.5,52.7l-11,49l6.6,10.4
		c3.7,5.7,11.6,15.1,17.4,21c14.3,13.7,42.9,29.8,53.8,30.2C4963.7,9179.2,4976.2,9170.9,4989.2,9160.6z M4509.1,9171.1
		c12.7-7.6,35.4-31.6,45.9-48.4c8.8-13.9,23.5-45.7,25.1-54.3c1.1-5.9-5.5-12.9-78.4-84.7l-8.6-8.4l-5.9,6.3
		c-3.1,3.5-10.5,16.1-16,28.2c-23.3,50.4-64.4,98.6-109.6,128.4c-12.7,8.4-13.9,9.8-10.1,10.6c2.4,0.6,25.5,5.1,51.2,10
		c25.7,4.7,56.3,11,67.9,13.5c11.6,2.5,22.6,4.7,24.6,4.9C4497.1,9177.4,4503.4,9174.7,4509.1,9171.1z M3752.2,9129.2
		c17.3-22.2,31.6-41.2,31.9-42.4c0.4-1.2-9.5,7.1-22,18.2c-12.7,11.2-27,23.9-32.3,28.2l-9.4,7.8l-0.7,14.3
		c-0.2,7.6-0.2,14.1,0.4,14.1S3735.1,9151.3,3752.2,9129.2z M4722.1,9161.3c19.3-5.1,35.1-17.1,48.8-37.1l6.6-9.8l-6.8-29.8
		c-7.9-33.7-22-87.3-23.5-88.8c-1.7-1.8-18.9,8.2-34.1,19.6c-25.7,19.2-62,40.6-80,47.3c-5,1.8-14.7,4.3-21.5,5.5l-12.5,2.4
		l47.4,48.4l47.2,48.4l7.3-1.2C4705.1,9165.6,4714.6,9163.5,4722.1,9161.3z M4351.4,9136.2c49.6-31.8,85.9-73.9,111-128.6
		c6.6-14.3,14.5-28.6,17.6-32.4l5.5-6.3l-6.1-6.5c-3.3-3.5-20.6-20.2-38.2-36.9c-36.7-34.7-33.6-34.1-45-10.8
		c-27.5,55.9-87.4,134.5-139.7,183.5c-14.5,13.5-26.4,25.5-26.4,26.3c0,1,1.8,2.2,4.2,2.7c5.5,1.6,95.1,18.2,98.7,18.4
		C4334.9,9146,4343,9141.5,4351.4,9136.2z M4858.9,9121.5c13.2-6.3,13.4-7.1,25-57.1c5.9-25.7,11.2-50.2,11.7-54.1l1.3-7.3l-9-1.4
		c-6.2-1-15,0-30.5,3.1c-25.7,5.3-32.1,4.7-67-5.1c-13.4-3.7-25.1-6.7-25.9-6.3c-0.7,0.4,1.7,12.5,5.5,27.1
		c3.9,14.5,10.5,41.6,14.9,60.2l7.7,33.5l16.7,5.1c9,2.7,19.1,5.3,22,5.7C4839.1,9126.4,4852.5,9124.7,4858.9,9121.5z
		 M4245.5,9091.3c40.2-39.6,64.6-66.5,83.7-92.4c18-24.3,45.5-67.8,59.5-94.5l10.1-19l-26.8-26.1c-14.9-14.3-36.3-35.7-47.7-47.5
		c-11.4-11.8-20.9-21-21.3-20.6c-0.9,1-8.1,26.3-19.5,69.4c-9.5,35.5-21.1,70-30.3,89.4c-25.1,53.3-68.1,94.1-138,131.2
		c-15.2,8-27.9,15.3-27.9,15.9c-0.2,1.6,112,24.7,121.5,25.1C4213,9122.5,4219.8,9116.8,4245.5,9091.3z M5104.3,9070.4
		c25.5-20.2,48.3-38,50.5-40c3.9-3.1,2.9-3.5-33.2-15.5c-64.1-21.2-100.6-38.8-131.8-63.3c-20.4-15.9-43.3-41.4-50.1-55.1
		c-3.1-6.1-6.1-11.2-6.6-11.2c-0.6,0-2.9,10.8-5.1,24.1c-2.2,13.1-6.8,37.3-10.1,53.5l-5.9,29.8l9.9,11.4
		c32.1,37.1,43.3,47.6,72.9,68.4c13.6,9.6,58.2,34.3,61.9,34.3C5057.1,9106.8,5078.6,9090.4,5104.3,9070.4z M4106.6,9076.6
		c106.5-56.7,136.4-98.4,169.6-235.3c4-17.3,9.5-36.7,12.1-43.1c2.6-6.7,5.1-13.3,5.7-15.1c0.6-2.2-10.1-14.5-33.6-38.6
		c-18.9-19.6-35.2-35.7-36.3-35.7c-4.6,0-11.7,14.9-22.4,46.1c-20.4,59.8-56.5,118.2-101.1,163.7c-40.6,41.6-80.6,71.6-147.4,110.8
		c-19.3,11.4-35.6,25.5-31.2,27.3c9.4,3.7,139.3,37.3,148.8,38.2C4071.3,9095.1,4087.5,9086.8,4106.6,9076.6z M4631.5,9055.6
		c18.5-6.1,29.5-12.5,67.2-39.6c18.5-13.1,36.5-25.3,39.6-26.7c6.6-2.9,7-5.5,3.3-18c-1.5-4.7-10.3-34.7-19.6-66.5
		c-9.2-31.8-17.6-58.6-18.4-59.6c-0.9-1.2-11.6,8.8-25,23.5c-42.9,46.5-90.5,76.5-149.9,94.7c-13.9,4.3-25.7,8.2-26.1,8.6
		c-0.9,0.8,8.1,10.2,36,37.6c6.6,6.7,20.6,20.6,30.8,31l19.1,19h15.2C4614,9059.8,4623,9058.4,4631.5,9055.6z M3914.6,9041.5
		c5.7-5.7,20.4-16.5,32.3-23.9c78.6-48.4,112.5-75.1,153.1-119.8c30.1-33.3,52.9-66.9,70.5-104.3c7.7-16.3,18.2-43.7,17.1-44.7
		c-0.4-0.6-3.9,4.7-7.7,11.4c-17.6,30.8-47.5,69-81.1,103.7c-33.4,34.5-66.3,56.5-213.6,142.6c-18.7,11-35.6,21.2-37.4,22.7
		c-3.3,2.5-1.3,3.5,21.1,11c13.6,4.5,26.8,8.8,29.4,9.8c2.6,1,5,1.8,5.3,1.8C3903.8,9051.9,3908.7,9047.2,3914.6,9041.5z
		 M4871.7,8993.1c9.9-3.1,20.2-5.9,23.1-5.9c6.6,0,5.5,4.5,26.6-112.2c0.9-4.5,0.2-5.9-3.9-7.8c-3.9-1.8-9-1.4-27.3,2
		c-50.1,9.4-110.7,2.9-152.5-16.7c-8.6-3.9-16-6.7-16.5-6.3c-0.4,0.6,4.8,20,11.7,43.1c6.8,23.1,15.6,53.1,19.5,66.7l7,24.5
		l14.5,2.4c7.9,1.2,20.4,4.1,27.5,6.5C4836.7,9000.5,4847.5,9001.1,4871.7,8993.1z M4567.8,8941.1c44.6-20,82-48.4,116.2-87.8
		l16.7-19.4l-13.9-46.3c-7.7-25.5-15.8-52.4-17.8-59.6c-2.2-7.5-4.6-13.3-5.3-13.3c-0.9,0-7.7,8.6-15,19.2
		c-51.6,73.3-133.1,132.4-212.2,153.5c-9.4,2.5-17.1,5.3-17.1,6.1s16.5,17.1,36.9,36.3l36.9,35.1l27.2-7.3
		C4535.1,8953.5,4556.6,8946.2,4567.8,8941.1z M4460.6,8865.6c36-13.3,80.9-40,111.8-66.3c27.9-23.9,57.3-57.3,74.7-85.1
		c4.2-6.9,8.8-13.3,10.5-14.7c2.4-2.2,1.7-6.1-5.7-33.3c-4.8-17.1-10.6-39.4-13.2-49.6s-5.1-20.2-5.7-22c-0.7-2.7-2.9-1-9.7,7.8
		c-28.6,36.9-72.9,66.7-140.6,95.1c-14.1,5.9-49.2,19.2-78,29.8c-58.5,21.2-73.4,28.6-88.1,43.7l-9.9,10.2l18.2,19.8
		c10.1,11,32.1,33.1,48.8,49.6l30.7,30l19.8-4.5C4435.1,8873.9,4451.6,8869.2,4460.6,8865.6z M4897.8,8860.5
		c30.1-4.7,26.1,2.2,36.2-61.8c6.8-43.9,8.1-55.7,6.2-56.9c-5.1-3.5-19.3-4.1-43.3-2c-65.9,5.7-131.8,0.8-192.7-14.7
		c-10.5-2.5-19.8-4.7-20.6-4.7c-0.9,0,0.4,6.5,2.8,14.3c2.4,7.6,9.9,32.5,16.5,54.9c8.4,28.6,13,41.2,15.2,42
		c1.7,0.6,10.8,4.5,20.4,8.8c20,9,44,16.1,67.2,20C4828.6,8864.3,4874.3,8864.5,4897.8,8860.5z M4307.5,8766.4
		c13.6-14.9,36.7-26.1,120.9-57.6c69.2-25.9,107.6-44.3,137.7-65.9c17.3-12.2,43.9-39.2,54.3-54.9l8.1-12l-9.5-41.6l-9.4-41.6
		l-4.8,1.2c-6.6,1.8-15.2,8-44.2,32c-80.2,66.5-175.3,119-279.9,154.3c-33.2,11.4-51.2,19.4-50.1,22.4c0.7,2.2,68.1,70.6,69.6,70.6
		C4300.8,8773.5,4304.1,8770.3,4307.5,8766.4z M4881.8,8725.4c13.6-1.8,33.4-2.9,44-2.7c10.5,0.2,19.3-0.4,19.6-1.4
		c0.2-1,2.9-21.2,6.1-44.9c3.1-23.7,6.1-45.5,6.6-48.4c0.9-4.9,0.6-5.3-7.5-6.7c-5.1-0.8-20.9,0.4-40.9,2.9c-52.5,6.7-71,8-105.3,8
		c-58.9,0-105-10-144.8-31.6c-9.4-4.9-11-5.3-10.1-2.4c0.6,2,4.4,16.3,8.3,32c4,15.7,10.1,38,13.4,49.8l6.1,21.4l11.9,3.7
		c29.2,8.8,87.9,19.4,122.1,21.8C4834.7,8728.8,4859.1,8728.2,4881.8,8725.4z M4272.5,8669.6c34.1-9.8,92.3-34.5,132.1-55.9
		c54.3-29,101.7-62,170.7-118.2c5.5-4.5,14.9-10.2,20.7-12.5c5.7-2.2,10.5-4.5,10.5-4.9c0-0.6-2.9-16.3-6.4-35.1
		c-5.9-31.4-17.1-100.8-20.6-129.2l-1.7-11.8l-7.7,15.7c-10.3,20.8-35.1,57.5-59.8,88.6c-42.2,52.7-190,205.1-257.1,264.9
		c-4.2,3.7-5.7,6.1-3.7,5.3C4251.6,8675.8,4261.8,8672.7,4272.5,8669.6z M4861.6,8618.4c55.6-7.1,79.8-9.6,89.2-9.6h9.4l1.1-7.3
		c3.7-24.7,16.2-133.3,15.6-136.9l-0.6-4.5l-14.7,4.7c-33,10.4-67.2,20.2-84.4,24.1c-61.7,13.5-135.6,15.3-207.4,4.9
		c-11-1.6-25.9-3.3-32.9-4.1c-12.7-1.2-12.7-1.2-11.7,3.5c0.6,2.5,5,22.2,9.7,43.5l8.8,38.8l12.1,7.5c35.6,22.2,83.7,37.3,126.8,40
		C4799.4,8624.3,4829.5,8622.3,4861.6,8618.4z M4791,8489.2c49-3.7,97.1-13.1,139.9-27.6c12.5-4.3,28.8-9.4,36-11.4l13.2-3.3
		l1.3-11.8c0.7-6.3,5.5-49,10.6-94.7c5.1-45.7,9-83.3,8.4-83.9c-0.6-0.6-13.9,6.3-29.9,15.3c-47.9,26.9-71.9,39.6-92.3,49.2
		c-52.1,24.3-104.1,41.2-147.7,47.8c-38,5.9-94.2,3.9-125-4.3c-4.6-1.4-5.1-5.3,7.7,66.3l8.4,46.5l8.6,1.2c4.6,0.6,16,2.4,25,3.9
		C4704.5,8490.5,4744,8492.5,4791,8489.2z M4695.7,8361.7c74.3-6.5,151.4-35.1,253.1-93.9c20.2-11.8,40.6-22.7,45.5-24.7
		c5.9-2.4,9-4.9,9.5-7.6c0.4-2.4,2.9-23.1,5.5-46.3c2.8-23.1,7.3-61,10.3-83.9s5.3-43.1,5.3-44.7c0-1.8-6.8,6.5-14.9,18.2
		c-94,133.5-227.4,230.2-372.9,270.2c-12.8,3.5-23.9,6.9-24.4,7.5c-0.6,0.4,5.9,2,14.3,3.1c13.8,2,20.6,2.5,39.3,3.7
		C4669.5,8363.5,4682.7,8362.7,4695.7,8361.7z M4635,8337c82.2-21.8,161.3-62.2,231.3-118.4c34.7-27.8,53.6-46.1,88.3-84.9
		c34.7-38.6,79.8-103.7,75.4-108.4c-0.4-0.6-9,7.3-18.9,17.3c-120.9,120-247,193.1-386.7,223.9c-13.6,3.1-23.3,6.5-27.3,9.4
		c-3.3,2.4-6.2,4.5-6.4,4.5c-0.6,0.2,6.4,55.3,7.7,61.4C4599.4,8346.8,4596.2,8347.2,4635,8337z M4662.7,8245.8
		c127.6-37.3,254.9-118.8,352.4-225.7l18.5-20.2l11.6-75.5c12.5-82.6,31.4-185.3,45.7-250.8c5.1-23.1,9.2-42.4,8.8-42.5
		c-0.2-0.2-6.1,10.6-13,24.3c-91.6,180-142.4,267.3-212.9,365.1c-53.2,73.9-80.6,107.6-110.3,135.9c-22.4,21.2-42.6,36.1-95.4,69.8
		c-22.2,14.3-41.1,26.9-42.2,28C4623.4,8256.8,4630.2,8255.2,4662.7,8245.8z M5104.3,7881.3c13-23.1,34-64.1,46.6-91l22.8-48.6
		l-4.8-8.2c-14.5-25.1-35.1-73.7-44.8-106.1c-2.2-7.5-4.6-14.5-5.1-15.7c-3.1-5.7-37.4,162.4-53.8,262.9
		c-7.9,49-14.5,92.6-14.5,95.9C5050.7,7973.5,5077.8,7928.4,5104.3,7881.3z"/>
</g>
<path class="st6" d="M722.4,17.7c3.8,10.1,6.4,20.6,7.1,31.1c3.8,52.6-4.7,102.4-22.6,151c-28.6,77.9-64.3,149.4-133.8,200.9
	c-37.1,27.5-71.2,58.9-110,84.5c-13.4,8.9-27.2,17.3-43.8,20.4c-7.8,1.5-19,5.7-23.1-2c-4-7.7,7.6-11.3,13.2-15.8
	c39.3-31.9,73.9-67.7,99.2-111.5c4.1-7.1,3.1-11.7-2.4-18.1c-22.1-25.6-46.1-49.9-64.3-78.5c-5.9-9.2-14.6-16.6-24.6-21.9
	c-12.1-6.4-24.5-12.2-36.3-19.1c-25.7-15.1-52.9-17.4-80.6-14.3c-16.3,1.8-26.5,11.1-31.2,26.2c-7.1,22.5-2.7,42.7,15.1,61.2
	c6.6,6.9,15.3,12.1,20.6,21.1c-3.9,1.7-6.2,0.8-8.7,0c-48.9-14.8-70.8-59.4-65.3-109.3c3.5-31.9,25.5-56.9,44.6-81.7
	c11.4-14.8,31.6-16.7,47.8-24.6c49.5-24.1,101.9-3.6,153.2,0.1c1.9,0.1,3.9,1.7,5.8,2.6c19.9,9.1,40.1,16.2,61.8,18.6
	c19.3,2.2,37.8,8.9,55.8,16.8c24.5,10.9,23.8,10.4,38.7-9.5c19.2-25.5,37-51.6,46.8-82.5c5.3-16.7,10.9-33.3,20.5-48.1
	c2.2-3.3,4.4-7.2,9.4-6.1C719.7,10.2,721.2,14.3,722.4,17.7z"/>
</svg>
