<?xml version="1.0" encoding="utf-8"?>
<!-- Generator: Adobe Illustrator 25.3.1, SVG Export Plug-In . SVG Version: 6.00 Build 0)  -->
<svg version="1.1" xmlns="http://www.w3.org/2000/svg" xmlns:xlink="http://www.w3.org/1999/xlink" x="0px" y="0px"
	 viewBox="0 0 850.7 662" style="enable-background:new 0 0 850.7 662;" xml:space="preserve">
<style type="text/css">
	.st0{fill:none;}
	.st1{fill:#0C1115;}
	.st2{fill:#1E1F2C;}
	.st3{fill:#121B22;}
	.st4{fill:#0A0C0F;}
	.st5{opacity:0.6;}
	.st6{fill:#463E46;}
	.st7{fill:#706F70;}
	.st8{fill:#13141A;}
	.st9{fill:#0F0F13;}
	.st10{fill:#F36523;stroke:#F36523;stroke-miterlimit:10;}
	.st11{fill:#F36523;}
	.st12{fill:#744C29;}
	.st13{fill:#089F4A;}
	.st14{fill:#B28B67;}
	.st15{fill:#191847;}
	.st16{fill:#1F28CF;}
	.st17{fill:#2B44FF;}
	.st18{fill:#E4E4E4;}
	.st19{fill:#DB2721;}
	.st20{fill:#DDE3E9;}
	.st21{fill:#FF4133;}
	.st22{fill:#C5CFD6;}
	.st23{fill:#E87613;}
	.st24{fill:#FF9B21;}
</style>
<g id="Calque_2">
</g>
<g id="Calque_1">
	<g id="Calque_1_1_">
		<g id="Illustration_landing" transform="translate(-982 -250.5)">
			<path id="Rectangle_155" class="st0" d="M1032,250.5h732c27.6,0,50,22.4,50,50v562c0,27.6-22.4,50-50,50h-732
				c-27.6,0-50-22.4-50-50v-562C982,272.9,1004.4,250.5,1032,250.5z"/>
			<g id="Scene_Wireframe" transform="translate(1028 242.5)">
				<path id="Twisted_Leaf" class="st1" d="M690.2,195.3c-0.8-0.3-1.6-0.6-2.4-0.6c-2.5-0.5-5-0.7-7.5-0.7c-7.7,0-15.5,0.7-23.1,2.1
					c-4.8,0.8-10.6,3.6-15.4,2.1c-8.3-2.6-16.7-2.5-24.6,1.3c-7.2,3.4-12.7,10-15.9,17.1c-1.2,2.5-2.2,5-3,7.7
					c-0.2,0.5-0.5,1.1-0.7,1.6c-0.6,1.6-1.1,3.2-1.6,4.8c-0.2,0.7-0.7,2.2-0.1,2.5c-1,1.8-1.9,3.7-2.6,5.7
					c-2.1,5.7-4.5,11.9-5.2,17.8c-0.3,2.2-0.3,4.5,0,6.7c0.1,1.1,0.1,3.3,0.8,4.1c1.6,1.8,2.4-0.7,2.2-1.9c-1.4-9,1.3-17.5,4.4-25.9
					c2.2-5.5,5.2-10.5,9-15c2.9-3.6,6.4-6.7,10.3-9c5.1-2.9,10.3-5.5,15.7-7.8c3.5-1.6,7-3.1,10.6-4.5c0.9-0.5,1.9-0.9,2.9-1.1
					c1.9,0,4.5,1.4,6.4,1.9c6,1.7,12,3.9,18.2,4.7c3.8,0.5,7.7,0,11.4-1.4c0.6-0.3,1.2-0.6,1.8-1c2.8-1,5.3-2.4,7.6-4.3
					c1.3-1.2,2.5-2.5,3.6-3.8c0.3-0.4,0.5-0.8,0.5-1.3c0.2-0.1,0.4-0.3,0.4-0.5C694.2,195.3,691.8,195.3,690.2,195.3"/>
				<path id="Fill_16" class="st2" d="M65.3,302.5c-1.5,1.2-3,2.5-4.4,3.8c-1.1,1-3,2.2-3.4,3.7c-0.4,1.6,0.9,3,1.9,4
					c5.4,5,11.5,8.4,19,8.9c11.6,0.9,21.6-2.1,31.6-7.9c7-4.1,11.7-10.1,12.7-18.3c8.5,3.5,16.4,8.3,23.4,14.2
					c3.4,2.9,6.4,6.2,9,9.7c1.7,2.3,3.4,4.6,5,7c0.7,1,1.4,2.9,2.5,3.5c1,0.5,2.2,0.1,2.6-0.9c0.1-0.3,0.2-0.6,0.2-0.9
					c-0.1-1.2-1.4-2.6-2-3.6c-1-1.6-2.1-3.3-3.1-4.9c-1.8-2.6-3.6-5.2-5.6-7.6c-4.6-5.4-10-10.1-16-13.8
					c-11.3-7.4-23.7-12-37.4-12.4c-8.5-0.2-15.6,2.6-22.8,7C73.9,296.5,69.5,299.4,65.3,302.5"/>
				<path id="Leaf" class="st3" d="M174.9,266.9c-8.8-9.1-17.6-18-27.5-26c-5.8-4.7-11.9-9-17.9-13.5c0.7,0.6,1.4,1.2,2,1.9
					c-1.9-1.3-4.3-2-6.3-3.2c-2.2-1.3-4.3-2.8-6.4-4.3c-4-2.9-8-6-12.2-8.7c-4.6-3.1-9.4-6-14.1-9c-4-2.7-8.1-5.2-12.3-7.4
					c-2.3-1.1-4.7-2.5-7-3.7c-0.8-0.4-8.7-5.4-8.7-5.4c0.4-0.3,4.4,1.5,5.1,1.8c1.8,0.7,3.5,1.6,5.3,2.5c-1-1.9-1.7-3.9-2.1-5.9
					c-0.1-0.6-1.1-5.3-0.6-5.7c0.3-0.2,2.8,8.2,2.9,9c0,0.7,0.1,1.5,0.3,2.2c0.3,1,0.3,0.7,1.1,1.3c1.5,0.9,3.1,1.8,4.8,2.5
					c1.5,1.1,3.2,2,4.8,2.8c4.6,2.2,9.2,5.7,13.6,8.5c-1.1-2.1-2-4.4-2.6-6.8c-0.2-0.6-1.8-5.6-1.4-5.9c0.4-0.3,3.5,7.3,3.7,8.1
					c0.3,1.3,0.4,2.8,0.8,4.2c0.5,1.4,1.9,2,3.3,2.8c4.9,3.1,9.6,6.4,14.2,9.8c5-9-0.8-19.8-5.7-27.3c-3.7-5.4-8.2-10.1-13.3-14.1
					c-6.7-5.4-14.3-9.7-22-13.7c-8.9-4.6-18.6-7.5-28.5-8.8c-5.3-0.6-10.6-0.8-15.9-0.5c-2.6,0.1-5.1,0.5-7.5,1.3
					c-1.1,0.4-2.2,0.9-3.2,1.4c-0.8,0.4-2.7,0.8-3.2,1.4c-3.8,4.9-5.7,9.8-5.4,16c0.4,5.9,2,11.6,4.6,16.9
					c2.7,5.8,6.5,11.1,11.1,15.5c3.7,3.3,7.5,6.4,11.6,9.2c14.2,10.3,32.1,19.3,50.4,17c5.9-0.8,11.6-2.7,16.9-5.6
					c1.2-0.7,2.5-1.3,3.7-2.1c0.8-0.5,2.9-2.9,3.7-3c1.1-0.1,3.4,2.1,4.5,2.8c7.8,5.1,15.3,10.5,22.8,16.2
					c7.9,6,15.4,12.4,22.7,19.1c3.1,2.8,6.2,5.7,9.2,8.7c0.7,0.7,2.4,3.2,3.7,3.3c0.6,0.1,1.2-0.4,1.2-1c0-0.1,0-0.2,0-0.3
					C178.6,269.8,175.8,267.8,174.9,266.9"/>
				<path id="Fill_10" class="st4" d="M681,231.7c-3.5-0.6-7.1-0.8-10.7-0.6c-18.8,0.4-36.6,8.8-48.8,23.2
					c-10.1,12-12.9,26.9-14.9,42c-0.2,1.5-0.3,3-0.4,4.5c0,0.3-0.1,0.6-0.1,0.9c-0.8,0.5-1.1,1.6-0.7,2.4c-1.7,3.8-3.2,7.7-4.5,11.7
					c-3.7,11.8-7.5,23.9-5.2,36.3c0.6-6.9,1.6-13.8,3-20.6c0.1-0.4,0.2-0.8,0.3-1.2v-0.1c0.5-2.1,1.1-4.1,1.9-6c0,0,0,0,0-0.1
					c0.1-0.3,0.2-0.5,0.3-0.8c0.2-0.5,0.4-1.1,0.7-1.6c0.1-0.2,0.2-0.4,0.2-0.5c1.1-2.7,1.6-5.8,2.6-8.6c0.2-0.6,0.5-1.3,0.7-1.9
					v-0.1c0.7-1.7,1.5-3.4,2.3-5.1c0.5-0.6,0.8-1.2,1.1-1.9c0.3-0.5,0.6-1.1,0.9-1.7c0.5-0.9,1-1.9,1.5-2.8l0,0
					c0.5-0.9,1-1.8,1.5-2.7l0.3-0.6l0.5-0.9c1.6-2.9,3.4-5.8,5.2-8.6c0.6-1,2.2-2.5,2.5-3.6v-0.1c3.8-5.5,8.5-10.4,13.8-14.5
					c-0.7,0.7-2,3.1-2.4,3.6c-1.1,1.4-2.3,2.8-3.6,4.2c-2.2,2.4-4.3,5-6.2,7.6c-3.4,4.9-6.5,10-9.3,15.2l-0.1,0.1
					c-1.4,1.8-2.3,4.4-3.3,6.4c4-1.9,8.5-3.1,12.7-4.8c4.1-1.6,8.2-3.5,12.1-5.7c5.4-2.9,10.5-6.2,15.4-9.8
					c5.5-3.6,10.4-8.1,14.5-13.3c4.9-5.9,9.4-11.9,12.2-19.1c1.4-3.5,2.4-7.2,3.1-11c0-0.2,0.1-0.3,0.1-0.5c0.7-1.3,1.2-2.6,1.7-4
					C682.6,234.8,684.4,232.4,681,231.7"/>
				<path id="Leave_the_Leaf_" class="st1" d="M145,263.6c0.1-0.2,0.1-0.5,0-0.9c-0.3-0.9-2.7-1.8-4-2.3c-0.2-0.1-0.4-0.2-0.6-0.2
					c-1.1-0.5-2.2-0.9-3.4-1.2c-3.5-1-7.1-1.7-10.7-2.3c-1.3-0.2-2.7-0.5-4.1-0.7c-0.3,0-0.5-0.1-0.6-0.1c-0.6-0.1-0.6-0.1-0.8-0.8
					V255c-0.1-0.4-0.2-0.8-0.2-1.2c0-0.3-0.1-0.7-0.1-1c-0.6-2.7-1.9-5.2-3.7-7.3c-1.7-2-3.8-3.6-6.1-4.7c-2.4-1.1-4.9-1.9-7.5-2.3
					c-4.4-0.9-8.9-1.2-13.3-1.1c-4.5,0.1-9,0.8-13.3,2c-4.6,1.3-9.5,3.9-14.9,7.8c-2.6,1.9-4.9,4.1-6.8,6.7
					c-0.3,0.4-0.5,0.7-0.8,1.1c-0.5,0.9-1,1.8-1.5,2.7c-0.1,0.3-0.2,0.6-0.3,0.8c-0.1,0.4-0.3,0.8-0.5,1.2l-0.1,0.2
					c-0.1,0.1-0.1,0.2-0.2,0.3c-0.2,0.3-0.4,0.4-1,0.6c-0.2,0-0.3,0.1-0.4,0.3c-0.1,0.2-0.1,0.4,0.1,0.5c0.3,0.3,0.8,0.5,1.2,0.4
					c-0.3,1.8,0,3.6,0.9,5.2c0.8,1.5,2,2.9,3.4,3.9c2.9,2.1,6.1,3.7,9.4,4.9c3.5,1.3,7.1,2.2,10.8,2.7c3.6,0.5,7.3,0.6,10.9,0.3
					c7.4-0.6,14.7-2.2,21.7-4.9c3.7-1.3,7-3.5,9.6-6.4c0.4-0.5,0.8-1,1.2-1.6c0.7-1.2,1.3-2.5,1.6-3.9c0-0.1,0.1-0.2,0.1-0.4
					c0.2-0.6,0.5-1.6,0.2-2c-0.2-0.4-0.6-0.4-1-0.4c-0.1,0-0.3,0-0.4,0c-0.6,0-1.1-0.1-1.7-0.1c-1.5-0.1-3.1-0.2-4.6-0.2
					c-0.2,0-0.5-0.1-0.9-0.1c-0.7-0.2-1.5-0.2-2.2,0c0,0-0.1,0.1-0.1,0.2c-0.1,0.2-0.2,0.3-0.4,0.5c-0.1,0.1-0.3,0-0.5-0.1
					c-0.1,0-0.1-0.1-0.1-0.1c-0.6,0.4-1.2,1-1.6,1.7c-0.2,0.3-0.5,0.6-0.7,0.8c-0.6,0.6-1.2,1.3-2,1.9c-0.7,0.6-1.5,1.2-2.3,1.8
					c-0.2,0.1-0.5,0.3-0.8,0.4c-0.5,0.2-1,0.5-1.4,0.9c1.2-1.6,2.5-3.1,4-4.5c0.8-0.7,1.7-1.4,2.6-2.1c0.1-0.1,0.3-0.2,0.5-0.3
					c0.5-0.2,1-0.6,1.5-1V259c-2.4,0-4.8,0.1-7.2,0.4c-1.2,0.1-2.6,0.3-3.9,0.3c-0.1,0-0.3,0-0.6,0c-0.8-0.1-1.6-0.1-2.4,0
					c0.2-0.4,1.7-0.7,2.6-0.8c0.3,0,0.5-0.1,0.6-0.1c1.1-0.3,2.1-0.5,3.2-0.6c1.8-0.2,3.7-0.4,5.6-0.4c2.6-0.1,5.3,0,7.7,0.2
					c0.6,0,1.2,0,1.7,0.1c1.6,0,3.1,0.1,4.7,0.4c0-0.1,0-0.1,0-0.2c0.1-0.1,0.3-0.1,0.6,0c0.1,0,0.2,0,0.3,0.1c1,0.2,2,0.3,2.9,0.5
					c2,0.3,3.7,0.7,5.3,1h0.1c1.8,0.4,3.7,0.7,5.5,1.2c1.7,0.4,3.4,1,5,1.8c0.6,0.3,1.3,0.6,1.9,1
					C143.2,263.6,144.6,264.2,145,263.6z M115.6,249c1.1,1.6,2,3.3,2.7,5.2c-0.5-1.1-1-2.2-1.5-3.1c-0.1-0.2-0.4-0.6-0.6-1.1
					C115.9,249.5,115.6,249,115.6,249z M96.1,252.6c0.2-0.3,2.8,1,3.2,1.2c1.4,0.8,2.6,1.8,3.7,2.9l0,0l0,0c-0.6-0.4-1.3-0.8-2-1.1
					c-2-1-4.7-2.4-4.9-2.9C96.1,252.7,96.1,252.6,96.1,252.6z"/>
				<g id="Background_Shape_2" transform="translate(39 358)" class="st5">
					<path id="Background_Shape" class="st2" d="M661.7,146.2c9.7,65.3-224.4,107.9-425.8,78.2S-57.9,78.5,38.2,16.6
						S652.1,80.8,661.7,146.2z"/>
				</g>
				<g transform="translate(0.000000,1173.000000) scale(0.100000,-0.100000)">
					<path d="M1809.2,7958.8c0.6-0.6,3.9-2.3,7.3-3.6c20.7-8,59.6-25.9,70.2-32.4c3.7-2.2,9.1-5,12.1-6.2
						c8.2-3.3,23.3-11.5,50.3-27.9c56.6-34.2,104.2-69.8,152.5-114.1c8.2-7.5,10-9.6,10.4-11.9c0.3-1.6,0.7-11.1,1-21.3
						c1.1-40.9,4-83.4,12.2-182.4c11.5-137.5,12.7-161.8,14-271.7c0.4-36,1-69.5,1.2-74.4l0.5-8.9l-4.3-0.7
						c-2.4-0.4-6.8-1.6-9.8-2.7s-5.7-2.1-6-2.1c-0.8,0-12.9,19.8-21.5,35.2c-19.5,34.9-20.6,39.7-20.6,97.6
						c0,37.9,0.7,50.5,3.4,60.2c1.9,6.7,11.5,30.6,17.4,42.9c2.4,5.2,4.3,9.4,4,9.4c-0.7-0.1-11.2-15.1-16.2-22.9
						c-5.2-8.4-10.2-17.7-12.1-23c-5.3-14.3-9.6-52.6-9.6-86.3c-0.1-29.4,1.8-40.8,9.3-59.6c5.2-13,14.8-32.5,25.1-51l6.9-12.4
						l-5.4-6.7c-2.9-3.6-6.2-8.3-7.4-10.3c-1.1-2.1-2.3-3.8-2.5-3.8c-0.3,0-5.3,3-11.2,6.7c-27.9,17.6-46.1,33-51.1,43.1
						c-5.7,11.7-13.3,47-17.1,79.7c-1.9,16.4-1.9,23.7,0,32.5c2.1,9.7,7.7,27.8,14.6,46.8c3.2,8.6,5.5,15.4,5.1,14.9
						c-1.2-1.5-16.9-32-22.9-44.5c-3.3-6.9-7.2-15.7-8.6-19.6c-2.5-6.9-2.6-7.3-2.5-18c0.1-18.4,2.6-39.7,7.3-62.3
						c4.4-21.5,10.4-38.4,16.2-46.6c5-7,25.9-24.6,50.8-42.7c9.2-6.6,11.8-9,11.5-10c-1.3-4-3.3-13.4-4-19.6
						c-0.7-5.2-1.1-6.9-1.8-6.5c-3.2,1.5-24.3,8.9-32.6,11.4c-16.6,5.1-21.5,6-28.2,4.9c-17.3-2.9-49.2-21.5-72.5-42.5
						c-13.2-11.8-14.9-14.4-19.8-29.3c-4.3-12.7-16.9-58.6-16.9-61.3c0-0.5,3.7,8,8.2,18.8c9.5,23,18,40.5,22.3,45.9
						c8.7,11,53.1,41,70.9,48.2c6.5,2.5,7.5,2.7,14,2.3c7.7-0.5,17.5-3.3,29.6-8.1c7.5-2.9,26.2-11,26.2-11.3
						c0.3-1.5,2.2-14.4,2.2-15c0-0.6-10.7-0.9-30.7-0.9c-29.8,0-30.8-0.1-35.2-2c-9.3-4-20.1-13-33.1-27.9
						c-13-14.9-28-36.4-32.3-46.4c-2.6-6.2-3.8-20-4.3-49.9l-0.4-25.1l2.1,14.4c5,33.1,8.5,47.5,13.4,55.3
						c12,19.1,37.1,48.6,49.7,58.6c6.4,5,11.4,6.6,24,7.2c16.1,0.8,53.2-2.6,53.9-5c1-3.5,9.6-17.1,14-22.2l5.1-6l1.2-7.6
						c2.2-14.1,7.9-27.8,14.8-35.3l3.2-3.5l-1-4.5c-1.5-7-0.9-9.3,4.4-15.5c2.6-3.1,4.9-5.5,5.3-5.5s-0.4,2.3-1.8,5
						c-2.8,5.5-3.1,8.9-1.2,12.7c1.2,2.5,1.5,2.5,4.3,1.9c3.7-0.9,9.5-0.9,13.3,0c3,0.7,3,0.7,4.6-3c1.4-3.4,1.5-4,0.4-6.9
						c-0.6-1.8-1.9-4.7-2.9-6.4c-2.6-4.9-0.9-4,4.3,2.1c5.4,6.3,6.2,9,4.6,15.4l-1.1,4.2l3.6,4.4c7.4,9.2,12.1,20.6,14.4,35
						c1.2,7.6,1.2,7.6,5.7,12.7c5.1,5.8,10.5,14,13.1,19.9c1,2.2,2.5,4.2,3.3,4.5c0.8,0.3,7.1,1.1,14,1.9
						c15.9,1.9,44.3,2.2,50.9,0.4c9.1-2.4,18.8-10.9,36.6-32.2c14.7-17.6,25.5-32.9,27.9-39.5c3-8.2,6.8-27.3,10.6-53.7l1.4-9.7
						l0.1,12c0.1,16.2-1.2,46.2-2.5,54.6c-0.8,5.4-1.7,8.2-4.3,13.2c-8.7,16.7-30.3,44.4-44.5,57.2c-10.3,9.3-17.6,13.5-25.7,14.6
						c-3.6,0.5-17.4,0.9-32.6,0.7c-17.1-0.2-26.2,0-26.2,0.6c0,1.1,2.2,14.8,2.4,15c0.4,0.4,18.3,8.2,25.9,11.2
						c19.5,7.6,31,9.8,39.2,7.3c13.7-4.3,46.8-25.1,67.5-42.4c10.1-8.4,15-16.9,29.5-51.3c5-11.9,8.9-20.8,8.7-19.8
						c-1.4,6.2-7,27.2-11,41.3c-5.6,19.8-9.3,30.2-12,34.4c-5.7,9-31.5,30-51.7,42.2c-19.7,11.8-34.8,16.4-45.9,14.1
						c-9.6-2.1-41.2-12.3-48.9-15.9c-1-0.4-1.3,0.8-2.1,6.7c-0.5,4-1.7,10.3-2.6,14.1l-1.7,6.9l11.1,8c15.1,11,37,28.5,44.3,35.4
						c6.6,6.2,10.7,12.7,14.5,22.8c9,23.7,16.4,68.8,15.7,96c-0.2,10.6-0.2,10.6-3.6,19c-4.3,10.6-10.2,22.9-21.1,43.9
						c-8.8,17.1-10.6,20-8.7,14.9c9.9-27.3,13.7-38.5,16.9-49.6l3.8-13.3l-0.1-11c-0.1-26.5-11.3-84.7-19-99.2
						c-3.2-6.2-12.7-15.3-26.9-25.8c-11.2-8.4-34.4-23.3-34.8-22.5c-1.8,3.3-6.2,9.5-10.1,14.4l-5.1,6.2l7.1,12.7
						c14.8,26.4,26.7,52.3,30.1,64.9c3.1,11.6,4.2,23.7,4.2,45.7c-0.1,36.5-4.5,74.1-10.5,88.4c-4.2,10-15.3,28-24.1,39.2
						c-2.1,2.6-3.3,3.9-2.8,2.6c4.3-8.9,14.5-32.3,17.1-39.4c6.5-17.6,7.3-25.5,7.3-71.8c0-52.1-1.4-60.5-14.1-85.2
						c-5.8-11.3-23.2-40.9-27.3-46.5c-0.3-0.4-3.2,0.3-6.3,1.4c-3.2,1.2-7.6,2.5-9.9,2.8l-4.1,0.6l-0.5,25.6
						c-0.2,14.2-0.6,44.5-0.8,67.4c-0.9,86.7-2.4,115-12.1,232.1c-8.2,97.5-9.8,120.5-12.1,160.5c-1.4,24.8-2.9,64.4-2.6,67.4
						c0.3,2.2,0.8,1.8,11.3-8.7c6.1-6.1,15.6-15.8,21.2-21.6c5.5-5.9,11.7-11.8,13.6-13c1.9-1.3,17.2-11.3,34-22.3
						c49.1-32.3,54.7-36.7,71.3-56.6c12.3-14.8,20.1-26.5,32.8-49.5c9.9-17.8,13.2-22.2,25.7-33.5c4-3.6,8.7-8,10.5-9.8
						c4-4,46.1-52.1,64.5-73.9c27.7-32.5,43.4-56.1,53.1-79.7c2.4-5.9,4.9-11.3,5.4-11.8c0.4-0.5,2.2-1.4,3.8-1.9
						c1.6-0.6,6-3.6,9.6-6.7c3.7-3.2,13.1-10.4,20.9-16c35.3-25.4,42.5-33,69.8-73.2c34.9-51.3,53.4-86.2,97.3-182
						c12-26.2,12.3-27,15.6-40.9c6.4-26.9,15-58.6,21.8-80.4l3.1-9.9l0.2,6.2c0.2,5.7-0.2,7.7-6.7,31c-3.8,13.7-9.2,34.3-11.9,45.8
						l-5,20.9l2.8,10.3c4.6,17.2,12.3,38.4,17.9,48.9c1.6,3.2,1.9,3.3,2.4,1.8c0.3-1.1,0.6,1.6,0.6,6.4c0.1,4.7-0.2,8-0.6,7.7
						c-0.4-0.4-2.4,3.7-4.5,8.9c-8.5,21.5-22.9,51.1-39,80.4c-5.2,9.4-9.5,17.4-9.5,17.7c0,0.4,2.1-0.4,4.6-1.5
						c2.5-1.1,7.9-3.3,12-4.8c4.1-1.5,10.2-4.6,13.5-6.9c7-4.7,16.1-14.5,20.3-21.8l2.9-5l0.2,5.5l0.2,5.5l-4.3,5.3
						c-8.5,10.3-16.3,15.8-31.7,22.1c-5.2,2.1-11.2,4.9-13.2,6.2l-3.7,2.3l1,3.3c4.8,16.1,16.8,35.4,30.2,48.5
						c4.9,4.7,16.5,14.4,20.1,16.6c1.3,0.8,1.6,1.8,1.6,4.9c0,2.2-0.1,4-0.4,4c-1.1,0-14-9.8-20.1-15.4
						c-15.5-14.1-26.5-29.9-32.9-47.5c-1.2-3.2-2.3-5.7-2.5-5.7c-0.4,0-1.2,6.5-6.6,55.7c-2.1,18.4-3.7,34.5-3.7,35.8v2.5l6.1-0.4
						c3.3-0.3,10.4-0.6,15.6-0.8c13.4-0.6,28.4-4.2,39.9-9.7l4.6-2.2v3.4v3.4l-7.1,2.7c-13.9,5.1-22.5,6.7-42.8,7.8
						c-7.5,0.4-14.5,1.2-15.5,1.7c-1.8,0.9-1.9,1.1-3.9,21.5c-1.1,11.3-3.1,30.9-4.4,43.4l-2.4,23l3.7,0.6c2,0.3,9.5,1.8,16.5,3.5
						c17.3,4,17.6,4,26,4.8c6.9,0.6,25.6-0.3,28.5-1.4c1.1-0.4,1.3,0.1,1.3,2.5v3l-4.5,0.6c-8,1-28.7,0.5-36.3-0.8
						c-4-0.7-12.1-2.5-17.8-4c-5.8-1.4-12.3-2.6-14.3-2.6h-3.9l-3.3,31c-1.8,17-3.2,32.4-3.3,34.3c0,3.3,0.1,3.4,4.4,5.5
						c2.4,1.1,7.4,3.7,11,5.9c18.4,11,39.2,17.7,59,18.9l9,0.5v2.6v2.6l-10.1-0.5c-22-1.2-39.5-6.8-62.2-19.7
						c-6.5-3.7-11.9-6.3-12.2-5.9c-0.3,0.4-1.6,9.8-2.9,21c-1.3,11.1-2.6,21.2-2.7,22.4c-0.4,1.9,0.2,2.8,3.7,6.2
						c2.2,2.2,7.9,7.7,12.7,12.4c17.7,17.1,38.8,33.4,61.2,47l12.5,7.6v3.9c0,4.7,1,5-13.7-3.9c-26-15.6-50.4-34.5-70.4-54.5
						l-7.3-7.3l-3.5,24.9c-3.5,24.9-3.5,25-2.3,28.5c2.6,6.8,8.5,16.5,14,23.2c13.2,15.7,31.5,26.7,65.5,39.6l12.1,4.6l2.6-2.3
						l2.6-2.2l0.2,3.2c0.2,2.8-0.1,3.5-4.4,8.3c-8.7,9.5-11.8,20-11.8,40c0,13.4,1.2,24.5,4.3,38.2c2.9,12.7,6.8,27,9.6,34.5
						c2.1,5.6,2.5,7.7,2.5,13.2c-0.1,6-0.1,6.3-1.2,4.7c-4.4-6.8-11.7-28.5-15.4-45.7c-4.3-19.9-5-26.1-5-40.4
						c0-13.6,1.6-24.9,4.3-31.2c0.7-1.5,1-2.6,0.8-2.6c-1.2,0-33.8,29.6-35.3,31.9c-8.5,13.5-8.3,27.5,0.7,60.1
						c2.4,8.8,12.2,33.9,14.6,37.5c0.9,1.2,4.3,1.9,18.6,4l17.6,2.5l0.2,2.4c0.3,3,0.8,3-19.9,0.1c-8.9-1.2-17.3-2-18.6-1.7
						c-4.2,0.9-12.3,6.3-16,10.7c-8.4,9.9-10.4,23.7-5.4,36.3c1.5,3.6,7.9,11.9,16,20.6c1.9,2,8,6.2,15.2,10.4
						c6.6,3.8,12.1,6.9,12.2,6.9c0.1,0-1-3.1-2.6-6.8c-8.1-19.6-4.7-41.1,9-57.4c3.1-3.6,6.6-7.3,7.9-8.2l2.4-1.6v2.5
						c0,2.1-1.2,4-6.2,9.9c-6.5,7.8-9.3,13.3-11.1,21.6c-3.7,17,2.6,37.3,14.3,46.2l3.3,2.5l-15.1-0.2c-15-0.1-15.3-0.2-3.6-1.2
						l6.2-0.5l-15.8-9.4c-15.4-9.1-16.1-9.4-24.6-11.1c-25.1-5-48.5,0.9-69.9,17.6c-5.1,4-6.8,4.8-8.9,4.7c-2.6-0.3-2.5-0.4,5-6.3
						c19.3-15.3,38.1-22.7,58.1-22.9c5.2-0.1,9.4-0.2,9.4-0.3c0,0-2.6-1.8-5.7-3.9c-7.6-4.9-17.9-12.7-23.7-17.8l-4.8-4.2l-7.3,0.5
						c-4,0.3-10.1,1.3-13.6,2.3c-6.8,1.9-19.4,9-23.4,13l-2.5,2.5l2.4,16.7c1.3,9.1,2.6,17.5,2.8,18.6c0.4,1.8,0.1,1.9-3.5,1.9h-4
						l-2.9-5.5c-3.5-6.6-11.8-17.1-17.3-22.1c-9.1-8.3-19.3-14.1-29.6-16.8c-6.8-1.8-21.8-1.6-24.8,0.4c-4,2.6-33.9,30.2-33.3,30.8
						c0.3,0.4,3.9,2.3,7.9,4.3c4,2,9.2,4.8,11.4,6.2l4,2.5l-6.4,0.1c-5.9,0-7-0.4-14.6-4c-4.6-2.2-8.5-4-8.8-4s-2.4,1.8-4.6,4
						c-3.9,3.7-4.3,4-7.9,3.7l-3.9-0.3l6-5.6l6-5.7l-1.7-2.6c-0.9-1.5-3.6-6.4-5.9-11c-8.5-16.5-19.7-26.4-43.6-38.3
						c-9.5-4.7-8.2-4.7-30.1-1.5l-10.4,1.5l7.4,8.8c14.4,17,19.6,26.8,23.1,43.2c2.4,11.3,2.4,11.8-0.7,11.8h-2.5l-1.5-7.6
						c-0.9-4.3-3.2-11.9-5.3-17c-3.6-8.8-4.3-9.7-15.8-23.7l-12-14.4l-20.1,2.3c-11,1.3-24.5,2.8-30,3.3c-15,1.4-14.5,0.5-5.4,9.7
						c16.1,16.2,40.6,44.5,40.6,46.9c0,0.3-1.5,0.5-3.4,0.5c-3.4,0-3.5-0.1-12.7-11.2c-15.1-18.3-39.5-43.3-42.2-43.3
						c-2.9-0.1-54.5,4.6-54.8,4.9c-0.1,0.2,1.2,2.4,3,4.9c7.6,10.9,15.5,24.2,21.8,37l3.8,7.6h-3.5h-3.5l-2.9-6
						c-5.4-11.1-12.2-22.2-25.4-41.7c-1.1-1.6-1.9-1.6-30.1,1.1c-15.9,1.5-34.3,3.3-40.8,4c-6.5,0.7-12.3,1.3-12.9,1.3
						c-0.6,0-1.8,0.5-2.5,1.2c-1.3,1.1-1.4,1.4-0.3,2.9c2,2.6,9.8,18.6,13.8,28.2l3.7,9h-2.6c-2.5,0-2.6-0.3-5.5-7
						c-3.5-8.4-11.4-24.4-14.6-29.5c-1.8-3-2.6-3.5-4.3-3.3c-1.2,0.2-8.6,1.1-16.5,2.2c-27.7,3.5-46.6,6.9-47.5,8.4
						c-2.5,4-0.2,13,6,23.7l3.2,5.6h-2.4c-2.1,0-2.8-0.6-5.5-5.2c-4.4-7.6-7.4-15.7-7.4-20c0-4.6,0.8-4.5-15-1.6
						c-20.1,3.8-25.7,4.9-27.4,5.4l-1.7,0.4l1.3,4.2c0.7,2.4,2.7,6.9,4.4,10.4l3.1,6.1l-3,0.3c-1.7,0.2-3.3,0-3.7-0.4
						c-0.3-0.4-2.4-4.7-4.6-9.5c-2.7-6-4.5-8.9-5.4-9.1c-0.8-0.2-12.2,1.9-25.3,4.6c-58.1,11.7-76.9,14.6-94.6,14.5l-13.7-0.1
						l15.1-2.1c24.9-3.5,45.6-7.1,82.2-14.5l34.8-6.9l7.8-9.1c4.3-5.1,7.6-9.4,7.4-9.7c-0.2-0.2-2.9-1-6-1.8
						c-7-1.8-14.3-1.8-20.1-0.2c-7.8,2.2-14.2,2.6-42.6,2.6l-27.9,0.1l-11.4,6c-19.3,10.2-46,22.7-67.4,31.5
						c-8.7,3.6-11.3,4.3-15.8,4.3C1808.9,7960,1808.3,7959.8,1809.2,7958.8z M2559.8,7938.2c-1.2-9-2.2-13.2-3.2-14.9
						c-0.9-1.2-1.5-2.6-1.5-3.1c0-1.8-5.1-10.2-8.9-14.6c-2.2-2.5-6.2-6.4-9.1-8.5c-4.8-3.6-14.5-8.7-17.6-9.3
						c-1-0.3-5.7,3.5-14.2,11.1l-12.6,11.4l7.6,0.6c9.2,0.9,18,3.4,26.2,7.6c11.3,5.8,24.7,17.5,31.6,27.7c1.8,2.6,3.4,4.7,3.5,4.6
						C2561.5,7950.8,2560.8,7945.1,2559.8,7938.2z M2465.2,7927.5c9-8,16.2-15,16.3-15.7c0-0.6-1-4.1-2.3-7.7
						c-4.4-12.7-11.3-21-20.6-25l-4.1-1.8l-9.1,2.2c-5,1.1-17.3,3.8-27.4,5.7c-10.1,1.9-19.5,3.8-20.8,4c-2.4,0.4-1.8,0.9,9.2,7.4
						c18.4,11,26.7,19.4,34.8,35.3c4.3,8.5,5.7,10.6,6.9,10.3C2448.6,7942.1,2456.3,7935.5,2465.2,7927.5z M2045.9,7922.7
						c1.1-1.7,6.9-7.1,12.9-12.2c19.8-16.7,34.5-31.4,48.1-47.8l6.4-7.7l-0.7-21.1c-0.4-11.6-0.8-24.4-1-28.2l-0.1-7.2l-5.5,7.6
						c-9,12.4-23.4,29.9-52.4,63.6c-42.8,49.9-54.2,63.4-54.2,64c0,0.4,10-1.3,22.2-3.6l22.1-4.2L2045.9,7922.7z M2641.2,7921.6
						c-4.8-8.2-6.7-17.5-5.3-25.9c1.8-11.8,7.9-21.6,17.3-28.3c2.4-1.8,3.9-3.2,3.3-3.2s-10.2-1.6-21.3-3.5l-20.2-3.4l-2.4,3.2
						c-4.6,6.2-6.4,18.6-4.5,31.7l0.8,5.5l6.8,6.1c9.3,8.4,26.1,21.4,26.8,20.7C2642.6,7924.1,2642,7923,2641.2,7921.6z
						 M2071.5,7921.4c9.5-1.4,23.1-3.3,30.3-4.1c17.5-2,16.4-0.5,14.6-20.6c-0.8-8.4-1.7-19-2-23.4l-0.6-8.1l-9.9,11
						c-11.7,12.9-27.6,28.4-38.7,37.6c-9.3,7.7-11.8,10-11.2,10C2054.1,7924,2062,7922.8,2071.5,7921.4z M2580.9,7905.9
						c3.2-1.2,9.4-2.8,14-3.5c7.5-1.2,10.3-2.5,8.8-4c-0.3-0.4-3-3.1-6-6.1c-3-3.1-7.1-7.3-9-9.5c-2.8-3.3-4.1-4-7.3-4.7
						c-6.7-1.3-13.9,1.1-18.9,6.1l-2.4,2.4l1.2,12.7c1.7,18.8,0.8,17.4,7.9,12.8C2572.5,7910,2577.8,7907.2,2580.9,7905.9z
						 M2136.5,7913.4c4.5-0.5,22.6-2.3,40.2-3.9l32.2-3l4.6-4.4c13.4-12.7,26.8-33.9,33.6-52.7c6.5-18.3,7.6-28.9,6.9-68.9
						l-0.5-29.7l-2.3-0.6c-8.4-2-32.1-8.8-42-11.9c-6.5-2-12.5-3.9-13.4-4.1c-2.5-0.6-4.2,5.2-6,20.5c-0.9,7.3-2.2,17-3,21.5
						c-8.3,47.3-30.1,97.3-56.8,130.8C2123.3,7915.4,2122.8,7914.9,2136.5,7913.4z M1977.4,7911.3c12.5-3.1,17.8-6.9,30.9-22
						c11-12.7,14-15.7,21.7-21.2c3.2-2.4,10.3-8.5,15.8-13.8c10.7-10.2,18-15.2,24-16.3c3.5-0.7,4-1.1,13.6-13
						c5.4-6.8,14.1-17.8,19.3-24.6l9.4-12.3v-7.6v-7.6l-14.9,13.4c-49.1,43.9-93.5,76.4-150.7,110.5l-26.4,15.7l9.5,0.4
						C1949.4,7913.5,1971,7912.8,1977.4,7911.3z M2038.8,7878.5c16.5-19.2,29.5-35.1,29.1-35.3c-1.2-0.5-6.8,1.9-10.1,4.5
						c-1.6,1.1-4.7,4.1-6.9,6.5c-7.6,8.3-12.3,12.3-19.3,16.9c-10,6.4-13.3,9.8-21.4,20.9c-4.7,6.5-8.7,11.1-11.8,13.6l-4.8,3.7
						l6.8,1.9c3.7,1.1,7.2,1.9,7.6,2C2008.5,7913.3,2022.3,7897.7,2038.8,7878.5z M2555.4,7900.7c-0.6-6.3-1.1-13.2-1.1-15.5
						c0-6.6-4.8-14.1-10.9-17.1c-1.3-0.7-2.9-1.2-3.4-1.2c-0.8,0-18.9,17.2-19.3,18.4c-0.1,0.4,1.8,1.3,4,2.2
						c9.6,3.6,20,11.3,27,19.7c2.4,3,4.4,5.3,4.6,5.2C2556.4,7912.1,2556,7906.9,2555.4,7900.7z M2500.2,7896
						c13-11.9,13.2-12.1,14.8-17.3c1-2.9,1.7-7,1.7-9.1c0.1-4.9-1.9-9.2-4-8.7c-0.8,0.2-9.4,2.8-19.1,5.7c-9.7,3-20.9,6.2-25,7.2
						c-4,1.1-7.8,2-8.4,2.3c-0.5,0.2,1.5,1.8,4.4,3.6c7.3,4.3,14.1,12.5,18,21.5c1.5,3.8,3.2,6.9,3.6,6.8
						C2486.8,7908,2493,7902.6,2500.2,7896z M2245.1,7903.3l24.1-2.1l5.9-5.9c18.4-18.3,31.7-45.5,36.3-74.2
						c1.8-11.8,2.1-23.7,0.9-36.5c-0.7-7.6-1-12.9-0.5-15.8c0.3-2.4,0.5-4.4,0.4-4.5c0,0-4.3-1-9.6-2c-5.2-1.1-17.1-3.8-26.4-6
						c-9.2-2.1-17-3.7-17.2-3.4c-0.2,0.3,0,12.1,0.5,26.2c1,28,0.5,39.8-2.1,52c-5,23.4-18,48.4-35.4,67.8l-6.6,7.4l2.8-0.4
						C2219.8,7905.7,2231.9,7904.5,2245.1,7903.3z M2130.1,7896.7c20.1-27.3,36.3-61.7,44.8-95.4c4.2-16.5,9.5-44.9,8.2-44
						c-0.3,0.3-1.5,2.3-2.6,4.7c-12.1,25.1-39.7,68.8-56.7,90.1l-4.8,6l0.4,8.1c1.2,20,3,39.3,3.7,39
						C2123.7,7905,2126.8,7901.2,2130.1,7896.7z M2304.8,7897.6c36.7-4,41.9-4.8,44.4-6.9c4.6-3.9,9.3-16.5,11-29.1
						c1.8-13.2,1.1-25.4-3.7-61.9c-3-22.8-3.1-23.7-1.8-24.8c0.7-0.7,1.2-1.3,1-1.5c-0.1-0.2-7.8-1.8-16.9-3.6
						c-9.1-1.8-17.3-3.4-18.1-3.7c-1.2-0.4-1.7,0-2.1,1.6c-0.3,1.1-0.6,12.3-0.7,24.9c-0.1,20-0.4,23.8-1.8,30.8
						c-5.7,28.8-15.9,50.5-32.6,69.7c-5.1,5.9-6,7.2-4.7,7.2C2279.9,7900.2,2291.5,7899,2304.8,7897.6z M2369.3,7889.3
						c15.6-2.4,15.1-2.1,23.8-12.9c8.5-10.6,15.3-23.2,20.2-37.2c3.7-10.7,5.7-20,6.9-33.5c0.7-7.6,1.5-12.2,2.5-14.6l1.5-3.4
						l-1.7-0.4c-0.9-0.3-3.2-0.9-5.3-1.3c-7.9-1.9-53.9-11.5-55.4-11.5c-0.3,0-1.1,0.5-1.8,1.1c-1.2,1-1,2.8,2.1,27.4
						c2.3,17.8,3.5,30.4,3.7,38.8c0.4,11.3,0.2,13.2-1.5,21.4c-2.1,9.5-5.3,18.9-8,23.3c-2.6,4.1-2.9,4.9-1.8,4.9
						C2355.1,7891.4,2361.7,7890.5,2369.3,7889.3z M2602.7,7888.6c-2-8.3,0.1-23,4.1-29.3c1-1.7,1.8-3.1,1.7-3.2
						c-0.1,0-5-1-10.9-2.1l-10.7-2l-1.6,2.2c-2.1,3.1-3.5,9.1-2.9,12.9c0.4,2.5,2.2,5,10.2,13.6c5.4,5.8,9.9,10.6,10.2,10.6
						S2603.1,7890.1,2602.7,7888.6z M2402,7883.9c13.7-2.5,30.1-5.9,41-8.4c6.8-1.6,7.6-2,11.4-6c8.2-8.6,14.8-21.3,18.7-36
						c2.1-7.7,3.7-21.2,3.2-27c-0.2-3.4-0.4-3.6-4.3-5.1c-5.3-2-25.3-8.1-35.9-10.8c-6.8-1.8-8.6-1.9-9.1-1.1c-0.7,1.3-1,3.4-2,14.8
						c-2.5,27.3-14.3,55.3-31.8,75.9c-2.8,3.3-4.7,5.9-4.3,5.9S2395.3,7885.2,2402,7883.9z M2564.6,7876.4c2.8-1.3,5.8-1.8,9.8-1.9
						c3.1,0,5.7-0.3,5.7-0.5c0-0.2-4.4-5.6-9.7-12.1c-7.9-9.6-9.8-11.4-10.3-10.2c-1,3.1-0.7,26.6,0.4,26.6
						C2560.5,7878.2,2562.4,7877.4,2564.6,7876.4z M2532.8,7864.8c2-2.5,2.9-10,1.4-10.8c-0.6-0.3-4.4,0.8-8.5,2.3l-7.3,2.7l2.1,4.6
						c1.2,2.7,2.1,5.9,2.1,7.9v3.3l4.3-4C2529.4,7868.6,2532,7865.8,2532.8,7864.8z M2553.8,7851.9c-0.2-0.4-11.8,11.6-11.9,12.3
						c-0.1,0.3,1.5,1.4,3.5,2.5c2,1.1,4.5,3,5.7,4l2.1,2l0.4-10.2C2553.8,7856.9,2553.9,7852.1,2553.8,7851.9z M2481.6,7865.4
						c27.3-7.7,29.4-8.6,32.5-12.7c1.5-2,3.5-5.9,4.3-8.6c2.1-6.7,3.5-18.3,2.5-20.2c-1-1.8-11.2-7.2-25.1-13.3
						c-10.8-4.7-12.3-5.1-13-3.6c-0.2,0.4-0.7,5.3-1.1,10.7c-0.4,5.5-1.4,12.9-2.2,16.5c-2,8.4-7.9,22.9-11.8,29.1
						c-1.7,2.6-3.5,5.3-3.9,6C2462.7,7870.8,2462.5,7870.8,2481.6,7865.4z M2579.4,7850.9c-0.2-0.4-3.1-1.1-6.3-1.6
						c-3.2-0.6-6.5-1.3-7.3-1.6c-0.8-0.3,1.2,2.8,4.8,7.1l6.2,7.6l1.6-5.5C2579.1,7853.9,2579.6,7851.2,2579.4,7850.9z
						 M2655.8,7849.1c-4.6-11.1-8.9-24.7-12.6-40.4c-3.2-13.5-3.8-26.9-1.6-34.7c0.8-2.9,1.4-5.4,1.3-5.5
						c-0.4-0.5-22.6,19.4-23.6,21.2c-1.8,3.3-4.7,17.1-5.6,26.7c-1,10.8-0.2,20.7,2.6,30.2c1.6,5.5,1.6,5.6,4.8,6.3
						c4,0.9,38.5,6.6,38.7,6.4C2660,7859.3,2658.1,7854.7,2655.8,7849.1z M2548.9,7847.7c-0.1-0.2-2.3,0.6-4.8,1.6
						c-4,1.7-4.6,2.1-4.2,3.8c0.2,1,0.4,2.4,0.4,3c0,0.6,2-0.9,4.4-3.4S2549,7847.9,2548.9,7847.7z M2537.7,7846.5
						c10.8-4.1,11.6-4.7,10.3-5.8c-2.1-1.8-10.1-7.5-16.1-11.1l-5.1-3.3l-0.8,8.2c-0.5,4.4-1.6,10.3-2.4,12.9
						c-0.9,2.6-1.5,4.9-1.5,5s0.9-0.2,2.1-0.6C2525.1,7851.4,2531.3,7849,2537.7,7846.5z M2610.7,7846.8c-0.2-2.4-1-7.2-1.6-10.8
						c-1.6-8.4-1.1-22.9,1-32.9c0.9-3.9,1.5-7.1,1.5-7.3c0-0.1-5.4,4.5-11.9,10.4c-6.6,5.8-11.9,11-11.8,11.5
						c0.1,0.5-0.4,2.9-1.3,5.3c-2.8,7.7-1.8,21.8,1.8,23.7c1.5,0.8,17.6,4,20.9,4.2C2611,7851,2611,7850.8,2610.7,7846.8z
						 M2129.3,7834.2c17.5-24,34.1-51.9,50.6-84.7c4.3-8.5,7.9-16,8.2-16.7c0.3-0.9-0.8-1.7-3.9-2.7c-2.4-0.8-8-2.9-12.6-4.6
						l-8.5-3.2l-1.1,2c-3.2,5.8-17.1,26.8-28.8,43.6c-7.1,10.3-13.7,19.9-14.6,21.2c-1.5,2.4-1.5,3.1-0.8,30.2
						c0.4,15.2,0.7,28.1,0.7,28.6c0,0.5,1-0.4,2.1-1.8C2121.7,7844.6,2125.6,7839.2,2129.3,7834.2z M2580.3,7842.4
						c-0.3-1.8-0.6-6.8-0.7-11v-7.6l-2.2,2c-1.2,1.1-5.1,4.5-8.6,7.6c-3.6,3.2-6.5,6.2-6.5,7.1c0,1.1,1.7,1.8,8.7,3.2
						c4.7,1.1,8.9,1.8,9.3,1.9C2580.7,7845.6,2580.7,7844.3,2580.3,7842.4z M2544.1,7826.9l-6.9-8.4l-1.8,1.8
						c-1,0.9-2.3,1.7-2.8,1.7c-2.1,0-0.9,1.4,3.5,4c2.5,1.5,6.5,4.1,9,5.9c2.4,1.8,4.8,3.3,5.2,3.3
						C2550.6,7835.1,2547.8,7831.5,2544.1,7826.9z M2563.1,7820.6c2-7.5,3.7-14.1,3.7-14.5c0-0.5-0.9-0.7-2.1-0.4
						c-1.1,0.3-3.6,0.5-5.5,0.6c-2,0-3.5,0.4-3.5,1.1c-0.1,3.4,2.6,26.9,3.1,26.9C2559.2,7834.3,2561.1,7828.1,2563.1,7820.6z
						 M2551.2,7822.1c-0.4-4.9-1.1-9-1.4-9s-1.5,0.6-2.6,1.3c-1.2,0.7-3.2,1.3-4.4,1.3s-2.5,0.3-2.8,0.6c-0.2,0.4,2.2,3.9,5.6,7.9
						c3.3,4,6.1,7.1,6.2,6.9C2552,7831.2,2551.7,7827,2551.2,7822.1z M2576.7,7818.9c2.1-2.1,2.1-2.2,0.7-3.3c-0.8-0.5-2.6-2.4-4-4
						c-1.3-1.7-2.5-2.8-2.6-2.7c-0.4,0.9-4.9,18-4.9,18.6C2566.1,7828.3,2573,7822.7,2576.7,7818.9z M2529.7,7817.1
						c1-1.1,1.8-2.8,1.8-3.7c0-1.8-20.4-26.6-21.8-26.6c-0.4,0-1.5,1.3-2.4,2.9c-1.8,3.5-6.3,7.9-11.4,11.3l-3.7,2.5l2.1,1
						c1.2,0.5,5.4,2.4,9.2,4.1c3.8,1.8,10.1,4.8,14,6.9C2525.8,7819.8,2527.3,7820,2529.7,7817.1z M2597.4,7800.9
						c7.3-6.4,13.6-12,14.1-12.7c0.7-0.9-0.1-1.6-4.3-3.5c-7-3.3-15.6-10.2-20.7-16.5l-4.2-5.2l-1.5,6c-6.2,25.5-7.4,31.2-7,33.4
						c0.9,4.2,3.1,8.8,5.2,10.6C2581.5,7815.2,2579.7,7816.3,2597.4,7800.9z M2544.2,7809.5c5-3.3,5.2-4.4,3.5-15.9
						c-0.8-5.5-2.1-14-2.9-18.6c-0.8-4.7-1.5-8.8-1.5-9.1c0-0.3-1.9,1.8-4.2,4.4c-2.4,2.6-5.7,5.8-7.3,7.1
						c-3.8,2.9-11.2,5.9-14.5,5.9c-5.8,0-5.6,0.4,6.7,15.1l11.6,14l2.9-0.5C2540,7811.6,2542.6,7810.4,2544.2,7809.5z
						 M2561.7,7801.6c1.4-0.5,3.7-1.9,5.1-3.1c2.5-1.9,2.7-2.6,6.2-17.2c1.9-8.3,3.7-15.7,3.9-16.2c0.2-0.9-1-1.1-5.1-0.6
						c-4.6,0.4-6.8,0.1-14.2-2.2c-4.8-1.5-8.9-2.5-9.1-2.4c-0.1,0.3,0.7,6.5,1.9,13.9c1.2,7.4,2.6,16,3.1,19.2
						c1.3,9.8,1.3,9.7,3.6,9.7C2558.3,7802.6,2560.3,7802.2,2561.7,7801.6z M2488.8,7798.2c5-2.7,9.3-6.9,12.9-12.3l3.3-5
						l-10.4-12.3c-5.7-6.7-14.4-16.9-19.4-22.6l-9-10.5l-2.4,6.6c-3.8,10.6-10.2,21.5-18,30.6c-3.9,4.7-8.2,9-9.4,9.6
						c-1.3,0.6-2.4,1.4-2.4,1.8c0,0.4,6,2.3,13.4,4.3c7.3,2,18.4,5.5,24.4,7.6c6.1,2.1,11.7,4,12.5,4S2487,7799.2,2488.8,7798.2z
						 M2626,7775.7c5.3-4.7,12.5-11,16-14.2l6.5-5.7l-6.9-3.7c-14.8-8-27.9-19-39.8-33.4c-6.9-8.3-8.2-9.4-8.6-7.9
						c-0.3,0.9-2.5,11.6-5,23.7l-4.4,22l2.6,4.7c1.5,2.5,4.6,6.8,7,9.4c5.7,6.2,17.2,13.4,21.5,13.5
						C2615.7,7784.1,2620.7,7780.4,2626,7775.7z M2433.7,7780.5c5.1-3.4,14.2-14.2,18.4-21.7c3.5-6.2,9.4-20.5,10.1-24.4
						c0.4-2.6-2.2-5.8-31.4-38l-3.5-3.8l-2.4,2.8c-1.2,1.6-4.2,7.2-6.4,12.7c-9.3,22.6-25.8,44.2-43.9,57.6c-5.1,3.8-5.6,4.4-4,4.7
						c1,0.3,10.2,2.3,20.5,4.5c10.3,2.1,22.6,4.9,27.2,6.1s9,2.1,9.8,2.2C2428.9,7783.3,2431.4,7782,2433.7,7780.5z M2130.7,7761.6
						c6.9-9.9,12.6-18.5,12.8-19c0.1-0.5-3.8,3.2-8.8,8.2c-5.1,5-10.8,10.7-12.9,12.7l-3.7,3.5l-0.3,6.4c-0.1,3.4-0.1,6.3,0.1,6.3
						S2123.8,7771.6,2130.7,7761.6z M2519,7776.1c7.7-2.3,14-7.6,19.5-16.6l2.6-4.4l-2.7-13.4c-3.2-15.1-8.8-39.1-9.4-39.8
						c-0.7-0.8-7.6,3.7-13.7,8.8c-10.3,8.6-24.8,18.2-32,21.2c-2,0.8-5.9,1.9-8.6,2.5l-5,1.1l19,21.7l18.9,21.7l2.9-0.5
						C2512.2,7778,2516,7777,2519,7776.1z M2370.6,7764.8c19.8-14.2,34.4-33.1,44.5-57.7c2.6-6.4,5.8-12.8,7.1-14.5l2.2-2.8
						l-2.4-2.9c-1.3-1.6-8.2-9.1-15.3-16.5c-14.7-15.6-13.4-15.3-18-4.8c-11,25.1-35,60.3-55.9,82.3c-5.8,6.1-10.6,11.4-10.6,11.8
						c0,0.4,0.7,1,1.7,1.2c2.2,0.7,38.1,8.2,39.5,8.3C2364,7769.2,2367.2,7767.2,2370.6,7764.8z M2573.8,7758.2
						c5.3-2.8,5.4-3.2,10-25.6c2.4-11.5,4.5-22.5,4.7-24.3l0.5-3.3l-3.6-0.6c-2.5-0.4-6,0-12.2,1.4c-10.3,2.4-12.9,2.1-26.8-2.3
						c-5.4-1.7-10.1-3-10.4-2.8s0.7,5.6,2.2,12.1s4.2,18.6,6,27l3.1,15l6.7,2.3c3.6,1.2,7.6,2.4,8.8,2.5
						C2565.8,7760.4,2571.2,7759.6,2573.8,7758.2z M2328.2,7744.7c16.1-17.8,25.9-29.8,33.5-41.4c7.2-10.9,18.2-30.4,23.8-42.4
						l4-8.5l-10.7-11.7c-6-6.4-14.6-16-19.1-21.3c-4.6-5.3-8.4-9.4-8.5-9.2c-0.4,0.4-3.2,11.8-7.8,31.1
						c-3.8,15.9-8.5,31.4-12.1,40.1c-10.1,23.9-27.3,42.2-55.3,58.8c-6.1,3.6-11.2,6.9-11.2,7.1c-0.1,0.7,44.8,11.1,48.6,11.3
						C2315.2,7758.7,2317.9,7756.1,2328.2,7744.7z M2672,7735.3c10.2-9.1,19.3-17.1,20.2-17.9c1.5-1.4,1.2-1.6-13.3-6.9
						c-25.6-9.5-40.3-17.4-52.8-28.4c-8.2-7.1-17.3-18.6-20.1-24.7c-1.2-2.7-2.4-5-2.6-5s-1.2,4.8-2.1,10.8c-0.9,5.9-2.7,16.7-4,24
						l-2.4,13.4l4,5.1c12.9,16.6,17.3,21.4,29.2,30.7c5.4,4.3,23.3,15.4,24.8,15.4C2653.1,7751.6,2661.7,7744.2,2672,7735.3z
						 M2272.6,7738.1c42.6-25.4,54.6-44.1,67.9-105.5c1.6-7.7,3.8-16.4,4.9-19.3c1-3,2.1-6,2.3-6.8c0.2-1-4-6.5-13.4-17.3
						c-7.6-8.8-14.1-16-14.6-16c-1.8,0-4.7,6.7-9,20.7c-8.2,26.8-22.6,53-40.5,73.4c-16.2,18.6-32.3,32.1-59,49.7
						c-7.7,5.1-14.3,11.4-12.5,12.2c3.7,1.7,55.8,16.7,59.6,17.1C2258.4,7746.3,2264.9,7742.7,2272.6,7738.1z M2482.7,7728.7
						c7.4-2.7,11.8-5.6,26.9-17.8c7.4-5.9,14.6-11.3,15.9-12c2.6-1.3,2.8-2.5,1.3-8.1c-0.6-2.1-4.1-15.6-7.9-29.8
						c-3.7-14.2-7.1-26.3-7.3-26.7c-0.4-0.5-4.6,4-10,10.6c-17.2,20.8-36.2,34.3-60,42.5c-5.6,1.9-10.3,3.7-10.4,3.9
						c-0.4,0.4,3.2,4.6,14.4,16.9c2.6,3,8.2,9.2,12.3,13.9l7.6,8.5h6.1C2475.7,7730.5,2479.3,7729.9,2482.7,7728.7z M2195.7,7722.3
						c2.3-2.5,8.2-7.4,12.9-10.7c31.5-21.7,45-33.7,61.3-53.7c12.1-14.9,21.2-30,28.2-46.8c3.1-7.3,7.3-19.6,6.8-20
						c-0.1-0.3-1.5,2.1-3.1,5.1c-7.1,13.8-19,30.9-32.5,46.5c-13.4,15.5-26.5,25.3-85.5,63.9c-7.5,4.9-14.3,9.5-15,10.2
						c-1.3,1.1-0.5,1.6,8.5,4.9c5.4,2,10.7,4,11.8,4.4c1,0.4,2,0.8,2.1,0.8C2191.4,7727,2193.3,7724.9,2195.7,7722.3z
						 M2578.9,7700.6c4-1.4,8.1-2.6,9.3-2.6c2.6,0,2.2,2,10.7-50.3c0.4-2,0.1-2.6-1.5-3.5c-1.5-0.8-3.6-0.6-10.9,0.9
						c-20.1,4.2-44.3,1.3-61.1-7.5c-3.5-1.8-6.4-3-6.6-2.8c-0.1,0.3,1.9,9,4.7,19.3c2.7,10.4,6.2,23.8,7.8,29.9l2.8,11l5.8,1.1
						c3.2,0.5,8.2,1.8,11,2.9C2564.9,7704,2569.2,7704.2,2578.9,7700.6z M2457.2,7677.3c17.9-9,32.8-21.7,46.5-39.4l6.7-8.7
						l-5.6-20.8c-3.1-11.4-6.3-23.5-7.1-26.7c-0.9-3.3-1.8-6-2.1-6c-0.4,0-3.1,3.9-6,8.6c-20.6,32.9-53.3,59.3-84.9,68.8
						c-3.7,1.1-6.8,2.4-6.8,2.7c0,0.4,6.6,7.6,14.8,16.3l14.8,15.7l10.9-3.3C2444.1,7682.9,2452.7,7679.6,2457.2,7677.3z
						 M2414.3,7643.5c14.4-6,32.4-17.9,44.8-29.7c11.2-10.7,22.9-25.7,29.9-38.2c1.7-3.1,3.5-6,4.2-6.6c1-1,0.7-2.7-2.3-14.9
						c-1.9-7.6-4.3-17.7-5.3-22.2c-1-4.6-2.1-9.1-2.3-9.8c-0.3-1.2-1.2-0.4-3.9,3.5c-11.5,16.5-29.2,29.9-56.3,42.6
						c-5.7,2.6-19.7,8.6-31.2,13.4c-23.4,9.5-29.4,12.8-35.3,19.6l-4,4.6l7.3,8.9c4,4.9,12.9,14.9,19.5,22.2l12.3,13.5l7.9-2
						C2404.1,7647.2,2410.7,7645.1,2414.3,7643.5z M2589.4,7641.2c12.1-2.1,10.4,1,14.5-27.7c2.7-19.7,3.2-25,2.5-25.5
						c-2.1-1.6-7.7-1.8-17.3-0.9c-26.4,2.5-52.8,0.4-77.2-6.6c-4.2-1.1-7.9-2.1-8.2-2.1c-0.4,0,0.1,2.9,1.1,6.4
						c1,3.4,4,14.6,6.6,24.6c3.4,12.8,5.2,18.5,6.1,18.8c0.7,0.3,4.3,2,8.2,4c8,4,17.6,7.2,26.9,9
						C2561.7,7642.9,2579.9,7642.9,2589.4,7641.2z M2353,7599c5.4-6.7,14.7-11.7,48.4-25.8c27.7-11.6,43.1-19.9,55.1-29.5
						c6.9-5.5,17.6-17.6,21.8-24.6l3.2-5.4l-3.8-18.6l-3.7-18.6l-1.9,0.5c-2.6,0.8-6.1,3.6-17.7,14.3
						c-32.1,29.8-70.2,53.4-112.1,69.2c-13.3,5.1-20.5,8.7-20.1,10c0.3,1,27.3,31.7,27.9,31.7
						C2350.3,7602.2,2351.6,7600.7,2353,7599z M2583,7580.6c5.4-0.8,13.4-1.3,17.6-1.2c4.2,0.1,7.7-0.2,7.9-0.6
						c0.1-0.4,1.2-9.5,2.4-20.1c1.2-10.6,2.4-20.4,2.6-21.7c0.4-2.2,0.2-2.4-3-3c-2.1-0.4-8.4,0.2-16.4,1.3c-21,3-28.4,3.6-42.2,3.6
						c-23.6,0-42-4.5-58-14.2c-3.7-2.2-4.4-2.4-4-1.1c0.2,0.9,1.8,7.3,3.3,14.3c1.6,7,4,17.1,5.4,22.3l2.4,9.6l4.8,1.7
						c11.7,4,35.2,8.7,48.9,9.8C2564.1,7582.1,2573.8,7581.8,2583,7580.6z M2339,7555.6c13.7-4.4,37-15.5,52.9-25.1
						c21.8-13,40.7-27.8,68.3-53c2.2-2,6-4.6,8.3-5.6c2.3-1,4.2-2,4.2-2.2c0-0.3-1.2-7.3-2.6-15.7c-2.4-14.1-6.8-45.2-8.2-57.9
						l-0.7-5.3l-3.1,7c-4.1,9.3-14,25.8-24,39.7c-16.9,23.7-76.1,92-103,118.8c-1.7,1.7-2.3,2.7-1.5,2.4
						C2330.6,7558.4,2334.7,7557,2339,7555.6z M2574.9,7532.6c22.3-3.2,32-4.3,35.7-4.3h3.7l0.4-3.3c1.5-11.1,6.5-59.8,6.2-61.4
						l-0.2-2l-5.9,2.1c-13.2,4.7-26.9,9.1-33.8,10.8c-24.7,6.1-54.3,6.9-83,2.2c-4.4-0.7-10.4-1.5-13.2-1.8
						c-5.1-0.5-5.1-0.5-4.7,1.6c0.2,1.1,2,9.9,3.9,19.5l3.5,17.4l4.9,3.3c14.3,9.9,33.5,16.7,50.8,17.9
						C2550,7535.2,2562,7534.4,2574.9,7532.6z M2546.6,7474.7c19.6-1.7,38.9-5.9,56-12.4c5-1.9,11.5-4.2,14.4-5.1l5.3-1.5l0.5-5.3
						c0.3-2.8,2.2-22,4.3-42.5c2.1-20.5,3.6-37.4,3.4-37.6c-0.2-0.3-5.6,2.8-12,6.9c-19.2,12-28.8,17.8-37,22.1
						c-20.9,10.9-41.7,18.5-59.2,21.5c-15.2,2.6-37.7,1.8-50-1.9c-1.8-0.6-2.1-2.4,3.1,29.7l3.4,20.8l3.5,0.5
						c1.8,0.3,6.4,1.1,10,1.8C2512,7475.3,2527.8,7476.2,2546.6,7474.7z M2508.4,7417.5c29.8-2.9,60.6-15.7,101.3-42.1
						c8.1-5.3,16.2-10.2,18.2-11.1c2.4-1.1,3.6-2.2,3.8-3.4c0.1-1.1,1.2-10.4,2.2-20.8c1.1-10.4,2.9-27.3,4.1-37.6
						c1.2-10.3,2.1-19.3,2.1-20c0-0.8-2.7,2.9-6,8.2c-37.6,59.9-91,103.2-149.3,121.2c-5.1,1.6-9.6,3.1-9.8,3.3
						c-0.2,0.2,2.4,0.9,5.7,1.4c5.5,0.9,8.2,1.1,15.7,1.7C2497.9,7418.3,2503.2,7418,2508.4,7417.5z M2484.1,7406.4
						c32.9-9.8,64.6-27.9,92.6-53.1c13.9-12.5,21.5-20.7,35.3-38.1c13.9-17.3,32-46.5,30.2-48.6c-0.1-0.3-3.6,3.3-7.6,7.7
						c-48.4,53.8-98.9,86.6-154.8,100.4c-5.4,1.4-9.3,2.9-10.9,4.2c-1.3,1.1-2.5,2-2.6,2c-0.2,0.1,2.6,24.8,3.1,27.5
						C2469.9,7410.8,2468.6,7411,2484.1,7406.4z M2495.2,7365.5c51.1-16.7,102.1-53.3,141.1-101.2l7.4-9.1l4.6-33.9
						c5-37,12.6-83.1,18.3-112.5c2.1-10.4,3.7-19,3.5-19.1c-0.1-0.1-2.4,4.7-5.2,10.9c-36.7,80.7-57,119.8-85.2,163.7
						c-21.3,33.1-32.3,48.3-44.2,60.9c-9,9.5-17,16.2-38.2,31.3c-8.9,6.4-16.5,12-16.9,12.6
						C2479.5,7370.5,2482.2,7369.8,2495.2,7365.5z M2672,7202.1c5.2-10.4,13.6-28.8,18.7-40.8l9.1-21.8l-1.9-3.7
						c-5.8-11.3-14-33.1-17.9-47.6c-0.9-3.3-1.8-6.5-2.1-7c-1.2-2.5-15,72.8-21.5,117.9c-3.2,22-5.8,41.5-5.8,43
						C2650.6,7243.4,2661.4,7223.2,2672,7202.1z"/>
				</g>
				<g id="Mobile3" transform="translate(138 76)">
					<path id="Container" class="st6" d="M8,0h143c4.4,0,8,3.6,8,8v286c0,4.4-3.6,8-8,8H8c-4.4,0-8-3.6-8-8V8C0,3.6,3.6,0,8,0z"/>
					<circle id="Touch" class="st7" cx="79" cy="268" r="15"/>
					<g id="Camera" transform="translate(64 16)">
						<circle id="Lens" class="st7" cx="2" cy="2" r="2"/>
						<path id="Sensor" class="st7" d="M11,0h17c1.1,0,2,0.9,2,2l0,0c0,1.1-0.9,2-2,2H11C9.9,4,9,3.1,9,2l0,0C9,0.9,9.9,0,11,0z"/>
					</g>
					<g id="Rows" transform="translate(14 28)">
						<g id="Row">
							<path id="Background" class="st7" d="M4,0h123c2.2,0,4,1.8,4,4v46c0,2.2-1.8,4-4,4H4c-2.2,0-4-1.8-4-4V4C0,1.8,1.8,0,4,0z"/>
							<g id="Text" transform="translate(39 16.2)">
								<path id="Name" class="st2" d="M3,0h67c1.7,0,3,1.3,3,3v2.1c0,1.7-1.3,3-3,3H3c-1.7,0-3-1.3-3-3V3C0,1.3,1.3,0,3,0z"/>
								<path id="Name-2" class="st2" d="M3,13.5h43c1.7,0,3,1.3,3,3v2.1c0,1.7-1.3,3-3,3H3c-1.7,0-3-1.3-3-3v-2.1
									C0,14.8,1.3,13.5,3,13.5z"/>
							</g>
							<circle id="Avatar" class="st8" cx="21" cy="27" r="12"/>
						</g>
						<g id="Row-2" transform="translate(0 62)">
							<path id="Background-2" class="st7" d="M4,0h123c2.2,0,4,1.8,4,4v34c0,2.2-1.8,4-4,4H4c-2.2,0-4-1.8-4-4V4C0,1.8,1.8,0,4,0z"
								/>
							<g id="Text-2" transform="translate(39 12.6)">
								<path id="Name-3" class="st2" d="M3,0h67c1.7,0,3,1.3,3,3v0.3c0,1.7-1.3,3-3,3H3c-1.7,0-3-1.3-3-3V3C0,1.3,1.3,0,3,0z"/>
								<path id="Name-4" class="st2" d="M3,10.5h43c1.7,0,3,1.3,3,3v0.3c0,1.7-1.3,3-3,3H3c-1.7,0-3-1.3-3-3v-0.3
									C0,11.8,1.3,10.5,3,10.5z"/>
							</g>
							<circle id="Avatar-2" class="st8" cx="21" cy="21" r="12"/>
						</g>
						<g id="Row-3" transform="translate(0 112)">
							<path id="Background-3" class="st7" d="M4,0h123c2.2,0,4,1.8,4,4v34c0,2.2-1.8,4-4,4H4c-2.2,0-4-1.8-4-4V4C0,1.8,1.8,0,4,0z"
								/>
							<g id="Text-3" transform="translate(39 12.6)">
								<path id="Name-5" class="st2" d="M3,0h67c1.7,0,3,1.3,3,3v0.3c0,1.7-1.3,3-3,3H3c-1.7,0-3-1.3-3-3V3C0,1.3,1.3,0,3,0z"/>
								<path id="Name-6" class="st2" d="M3,10.5h43c1.7,0,3,1.3,3,3v0.3c0,1.7-1.3,3-3,3H3c-1.7,0-3-1.3-3-3v-0.3
									C0,11.8,1.3,10.5,3,10.5z"/>
							</g>
							<circle id="Avatar-3" class="st9" cx="21" cy="21" r="12"/>
						</g>
						<g id="Row-4" transform="translate(0 162)">
							<path id="Background-4" class="st7" d="M4,0h123c2.2,0,4,1.8,4,4v34c0,2.2-1.8,4-4,4H4c-2.2,0-4-1.8-4-4V4C0,1.8,1.8,0,4,0z"
								/>
							<g id="Text-4" transform="translate(39 12.6)">
								<path id="Name-7" class="st2" d="M3,0h67c1.7,0,3,1.3,3,3v0.3c0,1.7-1.3,3-3,3H3c-1.7,0-3-1.3-3-3V3C0,1.3,1.3,0,3,0z"/>
								<path id="Name-8" class="st2" d="M3,10.5h43c1.7,0,3,1.3,3,3v0.3c0,1.7-1.3,3-3,3H3c-1.7,0-3-1.3-3-3v-0.3
									C0,11.8,1.3,10.5,3,10.5z"/>
							</g>
							<circle id="Avatar-4" class="st8" cx="21" cy="21" r="12"/>
						</g>
					</g>
				</g>
				<g id="Mobile3-2" transform="translate(156 102)">
					<g id="Group" transform="translate(0 218)">
						<path id="Fill_16-2" class="st1" d="M12.1,0c-1.3,0-2.6,0-4,0.1c-1,0-2.5-0.2-3.4,0.5S3.9,2.6,4,3.5c0.7,5,2.5,9.4,6.3,13
							c5.8,5.4,12.4,8.2,20.2,9.4c5.5,0.9,10.5-0.3,14.6-4.2c3,5.5,5.1,11.5,6.3,17.7c0.5,3,0.7,6,0.6,9.1c-0.1,2-0.2,3.9-0.4,5.9
							c-0.1,0.9-0.5,2.1-0.2,2.9c0.3,0.7,1.1,1,1.8,0.7c0.2-0.1,0.4-0.2,0.5-0.4c0.5-0.7,0.4-2,0.5-2.8c0.2-1.3,0.3-2.6,0.4-4
							c0.2-2.1,0.3-4.3,0.3-6.4c-0.1-4.9-1-9.7-2.6-14.3C49.6,21.2,45,13.4,37.9,7.2c-4.4-3.8-9.4-5.3-15.1-6.1
							C19.3,0.5,15.7,0.1,12.1,0"/>
						<path id="Fill_18" class="st1" d="M32.6,35c-14.3,0-24,11.5-28.5,23.5C2.4,63,2,68,1.3,72.7c-0.2,1.5-0.1,3.8-0.8,5.2
							c-0.2,0.5-0.7,0.7-0.5,1.3c0.1,0.4,0.5,0.7,0.9,0.7c0.9,0.2,2.2-0.8,2.9-1.2c6.4-3.2,10.6-8.2,14-14.2
							c2.3-3.7,4.1-7.7,5.5-11.8c0.7-2.5,1.2-5.2,1.5-7.8c0.1-1,0.2-2.1,0.2-3.1c-0.1-0.9-0.4-1.7-0.8-2.5c4.8-1.8,10.2-2.3,15-0.4
							c4.5,1.7,8.1,5,10.3,9.3c0.5,1.1,1,2.2,1.3,3.4c0.1,0.8,0.3,1.7,0.6,2.5c0.9,1.7,2.8,0.6,2.6-1c-0.7-4.5-2.9-8.7-6.2-11.8
							C43.7,37.3,38.3,35.1,32.6,35"/>
					</g>
					<path id="Container-2" class="st2" d="M56,0h143c4.4,0,8,3.6,8,8v286c0,4.4-3.6,8-8,8H56c-4.4,0-8-3.6-8-8V8
						C48,3.6,51.6,0,56,0z"/>
					<circle id="Touch-2" class="st7" cx="127" cy="268" r="15"/>
					<g id="Camera-2" transform="translate(112 16)">
						<circle id="Lens-2" class="st7" cx="2" cy="2" r="2"/>
						<path id="Sensor-2" class="st7" d="M11,0h17c1.1,0,2,0.9,2,2l0,0c0,1.1-0.9,2-2,2H11C9.9,4,9,3.1,9,2l0,0C9,0.9,9.9,0,11,0z"
							/>
					</g>
					<g id="Rows-2" transform="translate(62 28)">
						<g id="Row-5">
							<path id="Container-3" class="st7" d="M4,0h123c2.2,0,4,1.8,4,4v46c0,2.2-1.8,4-4,4H4c-2.2,0-4-1.8-4-4V4C0,1.8,1.8,0,4,0z"
								/>
							<g id="Text_Stuff" transform="translate(9 16.2)">
								<path id="Label" class="st2" d="M3,0h67c1.7,0,3,1.3,3,3v2.1c0,1.7-1.3,3-3,3H3c-1.7,0-3-1.3-3-3V3C0,1.3,1.3,0,3,0z"/>
								<path id="Label-2" class="st2" d="M3,13.5h43c1.7,0,3,1.3,3,3v2.1c0,1.7-1.3,3-3,3H3c-1.7,0-3-1.3-3-3v-2.1
									C0,14.8,1.3,13.5,3,13.5z"/>
							</g>
							<g id="Check" transform="translate(110 20)">
								<circle id="Background-5" class="st2" cx="7" cy="7" r="7"/>
								<circle id="Indicator" class="st6" cx="7" cy="7" r="3"/>
							</g>
						</g>
						<g id="Row-6" transform="translate(0 62)">
							<path id="Background-6" class="st7" d="M4,0h123c2.2,0,4,1.8,4,4v34c0,2.2-1.8,4-4,4H4c-2.2,0-4-1.8-4-4V4C0,1.8,1.8,0,4,0z"
								/>
							<g id="Text-5" transform="translate(39 12.6)">
								<path id="Name-9" class="st2" d="M3,0h67c1.7,0,3,1.3,3,3v0.3c0,1.7-1.3,3-3,3H3c-1.7,0-3-1.3-3-3V3C0,1.3,1.3,0,3,0z"/>
								<path id="Name-10" class="st2" d="M3,10.5h43c1.7,0,3,1.3,3,3v0.3c0,1.7-1.3,3-3,3H3c-1.7,0-3-1.3-3-3v-0.3
									C0,11.8,1.3,10.5,3,10.5z"/>
							</g>
							<circle id="Avatar-5" class="st8" cx="21" cy="21" r="12"/>
						</g>
						<g id="Row-7" transform="translate(0 112)">
							<path id="Container-4" class="st7" d="M4,0h123c2.2,0,4,1.8,4,4v34c0,2.2-1.8,4-4,4H4c-2.2,0-4-1.8-4-4V4C0,1.8,1.8,0,4,0z"
								/>
							<g id="Text_Stuff-2" transform="translate(9 12.6)">
								<path id="Label-3" class="st2" d="M3,0h67c1.7,0,3,1.3,3,3v0.3c0,1.7-1.3,3-3,3H3c-1.7,0-3-1.3-3-3V3C0,1.3,1.3,0,3,0z"/>
								<path id="Label-4" class="st9" d="M3,10.5h43c1.7,0,3,1.3,3,3v0.3c0,1.7-1.3,3-3,3H3c-1.7,0-3-1.3-3-3v-0.3
									C0,11.8,1.3,10.5,3,10.5z"/>
							</g>
							<g id="Check-2" transform="translate(110 14)">
								<circle id="Background-7" class="st2" cx="7" cy="7" r="7"/>
								<circle id="Indicator-2" class="st6" cx="7" cy="7" r="3"/>
							</g>
						</g>
						<g id="Row-8" transform="translate(0 162)">
							<path id="Background-8" class="st7" d="M4,0h123c2.2,0,4,1.8,4,4v34c0,2.2-1.8,4-4,4H4c-2.2,0-4-1.8-4-4V4C0,1.8,1.8,0,4,0z"
								/>
							<g id="Text-6" transform="translate(39 12.6)">
								<path id="Name-11" class="st2" d="M3,0h67c1.7,0,3,1.3,3,3v0.3c0,1.7-1.3,3-3,3H3c-1.7,0-3-1.3-3-3V3C0,1.3,1.3,0,3,0z"/>
								<path id="Name-12" class="st2" d="M3,10.5h43c1.7,0,3,1.3,3,3v0.3c0,1.7-1.3,3-3,3H3c-1.7,0-3-1.3-3-3v-0.3
									C0,11.8,1.3,10.5,3,10.5z"/>
							</g>
							<circle id="Avatar-6" class="st8" cx="21" cy="21" r="12"/>
						</g>
					</g>
				</g>
				<g id="Web" transform="translate(270 127)">
					<path id="Container-5" class="st6" d="M8,0h319c4.4,0,8,3.6,8,8v330c0,4.4-3.6,8-8,8H8c-4.4,0-8-3.6-8-8V8C0,3.6,3.6,0,8,0z"/>
					<path id="Background-9" class="st7" d="M257,43h54c4.4,0,8,3.6,8,8v65c0,4.4-3.6,8-8,8h-54c-4.4,0-8-3.6-8-8V51
						C249,46.6,252.6,43,257,43z"/>
					<g id="Profile_Info" transform="translate(259 58)">
						<circle id="Avatar-7" class="st2" cx="25" cy="16" r="16"/>
						<path id="Name-13" class="st2" d="M3,36h44c1.7,0,3,1.3,3,3l0,0c0,1.7-1.3,3-3,3H3c-1.7,0-3-1.3-3-3l0,0C0,37.3,1.3,36,3,36z"
							/>
						<path id="Name-14" class="st2" d="M11,46h28c1.7,0,3,1.3,3,3l0,0c0,1.7-1.3,3-3,3H11c-1.7,0-3-1.3-3-3l0,0
							C8,47.3,9.3,46,11,46z"/>
					</g>
					<path id="Header" class="st8" d="M8,0h319c4.4,0,8,3.6,8,8v19l0,0H0l0,0V8C0,3.6,3.6,0,8,0z"/>
					<g id="Buttons" transform="translate(9 10)">
						<circle id="buttons-2" class="st6" cx="4" cy="4" r="4"/>
						<circle id="buttons-3" class="st6" cx="16" cy="4" r="4"/>
						<circle id="buttons-4" class="st6" cx="28" cy="4" r="4"/>
					</g>
					<g id="Components" transform="translate(249 132)">
						<path id="Background-10" class="st7" d="M8,0h54c4.4,0,8,3.6,8,8v178c0,4.4-3.6,8-8,8H8c-4.4,0-8-3.6-8-8V8C0,3.6,3.6,0,8,0z"
							/>
						<g id="Rows-3" transform="translate(18 18)">
							<path id="Data" class="st2" d="M4,0h26c2.2,0,4,1.8,4,4v18c0,2.2-1.8,4-4,4H4c-2.2,0-4-1.8-4-4V4C0,1.8,1.8,0,4,0z"/>
							<path id="Data-2" class="st9" d="M4,34h26c2.2,0,4,1.8,4,4v17c0,2.2-1.8,4-4,4H4c-2.2,0-4-1.8-4-4V38C0,35.8,1.8,34,4,34z"/>
							<path id="Data-3" class="st2" d="M4,67h26c2.2,0,4,1.8,4,4v17c0,2.2-1.8,4-4,4H4c-2.2,0-4-1.8-4-4V71C0,68.8,1.8,67,4,67z"/>
							<path id="Data-4" class="st2" d="M4,133h26c2.2,0,4,1.8,4,4v17c0,2.2-1.8,4-4,4H4c-2.2,0-4-1.8-4-4v-17
								C0,134.8,1.8,133,4,133z"/>
							<path id="Data-5" class="st8" d="M4,100h26c2.2,0,4,1.8,4,4v17c0,2.2-1.8,4-4,4H4c-2.2,0-4-1.8-4-4v-17
								C0,101.8,1.8,100,4,100z"/>
						</g>
					</g>
					<g id="Rows-4" transform="translate(16 44)">
						<g id="Row-9">
							<path id="Container-6" class="st7" d="M4,0h217c2.2,0,4,1.8,4,4v39c0,2.2-1.8,4-4,4H4c-2.2,0-4-1.8-4-4V4C0,1.8,1.8,0,4,0z"
								/>
							<g id="Text_Stuff-3" transform="translate(9 14.1)">
								<path id="Label-5" class="st2" d="M3,0h161c1.7,0,3,1.3,3,3v1.1c0,1.7-1.3,3-3,3H3c-1.7,0-3-1.3-3-3V3C0,1.3,1.3,0,3,0z"/>
								<path id="Label-6" class="st2" d="M3,11.8h106.1c1.7,0,3,1.3,3,3v1.1c0,1.7-1.3,3-3,3H3c-1.7,0-3-1.3-3-3v-1.1
									C0,13.1,1.3,11.8,3,11.8z"/>
							</g>
							<g id="Check-3" transform="translate(193.954 16.5)">
								<circle id="Background-11" class="st2" cx="7" cy="7" r="7"/>
								<circle id="Indicator-3" class="st6" cx="7" cy="7" r="3"/>
							</g>
						</g>
						<g id="Row-10" transform="translate(0 55)">
							<path id="Container-7" class="st7" d="M4,0h217c2.2,0,4,1.8,4,4v31c0,2.2-1.8,4-4,4H4c-2.2,0-4-1.8-4-4V4C0,1.8,1.8,0,4,0z"
								/>
							<g id="Text_Stuff-4" transform="translate(9 11.7)">
								<path id="Label-7" class="st2" d="M2.9,0H164c1.6,0,2.9,1.3,2.9,2.9l0,0c0,1.6-1.3,2.9-2.9,2.9H2.9C1.3,5.8,0,4.5,0,2.9l0,0
									C0,1.3,1.3,0,2.9,0z"/>
								<path id="Label-8" class="st2" d="M2.9,9.8h106.2c1.6,0,2.9,1.3,2.9,2.9l0,0c0,1.6-1.3,2.9-2.9,2.9H2.9
									c-1.6,0-2.9-1.3-2.9-2.9l0,0C0,11.1,1.3,9.8,2.9,9.8z"/>
							</g>
							<g id="Check-4" transform="translate(193.954 12.5)">
								<circle id="Background-12" class="st2" cx="7" cy="7" r="7"/>
								<circle id="Indicator-4" class="st6" cx="7" cy="7" r="3"/>
							</g>
						</g>
						<g id="Row-11" transform="translate(0 102)">
							<path id="Container-8" class="st7" d="M4,0h217c2.2,0,4,1.8,4,4v31c0,2.2-1.8,4-4,4H4c-2.2,0-4-1.8-4-4V4C0,1.8,1.8,0,4,0z"
								/>
							<g id="Text_Stuff-5" transform="translate(9 11.7)">
								<path id="Label-9" class="st2" d="M2.9,0H164c1.6,0,2.9,1.3,2.9,2.9l0,0c0,1.6-1.3,2.9-2.9,2.9H2.9C1.3,5.8,0,4.5,0,2.9l0,0
									C0,1.3,1.3,0,2.9,0z"/>
								<path id="Label-10" class="st2" d="M2.9,9.8h106.2c1.6,0,2.9,1.3,2.9,2.9l0,0c0,1.6-1.3,2.9-2.9,2.9H2.9
									c-1.6,0-2.9-1.3-2.9-2.9l0,0C0,11.1,1.3,9.8,2.9,9.8z"/>
							</g>
							<g id="Check-5" transform="translate(193.954 12.5)">
								<circle id="Background-13" class="st2" cx="7" cy="7" r="7"/>
								<circle id="Indicator-5" class="st9" cx="7" cy="7" r="3"/>
							</g>
						</g>
						<g id="Row-12" transform="translate(0 243)">
							<path id="Container-9" class="st7" d="M4,0h217c2.2,0,4,1.8,4,4v31c0,2.2-1.8,4-4,4H4c-2.2,0-4-1.8-4-4V4C0,1.8,1.8,0,4,0z"
								/>
							<g id="Text_Stuff-6" transform="translate(9 11.7)">
								<path id="Label-11" class="st2" d="M2.9,0H164c1.6,0,2.9,1.3,2.9,2.9l0,0c0,1.6-1.3,2.9-2.9,2.9H2.9C1.3,5.8,0,4.5,0,2.9
									l0,0C0,1.3,1.3,0,2.9,0z"/>
								<path id="Label-12" class="st2" d="M2.9,9.8h106.2c1.6,0,2.9,1.3,2.9,2.9l0,0c0,1.6-1.3,2.9-2.9,2.9H2.9
									c-1.6,0-2.9-1.3-2.9-2.9l0,0C0,11.1,1.3,9.8,2.9,9.8z"/>
							</g>
							<g id="Check-6" transform="translate(193.954 12.5)">
								<circle id="Background-14" class="st2" cx="7" cy="7" r="7"/>
								<circle id="Indicator-6" class="st6" cx="7" cy="7" r="3"/>
							</g>
						</g>
						<g id="Row-13" transform="translate(0 196)">
							<path id="Container-10" class="st7" d="M4,0h217c2.2,0,4,1.8,4,4v31c0,2.2-1.8,4-4,4H4c-2.2,0-4-1.8-4-4V4C0,1.8,1.8,0,4,0z"
								/>
							<g id="Text_Stuff-7" transform="translate(9 11.7)">
								<path id="Label-13" class="st2" d="M2.9,0H164c1.6,0,2.9,1.3,2.9,2.9l0,0c0,1.6-1.3,2.9-2.9,2.9H2.9C1.3,5.8,0,4.5,0,2.9
									l0,0C0,1.3,1.3,0,2.9,0z"/>
								<path id="Label-14" class="st2" d="M2.9,9.8h106.2c1.6,0,2.9,1.3,2.9,2.9l0,0c0,1.6-1.3,2.9-2.9,2.9H2.9
									c-1.6,0-2.9-1.3-2.9-2.9l0,0C0,11.1,1.3,9.8,2.9,9.8z"/>
							</g>
							<g id="Check-7" transform="translate(193.954 12.5)">
								<circle id="Background-15" class="st2" cx="7" cy="7" r="7"/>
								<circle id="Indicator-7" class="st6" cx="7" cy="7" r="3"/>
							</g>
						</g>
						<g id="Row-14" transform="translate(0 149)">
							<path id="Container-11" class="st7" d="M4,0h217c2.2,0,4,1.8,4,4v31c0,2.2-1.8,4-4,4H4c-2.2,0-4-1.8-4-4V4C0,1.8,1.8,0,4,0z"
								/>
							<g id="Text_Stuff-8" transform="translate(9 11.7)">
								<path id="Label-15" class="st2" d="M2.9,0H164c1.6,0,2.9,1.3,2.9,2.9l0,0c0,1.6-1.3,2.9-2.9,2.9H2.9C1.3,5.8,0,4.5,0,2.9
									l0,0C0,1.3,1.3,0,2.9,0z"/>
								<path id="Label-16" class="st2" d="M2.9,9.8h106.2c1.6,0,2.9,1.3,2.9,2.9l0,0c0,1.6-1.3,2.9-2.9,2.9H2.9
									c-1.6,0-2.9-1.3-2.9-2.9l0,0C0,11.1,1.3,9.8,2.9,9.8z"/>
							</g>
							<g id="Check-8" transform="translate(193.954 12.5)">
								<circle id="Background-16" class="st2" cx="7" cy="7" r="7"/>
								<circle id="Indicator-8" class="st6" cx="7" cy="7" r="3"/>
							</g>
						</g>
					</g>
				</g>
				<path id="Fill_1" class="st3" d="M688,297.4c-3.9-2.7-9.2-3.4-13.9-3.4c-18.4,0-35.8,6.8-50.7,17c-8.2,5.7-15.6,12.5-22,20.1
					c-3.8,4.2-7,8.9-9.4,14c-1.6,3.5-2.7,7.1-3.4,10.8c-0.9,4.6-1.6,9.2-1.9,13.8c-0.1,1.8-1.2,11.5,1.8,11.6c0,0.2,0,0.4,0,0.7
					c-6.6,10.3-10.6,22.3-14.4,33.7c-3.4,9.9-6.1,20-8.1,30.2c-2.5,13.5-4.1,27.2-4.9,41c-0.2,3-0.3,5.9-0.4,8.9
					c-0.1,2.5-0.2,5-0.3,7.6c-0.1,2.8-0.6,6.1-0.1,8.9c0.4,2.4,2.5,2.1,2.6-0.4c0.1-2.9,0.1-5.9,0.2-8.8c0.2-3.9,0.4-7.8,0.5-11.7
					c1.2-27.1,6.4-53.8,15.5-79.4c3.6-10.3,8.1-20.2,13.5-29.7c4.9-8.4,10.5-16.5,16.5-24.2c5.8-7.4,11.8-14.6,18.8-20.8
					c5.8-5,12-9.6,18.5-13.6c8.2-5.2,16.4-10.3,25.4-14.3c4.6-2.1,9.4-3.9,14-5.9c0.8-0.4,1.7-0.7,2.5-1.1
					C691,300.9,690.1,298.8,688,297.4"/>
				<path id="Fill_20" class="st1" d="M613.8,392c7.5,0,14.1,1,21,3.9c5.9,2.6,11.4,5.9,16.6,9.7c7.4,5.2,13.2,11.2,17.3,19.3
					c2.4,4.8,4.2,11.6,2.6,16.8c-1.9,6.2-7.2,11.3-14.2,10.2c-4.3-0.7-8.3-3.5-11.5-6.2c-3.8-3.2-7.1-7.1-9.7-11.4
					c-4.2-7-6.7-14.9-10.3-22.2c-1.7-3.5-3.4-7-5.4-10.3c-0.9-1.7-2.2-3.2-3.6-4.5c-0.8-0.6-4.3-1.8-3-3.2
					c-19.4,0.3-36.6,15.1-40.3,33.6c-0.3,1.7-0.6,3.5-0.9,5.2c-0.2,1.1-0.1,5.1-1.1,5.8c-2.2,1.5-1.2-3.1-1.2-3.8
					c0.2-1.7,0.5-3.5,0.8-5.2c1.3-9.5,5.8-18.2,12.7-24.9C591.7,397,602.5,392,613.8,392"/>
				<g id="Plant" transform="translate(65 333)">
					<path id="Fill_19" class="st2" d="M9.9,35.7C28.6,67,50.3,97.3,63.4,131.6c-0.5-4-1.1-8.1-1.7-12.1
						C58.4,98.2,54.3,77,49.9,55.8C47.7,45,45.4,34.3,43,23.6c-1.3-5.8-2.6-11.5-3.9-17.3c-0.3-1.4-0.6-3.8-1-6.3
						c12.7,41.6,25,83.3,33.9,125.9c1.2,5.6,2.2,11.2,3,16.8c0.3-1.3,0.6-2.5,0.9-3.8c3.7-15.3,8.9-30.2,15.5-44.5
						c3.1-6.8,6.7-13.4,10.8-19.6c2.6-3.9,8.8-8.5,11.1-12.4c-13,23.9-17.7,53.7-25.2,79.7c-1.8,6.3-3.7,12.7-5.5,19
						c11.3-22.7,28.9-41.4,53.3-49.5c-29.6,19.5-47.3,53.8-59.3,88.8c0,0.4-0.1,0.8-0.1,1.2c3.5-6.7,7.9-12.7,14-16.9
						c12.9-9.1,27.1-6.4,39.6,1.4c-9.8-6.2-27.5-0.6-35.7,5.8c-5.9,4.5-10.9,10.6-15.3,16.5c-1,1.4-2.5,3.1-4,4.8
						c-2.2,14-5.7,27.7-10.5,41c0.8-3.9,0.2-10.1,0.4-13c0-0.3,0-0.6,0.1-0.9c-0.7,3-1.5,5.9-2.2,8.8c1.3-5.6,2.2-11.3,2.7-17.1
						c0.1-2.5,0.3-5,0.5-7.5c0-4.7-0.2-9.5-0.6-14.3c-1.2-4.6-2.5-9-3.6-12.6c-4-13.1-9.6-25.7-16.6-37.4
						c-6.4-10.6-14.1-20.4-23-29.1c-4.8-4.7-9.8-9.2-14.7-13.8c-1.8-1.6-5-5.7-7.7-7.8c20.1,11.1,40.7,23,55.4,40.9
						c-1.7-6.6-3.6-13.1-5.6-19.5C39.8,98.5,27.2,65,9.9,35.7z"/>
					<path id="Base" class="st8" d="M30,213c0,35.9,2.8,65,41,65s41-29.1,41-65"/>
				</g>
				<g id="Graph" transform="translate(520 52)">
					<path id="Value" class="st2" d="M3,32L3,32c1.7,0,3,1.3,3,3v19c0,1.7-1.3,3-3,3l0,0c-1.7,0-3-1.3-3-3V35C0,33.3,1.3,32,3,32z"
						/>
					<path id="Value-2" class="st2" d="M17,16L17,16c1.7,0,3,1.3,3,3v35c0,1.7-1.3,3-3,3l0,0c-1.7,0-3-1.3-3-3V19
						C14,17.3,15.3,16,17,16z"/>
					<path id="Value-3" class="st2" d="M31,8L31,8c1.7,0,3,1.3,3,3v43c0,1.7-1.3,3-3,3l0,0c-1.7,0-3-1.3-3-3V11C28,9.3,29.3,8,31,8z
						"/>
					<path id="Value-4" class="st2" d="M45,16L45,16c1.7,0,3,1.3,3,3v35c0,1.7-1.3,3-3,3l0,0c-1.7,0-3-1.3-3-3V19
						C42,17.3,43.3,16,45,16z"/>
					<path id="Value-5" class="st8" d="M59,0L59,0c1.7,0,3,1.3,3,3v51c0,1.7-1.3,3-3,3l0,0c-1.7,0-3-1.3-3-3V3C56,1.3,57.3,0,59,0z"
						/>
				</g>
				<g id="Pie_Chart" transform="translate(68 338) rotate(180)">
					<path id="Value-6" class="st6" d="M40-20.3C40-9.2,31.1-0.1,20,0v-20.3L33.7-35C37.7-31.2,40-25.8,40-20.3z"/>
					<path id="Value-7" class="st9" d="M20.5-20H0.3c0-5.1,2-10,5.5-13.7c3.8-4,9.1-6.3,14.7-6.3c5.1,0,10,2,13.8,5.4L20.5-20z"/>
					<path id="Value-8" class="st8" d="M20-20H0c0,2.7,0.5,5.3,1.6,7.8c1,2.4,2.5,4.5,4.3,6.4c1.8,1.8,4,3.3,6.4,4.3S17.3,0,20,0
						V-20z M22-18L22-18l8,18c4.5-1.9,8.1-5.5,10-10L22-18z"/>
				</g>
				<g id="Chart" transform="translate(641 330)">
					<path id="Value-9" class="st6" d="M37.8,37.2c-4,4.2-10.6,4.5-14.9,0.5s-4.5-10.6-0.5-14.9c2-2.1,4.8-3.4,7.7-3.3V0
						c-16.6,0-30,13.4-30,30s13.4,30,30,30l0,0c8.3,0,16.3-3.4,21.9-9.5L37.8,37.2z"/>
					<path id="Value-10" class="st9" d="M30,0v19.5c5.8,0,10.5,4.7,10.5,10.5H60C59.9,13.5,46.5,0.1,30,0z"/>
					<path id="Value-11" class="st8" d="M40.1,30c0,3.3-1.5,6.4-4.1,8.4L48.3,54C55.7,48.2,60,39.4,60,30H40.1z"/>
				</g>
				<g id="Chart-2" transform="translate(459 63)">
					<path id="Value-12" class="st6" d="M29.1,28.5c-3,3.3-8.1,3.5-11.4,0.4s-3.5-8.1-0.4-11.4c1.5-1.7,3.7-2.6,6-2.6V0
						C10.4,0,0.1,10.3,0,23c0.1,12.7,10.4,23,23.1,23c6.4,0,12.5-2.6,16.9-7.3L29.1,28.5z"/>
					<path id="Value-13" class="st9" d="M23,0v14.9c4.4,0,8,3.6,8,8.1h15C46,10.3,35.7,0,23,0z"/>
					<path id="Value-14" class="st8" d="M31.1,23c0,2.5-1.1,4.8-3.1,6.3L37.2,41c5.6-4.3,8.8-11,8.8-18H31.1z"/>
				</g>
				<g id="Image" transform="translate(76 57)">
					<path id="Fill_35" class="st8" d="M48,52L48,52L48,52"/>
					<path id="Fill_37" class="st8" d="M48,52L48,52L48,52"/>
					<path id="Fill_39" class="st8" d="M48.1,51.8L48.1,51.8C48,51.9,48,51.9,48.1,51.8C47.8,52.4,48,52.1,48.1,51.8"/>
					<path id="Fill_41" class="st8" d="M48,52L48,52C47.9,52.1,48,52,48,52"/>
					<path id="Fill_43" class="st8" d="M48,52L48,52L48,52z"/>
					<path id="Fill_45" class="st8" d="M48,52L48,52L48,52"/>
					<path id="Fill_47" class="st8" d="M48,52C48,52,48,51.9,48,52"/>
					<path id="Fill_49" class="st8" d="M48,52L48,52L48,52"/>
					<path id="Photo_Background" class="st2" d="M4,0h87c2.2,0,4,1.8,4,4v55c0,2.2-1.8,4-4,4H4c-2.2,0-4-1.8-4-4V4C0,1.8,1.8,0,4,0z
						"/>
					<g id="icons8-night_landscape" transform="translate(8 18)">
						<path id="Mountains" class="st9" d="M28,0L0,45h56L28,0z"/>
						<path id="Mountains-2" class="st8" d="M55.5,12L31,45h49L55.5,12z"/>
					</g>
					<circle id="Sun" class="st7" cx="74" cy="21" r="9"/>
				</g>
				<g id="Image-2" transform="translate(672 459) rotate(180)">
					<path id="Fill_35-2" class="st8" d="M71-77L71-77L71-77"/>
					<path id="Fill_37-2" class="st8" d="M71-77L71-77L71-77"/>
					<path id="Fill_39-2" class="st8" d="M71.1-76.8L71.1-76.8C71-76.9,71-76.9,71.1-76.8C70.8-77.4,71-77.1,71.1-76.8"/>
					<path id="Fill_41-2" class="st8" d="M71-77L71-77C70.9-77.1,71-77,71-77"/>
					<path id="Fill_43-2" class="st8" d="M71-77L71-77L71-77z"/>
					<path id="Fill_45-2" class="st8" d="M71-77L71-77L71-77"/>
					<path id="Fill_47-2" class="st8" d="M71-77C71-77,71-76.9,71-77"/>
					<path id="Fill_49-2" class="st8" d="M71-77L71-77L71-77"/>
					<path id="Photo_Background-2" class="st2" d="M138,0H4C1.8,0,0-1.8,0-4v-86c0-2.2,1.8-4,4-4h134c2.2,0,4,1.8,4,4v86
						C142-1.8,140.2,0,138,0z"/>
					<g id="icons8-night_landscape-2" transform="translate(11 -27)">
						<path id="Mountains-3" class="st9" d="M41.7,0l-41-67h82.1L41.7,0z"/>
						<path id="Mountains-4" class="st8" d="M84.1-17.9L47.8-67h72.6L84.1-17.9z"/>
					</g>
					<circle id="Sun-2" class="st7" cx="110.5" cy="-31.5" r="13.5"/>
				</g>
			</g>
		</g>
	</g>
	<g id="Calque_2_1_">
		<g>
			<ellipse class="st10" cx="156.4" cy="575.5" rx="27.8" ry="63.1"/>
			<path class="st11" d="M105.9,491.5c4.8,0.8,9.1,3.2,12.8,7.1c-10.2,12-18.8,33-22.5,57.7c-2.9,19.4-2.3,37.5,1.2,51.5
				c-3,0.8-6,1.1-9,0.6c-18.6-2.9-29.7-31.4-24.9-63.7S87.3,488.6,105.9,491.5z"/>
			<path class="st11" d="M129.9,504.8c2.9,0.2,5.6,1.7,8,4.1c-6.2,15-10.8,35.1-12.4,57.5c-1.5,21.5-0.1,41.3,3.6,56.8
				c-2.5,1.8-5.2,2.6-7.9,2.4c-13.6-1-22.6-28.9-20.2-62.3C103.4,530,116.4,503.8,129.9,504.8z"/>
			<path class="st11" d="M206.2,496.6c-4.8,1-9,3.6-12.5,7.6c10.7,11.5,20.1,31.9,24.8,56.2c3.7,19.1,3.7,37,0.9,51
				c3,0.7,6,0.8,9,0.2c18.5-3.7,28.5-32.5,22.3-64.2C244.5,515.6,224.6,492.9,206.2,496.6z"/>
			<path class="st11" d="M181.4,505.6c-2.9,0.3-5.5,1.9-7.8,4.4c6.9,14.6,12.3,34.3,14.8,56.3c2.4,21.2,1.8,40.9-1.2,56.4
				c2.6,1.6,5.3,2.4,8,2c13.5-1.6,21.4-29.6,17.5-62.6S194.9,503.9,181.4,505.6z"/>
			<path class="st12" d="M162.8,498.6c1.1,0-0.7-16.1,8.6-26.3c2-2.3,4.8-5.3,9.2-6.4c4.8-1.3,7.8,0.6,9.7-1.5
				c1.9-2.1,1.4-6.7-0.9-8.8c-3.7-3.4-11.3,0.8-12.6,1.5c-11.8,6.4-14.4,22-14.9,25.2C160.5,491.2,162,498.6,162.8,498.6z"/>
			<path class="st13" d="M156.7,502.9c0.8-0.8-1-12.6-6.1-19c-0.4-0.5-0.7-0.8-0.8-0.9c-2.6-2.8-7.7-5.9-10.3-2.1
				c-2.4,3.5-2.1,12.2-0.8,13.1c1.2,0.8,3.6-5,3.9-6c0.5-1.2,4.9-12.3,2.4-19.1c-2.9-7.8-12.7-3.7-14.8-2.9
				c-5,2.1-10.7,7.1-10.3,9.7c0.6,3.8,15,3.9,15.9-1.6c0.7-4.6-7.9-14.8-16.5-14.7c-1.3,0-8.5,0.3-11.2,8.1
				c-0.9,2.5-1.6,6.6-0.8,7.8c0.9,1.3,3.3-1.1,3.5-1.3c2.6-2.6,2.4-5.5,4.3-7.8c1.9-2.3,4.2-1.9,7.4-1.3c3.1,0.6,8.5,2.7,8.5,5.5
				c0,2.4-3.8,4.9-4.3,3.9c-0.3-0.6,0.6-2.9,1.4-4.2c2.4-4.1,6.4-4.2,9.2-2.9c1.6,0.7,4.9,2.2,5.7,6.8c0.5,2.8,0.2,7.2-1.3,9.6
				c-0.4,0.7-0.8,1-0.7,1.4c0.2,1.2,3.8-1.8,6.8,0.5c2.7,2.1,2.3,6.7,6.8,14.4C155.8,502.1,156.4,503.2,156.7,502.9z"/>
		</g>
		<g id="A_Human_Standing" transform="translate(996 519.5)">
			<g id="Head_Front" transform="translate(82)">
				<g id="Head" transform="translate(54 31)">
					<path id="Head-2" class="st14" d="M-982-177.5l8.3-38.5c-4.6-5.4-7.7-12-7.2-19.5c1.5-21.4,31.2-16.7,37-5.9s5.1,38.2-2.4,40.1
						c-3,0.8-9.3-1.1-15.8-5l4.1,28.8L-982-177.5L-982-177.5z"/>
				</g>
				<path id="hair" class="st15" d="M-903.5-222.8c-3.2-0.5-11.7-0.9-13.3-0.9c-1,0-2.1,0.2-2.7-0.7c-0.5-0.8-0.3-2-0.5-2.9
					c-0.2-1-0.4-2-0.7-3c-0.7-2.8-1.7-5.6-3.2-8.1c-2.7-4.8-6.8-8.5-11.8-10.7c-5.7-2.3-11.8-3.1-17.9-2.5
					c-6.4,0.5-12.2,2.7-18.3,4.7c-5.7,1.9-11.9,2.5-17.9,1.7c-6.1-0.9-10.7-4.3-15.8-7.4c-5.3-3.2-11.3-5.3-17.5-4.8
					c-5.8,0.5-11.2,2.9-16,6.1c-4.5,3-8.2,6.6-10.3,11.7c-2.3,5.5-2.3,11.5,1.5,16.3c5.4,7,15.4,8.8,23.7,8.6c4.8-0.1,9.5-1,14-2.6
					c6-2.1,11.3-5.7,16.9-8.7c2.6-1.4,5.4-2.5,8.3-3.3c2.8-0.8,5.5-1.1,8.1,0.5c2.5,1.9,5.2,3.4,8.1,4.6c2.9,1.1,6,1.6,9.2,1.6
					c6.1,0,12.1-1.9,18-3.2c4.8-1,10-2.1,14.9-1.1c2,0.4,5,1.3,5.8,3.4c-12.5,2.3-17.3,17.7-13.8,29c1.9,6.1,13.3,13.2,17.7,10
					c2.8-2,1.1-4.7,0-6.5c-2.1-3.4-2.8-7.7,1.1-10.1c3.4-2,6.9,2.8,7,2.8c0.9-0.1,8.9-4.6,14.4-11.2c5.4,0.3,6.3-3.3,5-6.2
					C-890.8-218.6-899.2-222.1-903.5-222.8z"/>
			</g>
			<g id="Bottom_Skinny_Jeans_1" transform="translate(0 187)">
				<path id="Skin" class="st14" d="M-736.3-153.9c-6.4-22.3-11.2-41.9-12.4-49.3c-2.9-17.5,22.5-18.5,25.8-9.8
					c5.1,13.1,13.9,56.4,24.6,121.6l-12.2,3.6C-723.3-116.2-732.6-140.9-736.3-153.9z M-859.1-176.8c11.8-4.6,52.9-19.2,72.8-23.3
					c5.7-1.2,11.2-2.3,16.4-3.3c15.5-3,23.5,24.9,8.6,27.1c-37.1,5.3-89.6,10.8-94.1,11.5c-0.3,0-0.5,0.1-0.8,0.1
					C-862.1-164.8-866.2-174-859.1-176.8z"/>
				<path id="Leg_Back" class="st16" d="M-760.2-207.8c-0.2-1.1-0.3-2.2-0.2-3.3l-63.6-32.4v-7h7.6c0,0,92.3,23.5,94.3,30.1v0.1
					l0.1,0.1c12.2,16.8,19.5,98.6,21.9,104.8l-23.4,3.5C-732.4-145-761-168.1-760.2-207.8z"/>
				<path id="Leg_Front" class="st17" d="M-837.9-185.3l19.2-6.6c-5.8-1.2-11.2-2.2-15.8-3c-29.6-5.2-38.2-21-33.1-55.6h54.6
					c8.9,2.6,55.2,22,79.3,32.3c15.9,6.8,10.9,31.5,1.9,37.9c0,0.3-0.2,0.6-0.5,0.8c-33.3,13.8-61.9,13.1-80.6,12.5
					c-8.5-0.3-15-0.6-19,0.4L-837.9-185.3z"/>
				<g id="Right_Shoe" transform="matrix(0.438, 0.899, -0.899, 0.438, 148.565, 57.151)">
					<path id="shoe" class="st18" d="M-649.8,797.1c-1-0.4-2.2,0.2-2.5,1.3v0.1l-2,6.7c0.1,2.6,0.4,5.3,0.9,7.9h56.4
						c0,0,2.2-7.3-2.5-7.8c-4.7-0.6-7.9-1-7.9-1l-26.2-11.8c-0.5-0.2-1.1,0-1.3,0.5l0,0l-1.7,4.1c0,0-4.4,2-7.1,2L-649.8,797.1z"/>
				</g>
				<g id="Right_Shoe-2" transform="translate(263 132)">
					<path id="shoe-2" class="st18" d="M-976.5-226.5c-1-0.4-2.2,0.2-2.5,1.3v0.1l-2,6.7c0.1,2.6,0.4,5.3,0.9,7.9h56.4
						c0,0,2.2-7.3-2.5-7.8c-4.7-0.6-7.9-1-7.9-1l-26.2-11.8c-0.5-0.2-1.1,0-1.3,0.5l0,0l-1.7,4.1c0,0-4.4,2-7.1,2L-976.5-226.5z"/>
				</g>
			</g>
			<g id="Body_Long_Sleeve_1" transform="translate(22 82)">
				<path id="Skin-2" class="st14" d="M-948.2-87.2c-1.4-2.3-2.9-4.6-7.6-3.4c-8.4,2.1-15.5,7.4-23.4,0.2c-1-0.9-1.7-3.7,1.6-5.1
					c8.2-3.5,20.3-10.2,22.2-12.8c2.7-3.5,11-23.6,24.9-60.2l20.5,4.1c-20.6,38.4-31.7,58.8-33.2,61.1c-3.4,5.2-0.2,14.7,0.9,19.7
					c-0.5,0.1-0.9,0.2-1.4,0.2C-946.1-83.5-947.1-85.4-948.2-87.2z M-784-172.9l36.2-15.9c5.4-5.6,11.6-10.5,18.4-14.4
					c1.8-0.6,4.8-0.7,1.6,4s-6.4,9.8-5.1,11.5c1.3,1.7,5-0.2,6.5,2.5c1,1.8-5.3,3.9-18.9,6.4l-27.1,20.8L-784-172.9z"/>
				<path id="Coat_Back" class="st19" d="M-854.3-245.2l8.6-1.5c18.8,18.3,26.5,62.1,39.1,68c11.9,5.5,28.7,0.2,48.7-7l6.1,13.7
					c-18.2,19.7-56.9,36.3-72.5,26.8C-849.4-160.4-855.2-214.5-854.3-245.2z"/>
				<path id="Shirt" class="st20" d="M-892-136.5h76.5c3.5,0,2.8-5,2.3-7.6c-5.8-29.4-28.6-61.1-28.6-102.9l-22-3.5
					C-882.1-221.1-888.4-185-892-136.5z"/>
				<path id="Coat_Front" class="st21" d="M-955-108.6c10.3-64.1,40.2-111.4,89.7-141.9h8.7c0,0,29.7,101.3,16.4,135H-909
					c1.1-16.4,4.6-33.8,9.4-50.8c-15.6,28.2-28.7,48.4-39.4,60.8L-955-108.6z"/>
			</g>
		</g>
		<g id="Head-3" transform="translate(1702.58 483.997)">
			<g id="Head-4" transform="translate(0 30.352)">
				<path id="Head-5" class="st14" d="M-934.8-168.4l-9.3-43.3c5.2-6.1,8.7-13.5,8.1-21.9c-1.7-24.1-35.2-18.8-41.7-6.6
					s-5.7,42.9,2.7,45.1c3.4,0.9,10.5-1.3,17.8-5.6l-4.6,32.3C-961.8-168.4-934.8-168.4-934.8-168.4z"/>
			</g>
			<path id="hair-2" class="st15" d="M-967-223.1c3.7-1,7.5-1.4,11.3-1.2c-1.3-3.1-1.8-6.5-1.4-9.8c0.4-3.2,1.8-6,3.2-8.9
				c0.6-1.4,1.4-2.6,2.4-3.7c1.1-1,2.4-1.7,3.8-2c1.4-0.3,2.9-0.3,4.4,0c0.6,0.1,1.2,0.4,1.8,0.6c0.6,0.2,1-0.2,1.4-0.6
				c1.2-0.9,2.7-1.5,4.2-1.6c1.6-0.2,3.2,0,4.8,0.6c1.5,0.5,2.9,1.4,4,2.5c0.4,0.4,0.8,1,1.1,1.7c0.1,0.3,0.1,0.4,0.4,0.5
				c0.3,0.1,0.6,0.1,0.8,0.2c2.6,0.9,4.7,2.8,5.9,5.4c0.8,2.2,1.1,4.6,0.9,7c-0.1,2.9-2.7,10.5-5.2,13.3c-2.3,2.4-5.3,4.1-8.5,4.8
				c2,2.5,3.5,5.3,4.5,8.3c1.1,3.3,1.8,6.7,2,10.1c0.3,3.3,0.2,6.7-0.5,9.9c-0.6,2.9-2.3,5.4-4.8,7c-1.2,0.7-2.4,1.3-3.7,1.7
				c-1.2,0.5-2.5,0.9-3.8,1.2c-2.5,0.5-5.3,0.4-7.3-1.6c-0.7-0.7-1.4-1.6-2-2.5c-0.2-0.3-0.3-0.5-0.1-0.8c0.3-0.4,0.6-0.7,1-0.9
				c1.9-1.6,3.2-3.9,3.4-6.4c0.3-2.6-0.4-6-3-7.2c-3.2-1.4-6.6,0.2-9.4,1.7c-1.2-4.2-3.6-8-7.5-9.9c-4.2-2.1-9.1-2.4-13.5-4.2
				c-1.2-0.4-2.3-1.1-3.1-2c-0.4-0.4-0.7-0.9-0.9-1.5c-0.1-0.7,0.2-1.4,0.6-1.9C-977.8-216.1-970.7-222-967-223.1z"/>
		</g>
		<g id="Bottom" transform="translate(1532.043 690.835)">
			<path id="Seat-2" class="st22" d="M-716-56.8h-162c-8.8,0-16-7.2-16-16v-126c0-8.8,7.2-16,16-16h162c8.8,0,16,7.2,16,16v126
				C-700-64-707.2-56.8-716-56.8z M-853.1-179.2c-2.2,0-4,1.8-4,4v78.7c0,2.2,1.8,4,4,4H-741c2.2,0,4-1.8,4-4v-78.7c0-2.2-1.8-4-4-4
				H-853.1z"/>
			<path id="Skin-3" class="st14" d="M-896.5-141.9c7.2-25.1,12.6-47.1,14-55.4c3.3-19.6-25.2-20.8-29-11
				c-5.7,14.8-15.7,63.3-27.6,136.7l13.7,4C-911.1-99.5-900.7-127.3-896.5-141.9z M-758.5-167.7c-13.2-5.2-59.5-21.6-81.8-26.2
				c-6.4-1.3-12.6-2.6-18.5-3.7c-17.4-3.3-26.4,28-9.6,30.4c41.6,6,100.7,12.2,105.7,12.9c0.3,0,0.6,0.1,0.9,0.1
				C-755.2-154.2-750.6-164.5-758.5-167.7z"/>
			<path id="Leg_Back-2" class="st16" d="M-869.6-202.5c0.2-1.2,0.3-2.5,0.2-3.7l71.4-36.4v-7.9h-8.5c0,0-103.7,26.4-105.9,33.9
				c0,0.1,0,0.1,0,0.2l-0.1,0.1c-13.8,18.8-22,110.8-24.6,117.7l26.2,3.9C-900.9-131.9-868.8-157.8-869.6-202.5z"/>
			<path id="Leg_Front-2" class="st17" d="M-782.3-177.2l-21.6-7.4c6.5-1.3,12.6-2.5,17.7-3.4c33.3-5.8,43-23.7,37.2-62.5h-61.3
				c-10,2.9-62,24.7-89,36.3c-17.9,7.7-12.3,35.4-2.1,42.6c0,0.4,0.2,0.7,0.6,0.9c37.4,15.5,69.5,14.8,90.5,14
				c9.6-0.3,16.8-0.7,21.3,0.5L-782.3-177.2z"/>
			<g id="Right_Shoe-3" transform="matrix(-0.438, 0.899, -0.899, -0.438, 230.128, 82.679)">
				<path id="shoe-3" class="st18" d="M209.4,1008.5c-1,0.4-2.2-0.2-2.5-1.3v-0.1l-2-6.7c0.1-2.7,0.4-5.3,0.9-7.9h56.4
					c0,0,2.2,7.3-2.5,7.8c-4.7,0.5-7.9,1-7.9,1l-26.2,11.8c-0.5,0.2-1.1,0-1.3-0.5l0,0l-1.7-4.1c0,0-4.4-2-7.1-2L209.4,1008.5z"/>
			</g>
			<g id="Right_Shoe-4" transform="translate(0 170.116)">
				<path id="shoe-4" class="st18" d="M-922.1-245.2c1.2-0.4,2.4,0.2,2.8,1.4v0.1l2.1,7.6c-0.2,3-0.5,5.9-1,8.9h-63.2
					c0,0-2.5-8.2,2.9-8.8s8.8-1.2,8.8-1.2l29.4-13.2c0.6-0.3,1.2,0,1.5,0.6l0,0l1.9,4.6c0,0,4.9,2.3,8,2.3L-922.1-245.2z"/>
			</g>
		</g>
		<g id="Body_Long_Sleeve_1-2" transform="translate(1595.083 567.729)">
			<path id="Skin-4" class="st14" d="M-745.8-45.3c1.3-0.8,2.6-3.7-0.7-6c-8.3-5.7-20.2-15.6-21.8-18.9
				c-3.3-6.7-14.5-71.8-14.5-71.8l-23.5,0.1c0,0,21.7,70.2,23.5,74.5c2.6,6.4-2.9,16.3-5.3,21.5c3.7,1.7,5.4-0.5,7.3-2.6
				c2-2.3,4.2-4.5,9.2-2.2c6.4,3,11.7,7.7,17.9,7.7C-750.8-43-748.1-43.8-745.8-45.3z M-947.9-108.6l35.5-14.7l-7.9-19.6l-35.8,26.3
				c-9.7,2.6-17.8,5.9-24.4,9.8c-1.5,1.4-3.4,4.2,3,3.8s13.1-0.7,14,1.5s-3,4.8-1.2,7.7c0.2,0.3,0.5,0.4,0.8,0.4
				C-961.8-93.4-956.5-98.5-947.9-108.6z"/>
			<path id="Coat_Back-2" class="st23" d="M-849.4-240.5l-9.7-1.7c-36,31.1-50.8,91-95,122.7l10.6,13.2
				C-866.9-115.8-847.9-188.8-849.4-240.5z"/>
			<path id="Shirt-2" class="st20" d="M-807.1-118.4h-86c-3.9,0-3.2-5.7-2.6-8.5c6.6-33,32.1-68.7,32.1-115.7l24.8-3.9
				C-818.2-213.6-811.2-172.9-807.1-118.4z"/>
			<path id="Coat_Front-2" class="st24" d="M-767.8-71.2c2-64.2-22.3-113.5-42.6-143.3c4.5-0.3,8.6-2.2,11.2-6.9
				c9.1-16.4,5.8-25.4-3.9-28.3c-9.7-3-18.3,3.1-33.7,3.1c-0.6,0-1.2,0-1.8,0.1l-8.4,0.6c0,0-33.4,113.3-18.4,151.2h67.9
				c3.3,8.1,7,16,11.2,23.6h18.5V-71.2z"/>
			<path id="Shade" d="M-822.8-94.8h25.4c-4.7-11.2-9.8-25-15.3-41.1C-815-116.1-818.4-102.3-822.8-94.8L-822.8-94.8z"/>
		</g>
	</g>
	<g>
		<ellipse class="st10" cx="705.2" cy="596.4" rx="27.8" ry="63.1"/>
		<path class="st11" d="M654.8,512.4c4.8,0.8,9.1,3.2,12.8,7.1c-10.2,12-18.8,33-22.5,57.7c-2.9,19.4-2.3,37.5,1.2,51.5
			c-3,0.8-6,1.1-9,0.6c-18.6-2.9-29.7-31.4-24.9-63.7C617.2,533.3,636.2,509.5,654.8,512.4z"/>
		<path class="st11" d="M678.8,525.7c2.9,0.2,5.6,1.7,8,4.1c-6.2,15-10.8,35.1-12.4,57.5c-1.5,21.5-0.1,41.3,3.6,56.8
			c-2.5,1.8-5.2,2.6-7.9,2.4c-13.6-1-22.6-28.9-20.2-62.3S665.3,524.7,678.8,525.7z"/>
		<path class="st11" d="M755,517.6c-4.8,1-9,3.6-12.5,7.6c10.7,11.5,20.1,31.9,24.8,56.2c3.7,19.1,3.7,37,0.9,51c3,0.7,6,0.8,9,0.2
			c18.5-3.7,28.5-32.5,22.3-64.2S773.5,513.8,755,517.6z"/>
		<path class="st11" d="M730.3,526.5c-2.9,0.3-5.5,1.9-7.8,4.4c6.9,14.6,12.3,34.3,14.8,56.3c2.4,21.2,1.8,40.9-1.2,56.4
			c2.6,1.6,5.3,2.4,8,2c13.5-1.6,21.4-29.6,17.5-62.6C757.8,550.2,743.8,524.9,730.3,526.5z"/>
		<path class="st12" d="M711.7,519.6c1.1,0-0.7-16.1,8.6-26.3c2-2.3,4.8-5.3,9.2-6.4c4.8-1.3,7.8,0.6,9.7-1.5
			c1.9-2.1,1.4-6.7-0.9-8.8c-3.7-3.4-11.3,0.8-12.6,1.5c-11.8,6.4-14.4,22-14.9,25.2C709.4,512.1,710.9,519.5,711.7,519.6z"/>
		<path class="st13" d="M705.6,523.8c0.8-0.8-1-12.6-6.1-19c-0.4-0.5-0.7-0.8-0.8-0.9c-2.6-2.8-7.7-5.9-10.3-2.1
			c-2.4,3.5-2.1,12.2-0.8,13.1c1.2,0.8,3.6-5,3.9-6c0.5-1.2,4.9-12.3,2.4-19.1c-2.9-7.8-12.7-3.7-14.8-2.9c-5,2.1-10.7,7.1-10.3,9.7
			c0.6,3.8,15,3.9,15.9-1.6c0.7-4.6-7.9-14.8-16.5-14.7c-1.3,0-8.5,0.3-11.2,8.1c-0.9,2.5-1.6,6.6-0.8,7.8c0.9,1.3,3.3-1.1,3.5-1.3
			c2.6-2.6,2.4-5.5,4.3-7.8c1.9-2.3,4.2-1.9,7.4-1.3c3.1,0.6,8.5,2.7,8.5,5.5c0,2.4-3.8,4.9-4.3,3.9c-0.3-0.6,0.6-2.9,1.4-4.2
			c2.4-4.1,6.4-4.2,9.2-2.9c1.6,0.7,4.9,2.2,5.7,6.8c0.5,2.8,0.2,7.2-1.3,9.6c-0.4,0.7-0.8,1-0.7,1.4c0.2,1.2,3.8-1.8,6.8,0.5
			c2.7,2.1,2.3,6.7,6.8,14.4C704.6,523,705.3,524.1,705.6,523.8z"/>
	</g>
	<path d="M203.8,276.7c-0.6,1.8-1.4,3.5-2.4,5c-5.1,7.4-11.6,13.1-19.2,17.6c-12.1,7.2-24.5,12.7-39.2,11.7
		c-7.8-0.5-15.7-0.2-23.6-1.1c-2.7-0.3-5.4-0.8-8-2.2c-1.2-0.7-3.1-1.4-2.8-2.9c0.3-1.5,2.2-0.6,3.4-0.6c8.6,0.2,17-0.7,25-3.7
		c1.3-0.5,1.7-1.2,1.6-2.7c-0.2-5.9-0.7-11.8-0.1-17.7c0.2-1.9-0.1-3.8-0.9-5.7c-0.9-2.2-1.9-4.4-2.7-6.6c-1.8-4.9-5.1-8.3-9.1-11
		c-2.3-1.6-4.7-1.5-6.9,0c-3.3,2.2-4.9,5.4-4.6,9.9c0.1,1.7,0.7,3.3,0.5,5.1c-0.7-0.2-0.9-0.6-1.2-1c-4.9-7.5-3-15.9,3.1-21.9
		c3.9-3.9,9.5-4.7,14.6-5.9c3.1-0.7,6,1.3,8.9,2.1c9.1,2.4,13.8,11,20.2,17.3c0.2,0.2,0.3,0.7,0.5,1c1.6,3.4,3.5,6.7,6.1,9.4
		c2.3,2.5,4,5.4,5.5,8.5c2.1,4.2,2,4.1,6.1,3.1c5.3-1.2,10.4-2.7,15-5.7c2.5-1.6,5-3.2,7.9-4.1c0.6-0.2,1.4-0.5,1.9,0.2
		C204.3,275.4,204,276.1,203.8,276.7z"/>
	<path d="M675.7,222c1.2,3.3,2.7,6.4,4.6,9.1c9.8,13.5,21.8,23.5,35.8,31.1c22.4,12.2,45.2,21.3,71.8,18c14.2-1.8,28.5-1.9,42.7-4.5
		c4.9-0.9,9.8-2,14.3-5c2.1-1.4,5.6-2.9,4.9-5.7c-0.6-2.8-4.1-1-6.3-0.8c-15.6,1.2-30.9,0.4-45.7-4.4c-2.4-0.8-3.1-2.1-3.1-4.9
		c0-11.1,0.6-22.3-0.9-33.3c-0.5-3.5,0-7.2,1.3-10.8c1.5-4.3,3.2-8.4,4.6-12.7c2.9-9.4,8.8-16.1,15.9-21.6c4.1-3.2,8.4-3.3,12.6-0.8
		c6.2,3.8,9.3,9.6,8.9,18.1c-0.1,3.1-1.1,6.3-0.5,9.7c1.2-0.5,1.6-1.2,2-2c8.4-14.5,4.4-30.1-6.9-40.9c-7.3-6.9-17.4-7.9-26.9-9.5
		c-5.7-1-10.7,3.1-16.1,4.9c-16.4,5.4-24.4,22.1-35.6,34.5c-0.4,0.5-0.6,1.3-0.8,1.9c-2.8,6.6-6,12.9-10.6,18.4
		c-4.1,4.9-7,10.6-9.6,16.6c-3.5,8.1-3.4,7.8-10.9,6.4c-9.6-1.8-19-4-27.6-9.2c-4.6-2.8-9.3-5.5-14.5-6.9c-1.2-0.3-2.5-0.7-3.4,0.7
		C674.8,219.6,675.3,220.9,675.7,222z"/>
	<g transform="translate(0.000000,1173.000000) scale(0.100000,-0.100000)">
		<path d="M3951,10520c1.7-1.6,11.1-5.8,21-9.2c59.2-20.4,170.2-66.1,200.4-82.5c10.5-5.6,26-12.8,34.6-15.7
			c23.5-8.3,66.5-29.4,143.7-71.1c161.6-87.2,297.6-178,435.4-291c23.3-19.1,28.5-24.4,29.6-30.3c0.8-4,2.1-28.2,2.7-54.3
			c3.1-104.3,11.3-212.8,34.8-465.2c32.7-350.6,36.3-412.5,39.9-692.8c1-91.9,2.7-177.3,3.4-189.7l1.5-22.6l-12.4-1.8
			c-6.9-0.9-19.5-4-28.1-7c-8.6-2.9-16.4-5.4-17.2-5.4c-2.3,0-36.9,50.4-61.5,89.7c-55.8,89-58.8,101.1-58.8,248.9
			c0,96.6,2.1,128.7,9.7,153.6c5.5,17,32.9,78,49.7,109.4c6.9,13.2,12.2,24,11.3,24c-1.9-0.2-32.1-38.6-46.4-58.5
			c-14.9-21.3-29.2-45.1-34.6-58.7c-15.1-36.5-27.3-134.1-27.3-220.2c-0.2-74.9,5-104,26.7-152c14.9-33.2,42.4-83,71.8-130
			l19.7-31.6l-15.3-17c-8.4-9.2-17.8-21.1-21.2-26.2c-3.1-5.4-6.5-9.6-7.1-9.6c-0.8,0-15.1,7.6-31.9,17
			c-79.7,44.8-131.8,84.1-145.8,109.9c-16.4,29.8-38,119.9-48.9,203.1c-5.5,41.7-5.5,60.3,0,83c5.9,24.7,22,70.8,41.8,119.3
			c9,22,15.7,39.2,14.7,38.1c-3.4-3.8-48.3-81.6-65.5-113.4c-9.4-17.7-20.6-40.1-24.6-50c-7.1-17.5-7.3-18.6-7.1-46
			c0.2-46.9,7.3-101.1,20.8-159c12.6-54.7,29.6-98,46.4-118.8c14.3-17.9,73.9-62.8,145-109c26.2-16.8,33.8-22.9,32.7-25.6
			c-3.8-10.1-9.4-34.1-11.5-50c-1.9-13.2-3.1-17.5-5.2-16.6c-9.2,3.8-69.3,22.6-93.2,29.1c-47.4,13-61.3,15.2-80.6,12.6
			c-49.3-7.4-140.6-54.9-206.9-108.3c-37.6-30-42.6-36.8-56.7-74.7c-12.2-32.3-48.3-149.5-48.3-156.3c0-1.3,10.5,20.4,23.3,48
			c27.1,58.7,51.4,103.4,63.8,117c25,28,151.5,104.5,202.5,122.9c18.5,6.5,21.4,7,39.9,5.8c22-1.3,49.9-8.3,84.6-20.6
			c21.4-7.4,74.9-28,74.9-28.9c0.8-3.8,6.3-36.8,6.3-38.3s-30.6-2.2-87.7-2.2c-85,0-87.9-0.2-100.5-5.2
			c-26.7-10.1-57.3-33.2-94.6-71.1c-37.1-37.9-80-92.8-92.1-118.4c-7.6-15.9-10.9-51.1-12.2-127.1l-1-63.9l6.1,36.8
			c14.3,84.3,24.1,121.1,38.4,141c34.2,48.7,106,124,141.9,149.5c18.3,12.8,32.5,16.8,68.6,18.4c46,2,151.9-6.7,153.8-12.8
			c2.9-9,27.3-43.7,40.1-56.7l14.7-15.2l3.4-19.5c6.3-35.9,22.7-70.8,42.2-90.1l9.2-9l-2.7-11.4c-4.4-17.9-2.5-23.8,12.6-39.5
			c7.3-7.8,14.1-14.1,15.1-14.1s-1.3,5.8-5.2,12.8c-8,14.1-8.8,22.6-3.6,32.3c3.6,6.3,4.4,6.5,12.2,4.9c10.7-2.2,27.1-2.2,38,0
			c8.6,1.8,8.6,1.8,13-7.6c4-8.7,4.2-10.1,1.3-17.5c-1.7-4.5-5.5-11.9-8.4-16.4c-7.6-12.6-2.5-10.3,12.4,5.4
			c15.3,16.1,17.6,22.9,13,39.2l-3.1,10.8l10.3,11.2c21.2,23.5,34.6,52.5,41.1,89.2c3.4,19.3,3.6,19.5,16.2,32.3
			c14.5,14.8,30,35.6,37.4,50.7c2.9,5.6,7.1,10.8,9.4,11.4c2.3,0.7,20.4,2.9,39.9,4.9c45.3,4.9,126.5,5.6,145.2,1.1
			c26-6.1,53.7-27.8,104.5-82.1c42-44.8,72.8-83.9,79.7-100.7c8.6-20.9,19.3-69.5,30.2-137l4-24.7l0.2,30.7
			c0.2,41.3-3.6,117.7-7.1,139.2c-2.3,13.7-4.8,20.9-12.4,33.6c-25,42.6-86.5,113.2-127.2,146c-29.4,23.8-50.4,34.3-73.4,37.2
			c-10.3,1.3-49.7,2.2-93,1.8c-48.9-0.4-74.9,0-74.9,1.6c0,2.9,6.3,37.7,6.9,38.3c1,1.1,52.3,20.9,73.9,28.5
			c55.6,19.5,88.6,25.1,111.9,18.6c39-11,133.7-64.1,192.9-108.1c29-21.5,42.8-43,84.2-130.9c14.3-30.3,25.4-52.9,24.8-50.4
			c-4,15.9-19.9,69.3-31.5,105.4c-15.9,50.4-26.4,76.9-34.2,87.7c-16.2,22.9-90,76.5-147.7,107.6c-56.2,30-99.3,41.9-131.2,35.9
			c-27.5-5.4-117.7-31.4-139.6-40.6c-2.7-1.1-3.8,2-5.9,17c-1.5,10.1-4.8,26.2-7.3,35.9l-4.8,17.7l31.7,20.4
			c43.2,28,105.8,72.6,126.5,90.4c18.9,15.9,30.4,32.3,41.3,58.1c25.8,60.5,46.8,175.5,44.9,244.8c-0.6,26.9-0.6,27.1-10.3,48.4
			c-12.2,26.9-29.2,58.5-60.2,111.9c-25.2,43.5-30.2,51.1-25,38.1c28.3-69.5,39.2-98.2,48.3-126.4l10.9-33.9l-0.2-28
			c-0.4-67.5-32.3-215.9-54.1-252.9c-9.2-15.7-36.3-39-76.8-65.9c-32.1-21.3-98.2-59.4-99.5-57.4c-5.2,8.5-17.6,24.2-29,36.8
			l-14.5,15.7l20.1,32.5c42.2,67.3,76.4,133.4,85.8,165.5c8.8,29.6,12,60.5,12,116.6c-0.2,93-12.8,189-30,225.3
			c-12,25.6-43.6,71.5-68.8,100c-6.1,6.7-9.4,9.9-8,6.7c12.4-22.6,41.3-82.3,48.9-100.4c18.5-44.8,20.8-65,20.8-183.2
			c0-132.7-4-154.2-40.3-217.2c-16.6-28.7-66.3-104.3-78.1-118.6c-0.8-1.1-9,0.7-18,3.6c-9.2,3.1-21.8,6.3-28.3,7.2l-11.8,1.6
			l-1.5,65.2c-0.6,36.1-1.7,113.4-2.3,172c-2.5,221.1-6.7,293.3-34.6,591.9c-23.3,248.6-28.1,307.2-34.4,409.2
			c-4,63.2-8.2,164.1-7.3,172c0.8,5.6,2.3,4.5,32.3-22.2c17.4-15.5,44.5-40.4,60.4-55.2c15.7-15,33.4-30,38.8-33.2
			c5.5-3.4,49.1-28.9,97-56.9c140.2-82.3,156.1-93.5,203.6-144.4c35-37.7,57.3-67.5,93.8-126.2c28.3-45.5,37.8-56.5,73.4-85.4
			c11.3-9.2,24.8-20.4,30-25.1c11.5-10.3,131.6-133,184.3-188.3c79.1-83,123.8-143,151.5-203.3c6.9-15,13.9-28.7,15.3-30
			c1.3-1.3,6.3-3.6,10.9-4.9c4.6-1.6,17-9.2,27.3-17c10.5-8.1,37.4-26.5,59.8-40.8c100.7-64.8,121.3-84.1,199.4-186.8
			c99.7-130.9,152.6-219.7,277.8-464.1c34.2-66.8,35-68.8,44.5-104.3c18.3-68.6,42.8-149.3,62.3-204.9l8.8-25.3l0.6,15.7
			c0.6,14.6-0.6,19.7-19.1,79.1c-10.9,35-26.2,87.4-34,116.8l-14.3,53.4l8,26.2c13,43.9,35.3,98,51,124.7c4.6,8.1,5.5,8.5,6.9,4.7
			c0.8-2.7,1.7,4,1.7,16.4c0.2,12.1-0.6,20.4-1.7,19.7c-1-0.9-6.7,9.4-12.8,22.6c-24.3,54.9-65.5,130.3-111.4,204.9
			c-14.9,24-27.1,44.4-27.1,45.1c0,0.9,5.9-0.9,13.2-3.8c7.1-2.9,22.5-8.3,34.2-12.3c11.8-3.8,29.2-11.7,38.6-17.5
			c19.9-12.1,46-37,57.9-55.6l8.2-12.8l0.6,14.1l0.6,14.1l-12.2,13.5c-24.1,26.2-46.6,40.4-90.4,56.3c-14.9,5.4-31.9,12.6-37.8,15.7
			l-10.7,5.8l2.7,8.5c13.6,41,47.8,90.4,86.2,123.8c14.1,12.1,47.2,36.8,57.3,42.4c3.8,2,4.6,4.5,4.6,12.6c0,5.6-0.4,10.1-1,10.1
			c-3.1,0-39.9-25.1-57.3-39.2c-44.3-35.9-75.8-76.2-94-121.1c-3.4-8.1-6.5-14.6-7.1-14.6c-1.3,0-3.6,16.6-18.9,141.9
			c-5.9,46.9-10.5,87.9-10.5,91.2v6.5l17.4-0.9c9.4-0.7,29.6-1.6,44.5-2c38.2-1.6,81-10.8,114-24.7l13-5.6v8.7v8.7l-20.4,7
			c-39.7,13-64.2,17-122.3,20c-21.4,1.1-41.3,3.1-44.3,4.3c-5.2,2.2-5.5,2.9-11.1,54.7c-3.1,28.7-8.8,78.7-12.6,110.8l-6.7,58.7
			l10.7,1.6c5.7,0.7,27.1,4.7,47.2,9c49.3,10.1,50.2,10.1,74.3,12.3c19.7,1.6,73-0.7,81.4-3.6c3.1-0.9,3.8,0.2,3.8,6.5v7.6
			l-12.8,1.6c-22.9,2.5-82.1,1.3-103.7-2c-11.5-1.8-34.4-6.3-50.8-10.1c-16.6-3.6-35-6.7-40.9-6.7h-11.1l-9.4,79.1
			c-5,43.3-9.2,82.7-9.4,87.4c0,8.5,0.2,8.7,12.6,13.9c6.9,2.7,21.2,9.4,31.5,15c52.5,28,112.1,45.1,168.5,48.2l25.6,1.3v6.7v6.7
			l-28.8-1.3c-63-3.1-112.9-17.3-177.5-50.2c-18.5-9.4-34-16.1-34.8-15c-0.8,1.1-4.6,25.1-8.4,53.6c-3.8,28.2-7.3,54-7.8,57.2
			c-1,4.9,0.6,7.2,10.5,15.7c6.3,5.6,22.7,19.7,36.3,31.6c50.6,43.7,110.8,85.2,174.8,119.7l35.7,19.3v9.9c0,12.1,2.7,12.8-39.2-9.9
			c-74.3-39.7-144-87.9-201-139l-20.8-18.6l-10.1,63.4c-10.1,63.4-10.1,63.7-6.5,72.6c7.3,17.3,24.1,42.1,40.1,59.2
			c37.6,39.9,89.8,68.2,187,100.9l34.6,11.7l7.3-5.8l7.6-5.6l0.6,8.1c0.6,7.2-0.4,9-12.6,21.1c-24.8,24.2-33.8,51.1-33.8,102
			c0,34.1,3.6,62.6,12.4,97.5c8.2,32.5,19.5,68.8,27.3,87.9c6.1,14.3,7.1,19.7,7.1,33.6c-0.2,15.2-0.4,16.1-3.4,11.9
			c-12.6-17.3-33.4-72.6-44.1-116.6c-12.2-50.7-14.3-66.6-14.3-103.1c0-34.8,4.6-63.4,12.4-79.6c1.9-3.8,2.7-6.7,2.3-6.7
			c-3.4,0-96.5,75.6-100.7,81.4c-24.1,34.5-23.7,70.2,1.9,153.1c6.9,22.4,34.8,86.3,41.6,95.7c2.5,3.1,12.4,4.9,53.1,10.1l50.2,6.3
			l0.6,6.1c0.8,7.6,2.3,7.6-56.9,0.2c-25.4-3.1-49.3-5.2-53.1-4.3c-12,2.2-35,16.1-45.7,27.4c-23.9,25.3-29.8,60.5-15.5,92.6
			c4.2,9.2,22.7,30.3,45.7,52.5c5.5,5.2,22.9,15.7,43.4,26.5c18.9,9.6,34.6,17.5,34.8,17.5c0.4,0-2.9-7.8-7.3-17.3
			c-23.1-50-13.4-104.9,25.6-146.4c8.8-9.2,18.9-18.6,22.7-20.9l6.7-4v6.5c0,5.4-3.6,10.3-17.6,25.3c-18.5,20-26.4,33.9-31.7,55.2
			c-10.5,43.3,7.3,95.1,40.7,117.7l9.4,6.3l-43-0.4c-42.8-0.2-43.6-0.4-10.3-3.1l17.8-1.3l-45.1-24c-43.9-23.1-46-24-70.3-28.2
			c-71.8-12.8-138.5,2.2-199.6,44.8c-14.7,10.1-19.5,12.3-25.4,11.9c-7.3-0.7-7.1-0.9,14.3-16.1c55.2-39,108.7-57.8,166-58.3
			c14.9-0.2,26.9-0.4,26.9-0.7c0,0-7.3-4.5-16.2-9.9c-21.6-12.6-51-32.3-67.8-45.5l-13.6-10.8l-21,1.3c-11.5,0.7-29,3.4-38.8,5.8
			c-19.3,4.9-55.4,22.9-66.9,33.2l-7.1,6.3l6.7,42.6c3.8,23.3,7.3,44.6,8,47.5c1,4.7,0.4,4.9-10.1,4.9h-11.3l-8.4-14.1
			c-10.1-16.8-33.6-43.5-49.3-56.3c-26-21.1-55.2-35.9-84.6-42.8c-19.5-4.7-62.1-4-70.7,1.1c-11.5,6.7-96.7,76.9-95.1,78.5
			c0.8,0.9,11.1,5.8,22.7,11s26.2,12.3,32.5,15.9l11.5,6.5l-18.3,0.2c-16.8,0-19.9-0.9-41.8-10.1c-13-5.6-24.3-10.1-25.2-10.1
			c-0.8,0-6.7,4.5-13.2,10.3c-11.1,9.4-12.4,10.1-22.7,9.4l-11.1-0.7l17.2-14.3l17-14.6l-4.8-6.7c-2.5-3.8-10.3-16.4-16.8-28
			c-24.3-42.1-56.2-67.3-124.4-97.8c-27.1-12.1-23.3-11.9-86-3.8l-29.8,3.8l21.2,22.4c41.1,43.3,56,68.4,65.9,110.1
			c6.9,28.9,6.9,30-1.9,30h-7.1l-4.4-19.5c-2.5-11-9.2-30.3-15.1-43.3c-10.3-22.4-12.2-24.7-45.1-60.3l-34.2-36.8l-57.3,5.8
			c-31.5,3.4-70.1,7.2-85.6,8.5c-42.8,3.6-41.3,1.3-15.3,24.7c46,41.3,116,113.4,116,119.5c0,0.7-4.4,1.3-9.7,1.3
			c-9.7,0-9.9-0.2-36.3-28.5c-43-46.6-112.9-110.5-120.5-110.5c-8.2-0.2-155.7,11.7-156.6,12.6c-0.4,0.4,3.4,6.1,8.6,12.6
			c21.8,27.8,44.3,61.7,62.1,94.4l10.9,19.5h-10.1h-9.9l-8.2-15.2c-15.3-28.2-34.8-56.7-72.6-106.3c-3.1-4-5.5-4-86,2.7
			c-45.5,3.8-98,8.3-116.5,10.1c-18.5,1.8-35,3.4-36.9,3.4c-1.7,0-5,1.3-7.1,3.1c-3.8,2.9-4,3.6-0.8,7.4c5.7,6.7,27.9,47.5,39.5,72
			l10.7,22.9h-7.3c-7.1,0-7.6-0.7-15.7-17.9c-10.1-21.3-32.5-62.1-41.6-75.3c-5.2-7.6-7.3-9-12.2-8.5c-3.4,0.4-24.6,2.9-47,5.6
			c-79.1,9-133,17.5-135.8,21.5c-7.1,10.1-0.6,33.2,17.2,60.3l9.2,14.3h-6.9c-6.1,0-8-1.6-15.7-13.2c-12.6-19.3-21.2-39.9-21.2-51.1
			c0-11.7,2.3-11.4-42.8-4c-57.5,9.6-73.4,12.6-78.3,13.7l-4.8,0.9l3.8,10.8c2.1,6.1,7.8,17.7,12.6,26.5l8.8,15.5l-8.6,0.7
			c-4.8,0.4-9.4,0-10.5-1.1c-0.8-0.9-6.7-11.9-13-24.2c-7.8-15.2-12.8-22.6-15.5-23.1c-2.3-0.4-34.8,4.9-72.2,11.7
			c-166,29.8-219.7,37.2-270.1,37l-39.2-0.2l43-5.4c71.1-9,130.3-18.2,234.8-37l99.5-17.7l22.2-23.3c12.2-13,21.6-24,21.2-24.7
			c-0.6-0.4-8.4-2.5-17.2-4.5c-19.9-4.5-40.7-4.5-57.3-0.4c-22.2,5.6-40.5,6.7-121.7,6.7l-79.7,0.2l-32.5,15.2
			c-55,26-131.4,57.8-192.4,80.3c-25,9.2-32.3,11-45.1,11C3950.2,10523.1,3948.5,10522.7,3951,10520z M6094.6,10467.5
			c-3.6-22.9-6.3-33.6-9.2-37.9c-2.5-3.1-4.4-6.7-4.4-7.8c0-4.5-14.7-26-25.4-37.2c-6.3-6.5-17.8-16.4-26-21.7
			c-13.9-9.2-41.3-22.2-50.4-23.8c-2.7-0.7-16.4,9-40.5,28.2l-36.1,29.1l21.6,1.6c26.2,2.2,51.4,8.7,74.9,19.5
			c32.3,14.8,70.5,44.6,90.2,70.6c5,6.7,9.7,12.1,9.9,11.7C6099.5,10499.6,6097.6,10485,6094.6,10467.5z M5824.6,10440.2
			c25.6-20.4,46.4-38.3,46.6-39.9c0-1.6-2.9-10.5-6.5-19.7c-12.6-32.3-32.3-53.6-59-63.7l-11.8-4.5l-26,5.6
			c-14.3,2.9-49.3,9.6-78.3,14.6c-28.8,4.9-55.6,9.6-59.4,10.3c-6.7,1.1-5,2.2,26.2,18.8c52.5,28,76.2,49.5,99.5,89.9
			c12.4,21.7,16.4,27.1,19.7,26.2C5777.1,10477.4,5799.2,10460.6,5824.6,10440.2z M4627.1,10428.1c3.1-4.3,19.7-18.2,36.9-31.2
			c56.5-42.6,98.6-80,137.2-122l18.3-19.7l-1.9-53.8c-1.3-29.6-2.3-62.1-2.7-72l-0.4-18.4l-15.7,19.3
			c-25.8,31.6-66.9,76.2-149.6,162.1c-122.1,127.3-154.7,161.6-154.7,163.2c0,0.9,28.5-3.4,63.4-9.2l63.2-10.8L4627.1,10428.1z
			 M6326.9,10425.2c-13.6-20.8-19.1-44.6-15.1-66.1c5.2-30,22.5-55.2,49.3-72.2c6.9-4.5,11.1-8.1,9.4-8.1s-29.2-4-60.9-9l-57.7-8.7
			l-6.9,8.1c-13.2,15.9-18.3,47.3-12.8,80.7l2.3,14.1l19.3,15.5c26.4,21.3,74.5,54.5,76.6,52.7
			C6330.9,10431.7,6329.3,10428.7,6326.9,10425.2z M4700.2,10424.7c27.1-3.6,66.1-8.3,86.5-10.5c49.9-5.2,46.8-1.3,41.6-52.5
			c-2.3-21.5-4.8-48.4-5.7-59.6l-1.7-20.6l-28.3,28c-33.4,33-78.7,72.4-110.6,96c-26.4,19.7-33.6,25.6-32.1,25.6
			C4650.4,10431.2,4673.1,10428.3,4700.2,10424.7z M6154.9,10385.3c9-3.1,26.9-7.2,39.9-9c21.4-3.1,29.4-6.3,25.2-10.3
			c-0.8-0.9-8.6-7.8-17.2-15.5c-8.6-7.8-20.1-18.6-25.6-24.2c-8-8.3-11.8-10.3-21-11.9c-19.1-3.4-39.7,2.7-53.9,15.5l-6.7,6.1
			l3.4,32.5c4.8,48,2.3,44.4,22.7,32.7C6130.9,10395.6,6146.1,10388.6,6154.9,10385.3z M4885.9,10404.3c12.8-1.3,64.4-5.8,114.8-9.9
			l91.9-7.6l13.2-11.2c38.2-32.5,76.6-86.5,95.9-134.3c18.5-46.6,21.6-73.8,19.7-175.8l-1.5-75.8l-6.5-1.6
			c-23.9-5.2-91.7-22.4-119.8-30.3c-18.5-5.2-35.7-9.9-38.4-10.5c-7.1-1.6-12,13.2-17.2,52.2c-2.5,18.6-6.3,43.3-8.6,54.9
			c-23.7,120.6-85.8,248.2-162.2,333.6C4848.1,10409.5,4846.6,10408.1,4885.9,10404.3z M4431.3,10398.9c35.7-7.8,50.8-17.5,88.1-56
			c31.5-32.5,40.1-40.1,61.9-54c9-6.1,29.4-21.7,45.1-35.2c30.4-26,51.4-38.8,68.4-41.5c10.1-1.8,11.5-2.9,38.8-33.2
			c15.5-17.3,40.3-45.5,55-62.8l26.9-31.4v-19.3v-19.5l-42.6,34.1c-140.2,111.9-266.9,194.8-430.4,281.8l-75.3,39.9l27.1,0.9
			C4351.6,10404.5,4413.1,10402.7,4431.3,10398.9z M4606.8,10315.3c47-48.9,84.4-89.5,83.1-89.9c-3.6-1.3-19.3,4.9-28.8,11.4
			c-4.6,2.9-13.4,10.5-19.7,16.6c-21.8,21.1-35.3,31.4-55.2,43c-28.5,16.4-38,24.9-61.1,53.4c-13.4,16.6-24.8,28.2-33.8,34.8
			l-13.6,9.4l19.3,4.9c10.7,2.7,20.6,4.9,21.8,5.2C4520.1,10404.1,4559.8,10364.2,4606.8,10315.3z M6082,10371.8
			c-1.7-16.1-3.1-33.6-3.1-39.5c0-16.8-13.6-35.9-31.3-43.7c-3.8-1.8-8.2-3.1-9.7-3.1c-2.3,0-53.9,43.9-55.2,46.9
			c-0.2,0.9,5,3.4,11.5,5.6c27.5,9.2,57.1,28.7,77.2,50.2c6.7,7.6,12.6,13.5,13,13.2C6084.8,10400.9,6083.7,10387.7,6082,10371.8z
			 M5924.4,10359.9c37.1-30.3,37.8-30.9,42.4-44.2c2.7-7.4,4.8-17.9,4.8-23.1c0.2-12.6-5.5-23.5-11.3-22.2
			c-2.3,0.4-26.9,7.2-54.6,14.6c-27.7,7.6-59.8,15.9-71.4,18.4c-11.5,2.7-22.2,5.2-23.9,5.8c-1.5,0.4,4.2,4.7,12.6,9.2
			c21,11,40.3,31.8,51.4,54.9c4.4,9.6,9.2,17.5,10.3,17.3C5886,10390.6,5903.9,10376.7,5924.4,10359.9z M5196,10378.5l68.8-5.4
			l16.8-15c52.5-46.6,90.4-116.1,103.7-189.2c5.2-30,6.1-60.3,2.5-93c-2.1-19.3-2.7-33-1.5-40.4c0.8-6.1,1.5-11.2,1.3-11.4
			c0,0-12.4-2.5-27.5-5.2c-14.9-2.9-48.9-9.6-75.3-15.2c-26.2-5.4-48.5-9.4-49.1-8.7c-0.6,0.7,0,30.9,1.5,66.8
			c2.7,71.5,1.5,101.6-6.1,132.5c-14.3,59.6-51.4,123.3-101.1,172.9l-18.9,18.8l8-0.9C5123.6,10384.6,5158.3,10381.7,5196,10378.5z
			 M4867.6,10361.7c57.5-69.7,103.7-157.4,128-243.3c12-42.1,27.1-114.6,23.3-112.1c-0.8,0.7-4.2,5.8-7.3,11.9
			c-34.6,63.9-113.3,175.3-162,229.8l-13.6,15.2l1.3,20.6c3.4,51.1,8.6,100.2,10.7,99.5C4849.2,10383,4858,10373.1,4867.6,10361.7z
			 M5366.4,10364c104.7-10.3,119.6-12.3,126.8-17.7c13-9.9,26.7-42.1,31.5-74.2c5.2-33.6,3.1-64.8-10.5-157.8
			c-8.6-58.1-8.8-60.3-5-63.2c2.1-1.8,3.6-3.4,2.9-3.8c-0.4-0.4-22.2-4.5-48.3-9.2c-26-4.5-49.3-8.7-51.6-9.4c-3.4-0.9-4.8,0-6.1,4
			c-0.8,2.7-1.7,31.4-1.9,63.4c-0.4,51.1-1,60.8-5,78.5c-16.4,73.3-45.5,128.7-93.2,177.8c-14.7,15-17.2,18.4-13.4,18.4
			C5295.3,10370.7,5328.5,10367.5,5366.4,10364z M5550.5,10342.9c44.5-6.1,43.2-5.4,68-33c24.1-27.1,43.6-59.2,57.7-94.8
			c10.7-27.4,16.2-51.1,19.7-85.4c1.9-19.3,4.2-31.2,7.1-37.2l4.4-8.7l-4.8-0.9c-2.5-0.7-9.2-2.2-15.1-3.4
			c-22.7-4.9-154-29.4-158.2-29.4c-0.8,0-3.1,1.3-5,2.9c-3.4,2.5-2.9,7.2,6.1,69.9c6.5,45.5,10.1,77.6,10.7,98.9
			c1,28.9,0.6,33.6-4.4,54.5c-5.9,24.2-15.1,48.2-22.9,59.4c-7.6,10.5-8.4,12.6-5.2,12.6
			C5510,10348.3,5528.9,10345.8,5550.5,10342.9z M6217.2,10341.1c-5.7-21.1,0.2-58.7,11.8-74.7c2.9-4.3,5.2-7.8,4.8-8.1
			c-0.4,0-14.3-2.5-31.1-5.4l-30.4-5.2l-4.6,5.6c-5.9,7.8-9.9,23.3-8.2,33c1.3,6.5,6.3,12.8,29.2,34.8
			c15.3,14.8,28.3,27.1,29.2,27.1S6218.2,10344.9,6217.2,10341.1z M5643.9,10329.2c39.2-6.5,85.8-15,117.1-21.5
			c19.5-4,21.6-5.2,32.5-15.2c23.5-22,42.2-54.3,53.3-91.7c5.9-19.7,10.5-54,9.2-68.8c-0.6-8.7-1-9.2-12.2-13
			c-15.1-5.2-72.2-20.6-102.4-27.6c-19.3-4.5-24.6-4.9-26-2.7c-1.9,3.4-2.7,8.7-5.7,37.7c-7.1,69.5-40.9,141-90.9,193.5
			c-8,8.3-13.4,15-12.2,15S5624.8,10332.3,5643.9,10329.2z M6108.3,10309.9c8-3.4,16.6-4.7,27.9-4.9c8.8,0,16.2-0.7,16.2-1.3
			c0-0.4-12.6-14.3-27.7-30.9c-22.7-24.4-28.1-29.1-29.4-26c-2.7,7.8-1.9,67.9,1.3,67.9C6096.5,10314.6,6102,10312.4,6108.3,10309.9
			z M6017.6,10280.3c5.7-6.5,8.4-25.6,4-27.6c-1.7-0.7-12.6,2-24.1,5.8l-21,7l6.1,11.7c3.6,7,6.1,15,6.1,20.2v8.5l12.4-10.3
			C6007.8,10290,6015.3,10283,6017.6,10280.3z M6077.4,10247.6c-0.6-0.9-33.8,29.6-34,31.4c-0.2,0.7,4.4,3.6,10.1,6.3
			c5.7,2.9,12.8,7.6,16.2,10.3l6.1,5.2l1-26C6077.4,10260.1,6077.6,10248,6077.4,10247.6z M5871.1,10281.9
			c78.1-19.7,83.9-22,92.8-32.3c4.2-5.2,9.9-15,12.2-22c6.1-17,10.1-46.6,7.1-51.6c-2.7-4.5-32.1-18.4-71.8-33.9
			c-30.8-11.9-35-13-37.1-9.2c-0.6,1.1-2.1,13.5-3.1,27.4c-1,13.9-4,33-6.3,42.1c-5.7,21.5-22.5,58.5-33.8,74.2
			c-4.8,6.7-9.9,13.5-11.1,15.2C5817.2,10295.6,5816.8,10295.8,5871.1,10281.9z M6150.5,10244.9c-0.6-0.9-8.8-2.7-18-4
			c-9.2-1.6-18.7-3.4-21-4c-2.3-0.7,3.6,7.2,13.6,18.2l17.6,19.3l4.6-14.1C6149.6,10252.5,6151.1,10245.6,6150.5,10244.9z
			 M6368.7,10240.4c-13.2-28.2-25.4-63-35.9-102.9c-9.2-34.5-10.9-68.6-4.6-88.6c2.3-7.4,4-13.7,3.8-13.9
			c-1.3-1.3-64.6,49.5-67.4,54c-5.2,8.5-13.4,43.7-15.9,68.2c-2.9,27.6-0.6,52.7,7.3,76.9c4.6,14.1,4.6,14.3,13.9,16.1
			c11.5,2.2,110,16.8,110.6,16.4C6380.7,10266.4,6375.4,10254.5,6368.7,10240.4z M6063.4,10236.8c-0.2-0.4-6.5,1.6-13.6,4
			c-11.5,4.3-13,5.4-12,9.6c0.6,2.5,1.3,6.1,1.3,7.6s5.7-2.2,12.6-8.7C6058.5,10242.9,6063.8,10237.3,6063.4,10236.8z
			 M6031.5,10233.7c30.8-10.5,33.2-11.9,29.4-14.8c-5.9-4.7-29-19.1-46-28.2l-14.7-8.3l-2.3,20.9c-1.5,11.2-4.6,26.2-6.9,33
			c-2.5,6.7-4.4,12.6-4.4,12.8s2.5-0.4,5.9-1.6C5995.6,10246.2,6013.2,10240.2,6031.5,10233.7z M6239.9,10234.6
			c-0.6-6.1-2.7-18.4-4.6-27.6c-4.6-21.3-3.1-58.5,2.9-83.9c2.5-9.9,4.4-18.2,4.4-18.6c0-0.2-15.3,11.4-34,26.5
			c-18.9,14.8-34,28-33.6,29.4c0.4,1.3-1.3,7.4-3.8,13.5c-8,19.7-5,55.6,5,60.3c4.4,2,50.4,10.3,59.8,10.8
			C6240.7,10245.1,6240.9,10244.7,6239.9,10234.6z M4865.1,10202.3c49.9-61.2,97.4-132.3,144.6-215.9c12.2-21.7,22.7-40.8,23.3-42.6
			c0.8-2.2-2.3-4.3-11.1-7c-6.7-2-22.9-7.4-36.1-11.7l-24.1-8.1l-3.1,5.2c-9.2,14.8-48.9,68.4-82.3,111.2
			c-20.4,26.2-39.2,50.7-41.6,54c-4.2,6.1-4.2,7.8-2.3,76.9c1,38.8,2.1,71.7,2.1,72.9c0,1.3,2.7-0.9,5.9-4.7
			C4843.5,10228.8,4854.6,10215.1,4865.1,10202.3z M6153.2,10223.4c-0.8-4.7-1.7-17.3-1.9-28v-19.5l-6.3,5.2
			c-3.4,2.7-14.5,11.4-24.6,19.3c-10.3,8.1-18.5,15.9-18.5,18.2c0,2.9,4.8,4.5,24.8,8.1c13.4,2.7,25.4,4.7,26.4,4.9
			C6154.2,10231.5,6154.2,10228.1,6153.2,10223.4z M6049.7,10183.7l-19.7-21.3l-5.2,4.5c-2.9,2.2-6.5,4.3-8,4.3
			c-6.1,0-2.5,3.6,9.9,10.1c7.1,3.8,18.7,10.5,25.8,15c6.9,4.7,13.6,8.3,14.9,8.5C6068.4,10204.8,6060.4,10195.4,6049.7,10183.7z
			 M6104.1,10167.6c5.7-19.1,10.5-35.9,10.5-37c0-1.3-2.5-1.8-5.9-0.9c-3.1,0.7-10.3,1.3-15.7,1.6c-5.7,0-9.9,1.1-9.9,2.7
			c-0.2,8.7,7.3,68.6,8.8,68.6C6092.8,10202.5,6098.2,10186.8,6104.1,10167.6z M6070.1,10171.6c-1.3-12.6-3.1-22.9-4-22.9
			c-0.8,0-4.2,1.6-7.3,3.4c-3.4,1.8-9,3.4-12.6,3.4c-3.6,0-7.1,0.7-8,1.6c-0.6,0.9,6.3,9.9,15.9,20.2c9.4,10.1,17.4,18.2,17.8,17.7
			C6072.4,10194.7,6071.6,10183.9,6070.1,10171.6z M6142.9,10163.3c6.1-5.4,6.1-5.6,2.1-8.3c-2.3-1.3-7.3-6.1-11.3-10.1
			c-3.8-4.3-7.1-7.2-7.3-7c-1,2.2-13.9,46-13.9,47.5C6112.5,10187.3,6132.2,10172.9,6142.9,10163.3z M6008.6,10158.8
			c2.9-2.9,5.2-7.2,5.2-9.4c0-4.5-58.3-67.9-62.3-67.9c-1.3,0-4.4,3.4-6.7,7.4c-5,9-18,20.2-32.5,28.7l-10.5,6.3l6.1,2.5
			c3.6,1.3,15.3,6.1,26.2,10.5c10.9,4.5,29,12.3,39.9,17.5C5997.5,10165.8,6001.9,10166.2,6008.6,10158.8z M6201.9,10117.3
			c20.8-16.4,38.8-30.7,40.3-32.3c2.1-2.2-0.2-4-12.2-9c-19.9-8.3-44.5-26-59.2-42.1l-12-13.2l-4.2,15.2
			c-17.8,65-21.2,79.6-19.9,85.2c2.5,10.8,8.8,22.4,14.9,27.1C6156.5,10153.9,6151.5,10156.8,6201.9,10117.3z M6049.9,10139.3
			c14.3-8.5,14.9-11.2,10.1-40.6c-2.3-14.1-6.1-35.6-8.4-47.5c-2.3-12.1-4.2-22.4-4.2-23.1c0-0.7-5.5,4.5-12,11.2
			c-6.7,6.7-16.2,14.8-21,18.2c-10.9,7.4-31.9,15-41.3,15c-16.6,0-15.9,0.9,19.1,38.6l33.2,35.6l8.2-1.3
			C6038.2,10144.7,6045.5,10141.8,6049.9,10139.3z M6100.1,10119.1c4-1.3,10.5-4.9,14.7-7.8c7.1-4.9,7.8-6.7,17.6-43.9
			c5.5-21.1,10.5-39.9,11.1-41.3c0.6-2.2-2.7-2.7-14.5-1.6c-13.2,1.1-19.3,0.2-40.5-5.6c-13.6-3.8-25.4-6.5-26-6.1
			c-0.4,0.7,1.9,16.6,5.5,35.4c3.6,18.8,7.6,40.8,8.8,48.9c3.8,24.9,3.8,24.7,10.3,24.7
			C6090.2,10121.8,6096.1,10120.7,6100.1,10119.1z M5891.7,10110.6c14.3-7,26.7-17.5,36.7-31.4l9.4-12.8l-29.8-31.4
			c-16.2-17-41.1-43-55.4-57.6l-25.8-26.7l-6.9,16.8c-10.9,26.9-29.2,54.7-51.4,78c-11.1,11.9-23.3,22.9-26.9,24.4
			c-3.8,1.6-6.9,3.6-6.9,4.5c0,0.9,17.2,5.8,38.4,11c21,5.2,52.5,13.9,69.7,19.3c17.4,5.4,33.4,10.1,35.7,10.1
			C5880.8,10114.9,5886.7,10113.1,5891.7,10110.6z M6283.5,10053.2c15.1-11.9,35.7-28,45.7-36.1l18.7-14.6l-19.7-9.4
			c-42.2-20.4-79.7-48.4-113.7-85.2c-19.7-21.1-23.3-24-24.6-20.2c-0.8,2.2-7.1,29.6-14.3,60.3l-12.6,56l7.6,11.9
			c4.2,6.5,13.2,17.3,19.9,24c16.4,15.7,49.1,34.1,61.5,34.5C6254.3,10074.5,6268.6,10065.1,6283.5,10053.2z M5734.5,10065.3
			c14.5-8.7,40.5-36.1,52.5-55.4c10.1-15.9,26.9-52.2,28.8-62.1c1.3-6.7-6.3-14.8-89.6-96.9l-9.9-9.6l-6.7,7.2
			c-3.6,4-12,18.4-18.3,32.3c-26.7,57.6-73.7,112.8-125.3,146.8c-14.5,9.6-15.9,11.2-11.5,12.1c2.7,0.7,29.2,5.8,58.5,11.4
			c29.4,5.4,64.4,12.6,77.6,15.5c13.2,2.9,25.8,5.4,28.1,5.6C5720.9,10072.5,5728,10069.4,5734.5,10065.3z M4869.1,10017.3
			c19.7-25.3,36.1-47.1,36.5-48.4c0.4-1.3-10.9,8.1-25.2,20.8c-14.5,12.8-30.8,27.4-36.9,32.3l-10.7,9l-0.8,16.4
			c-0.2,8.7-0.2,16.1,0.4,16.1C4833,10063.5,4849.6,10042.7,4869.1,10017.3z M5978.2,10054.1c22-5.8,40.1-19.5,55.8-42.4l7.6-11.2
			l-7.8-34.1c-9-38.6-25.2-99.8-26.9-101.6c-1.9-2-21.6,9.4-39,22.4c-29.4,22-70.9,46.4-91.5,54c-5.7,2-16.8,4.9-24.6,6.3l-14.3,2.7
			l54.1,55.4l53.9,55.4l8.4-1.3C5958.7,10059,5969.6,10056.6,5978.2,10054.1z M5554.3,10025.4c56.7-36.3,98.2-84.5,127-147.1
			c7.6-16.4,16.6-32.7,20.1-37l6.3-7.2l-6.9-7.4c-3.8-4-23.5-23.1-43.6-42.1c-42-39.7-38.4-39-51.4-12.3
			c-31.5,63.9-99.9,153.8-159.7,209.9c-16.6,15.5-30.2,29.1-30.2,30c0,1.1,2.1,2.5,4.8,3.1c6.3,1.8,108.7,20.9,112.9,21.1
			C5535.4,10036.6,5544.6,10031.5,5554.3,10025.4z M6134.5,10008.6c15.1-7.2,15.3-8.1,28.5-65.2c6.7-29.4,12.8-57.4,13.4-61.9
			l1.5-8.3l-10.3-1.6c-7.1-1.1-17.2,0-34.8,3.6c-29.4,6.1-36.7,5.4-76.6-5.8c-15.3-4.3-28.8-7.6-29.6-7.2s1.9,14.3,6.3,30.9
			c4.4,16.6,12,47.5,17,68.8l8.8,38.3l19.1,5.8c10.3,3.1,21.8,6.1,25.2,6.5C6111.8,10014.2,6127.2,10012.2,6134.5,10008.6z
			 M5433.2,9974.1c46-45.3,73.9-76,95.7-105.6c20.6-27.8,52-77.6,68-108.1l11.5-21.7l-30.6-29.8c-17-16.4-41.6-40.8-54.6-54.3
			c-13-13.5-23.9-24-24.3-23.5c-1,1.1-9.2,30-22.2,79.4c-10.9,40.6-24.1,80-34.6,102.2c-28.8,61-77.9,107.6-157.8,150
			c-17.4,9.2-31.9,17.5-31.9,18.2c-0.2,1.8,128,28.2,138.9,28.7C5396,10009.7,5403.8,10003.2,5433.2,9974.1z M6415.1,9950.1
			c29.2-23.1,55.2-43.5,57.7-45.7c4.4-3.6,3.4-4-38-17.7c-73.2-24.2-115-44.4-150.7-72.4c-23.3-18.2-49.5-47.3-57.3-63
			c-3.6-7-6.9-12.8-7.6-12.8c-0.6,0-3.4,12.3-5.9,27.6c-2.5,15-7.8,42.6-11.5,61.2l-6.7,34.1l11.3,13c36.7,42.4,49.5,54.5,83.3,78.2
			c15.5,11,66.5,39.2,70.7,39.2C6361.2,9991.8,6385.7,9973,6415.1,9950.1z M5274.3,9957.3c121.7-64.8,155.9-112.5,193.9-269
			c4.6-19.7,10.9-41.9,13.9-49.3c2.9-7.6,5.9-15.2,6.5-17.3c0.6-2.5-11.5-16.6-38.4-44.2c-21.6-22.4-40.3-40.8-41.6-40.8
			c-5.2,0-13.4,17-25.6,52.7c-23.3,68.4-64.6,135.2-115.6,187.2c-46.4,47.5-92.1,81.8-168.5,126.7c-22,13-40.7,29.1-35.7,31.2
			c10.7,4.3,159.3,42.6,170.2,43.7C5234,9978.3,5252.5,9968.9,5274.3,9957.3z M5874.5,9933.3c21.2-7,33.8-14.3,76.8-45.3
			c21.2-15,41.8-28.9,45.3-30.5c7.6-3.4,8-6.3,3.8-20.6c-1.7-5.4-11.8-39.7-22.5-76c-10.5-36.3-20.1-67-21-68.2
			c-1-1.3-13.2,10.1-28.5,26.9c-49.1,53.1-103.5,87.4-171.4,108.3c-15.9,4.9-29.4,9.4-29.8,9.9c-1,0.9,9.2,11.7,41.1,43
			c7.6,7.6,23.5,23.5,35.3,35.4l21.8,21.7h17.4C5854.6,9938,5864.9,9936.4,5874.5,9933.3z M5054.8,9917.1
			c6.5-6.5,23.3-18.8,36.9-27.4c89.8-55.4,128.6-85.9,175-137c34.4-38.1,60.4-76.5,80.6-119.3c8.8-18.6,20.8-50,19.5-51.1
			c-0.4-0.7-4.4,5.4-8.8,13c-20.1,35.2-54.4,78.9-92.8,118.6c-38.2,39.5-75.8,64.6-244.3,163c-21.4,12.6-40.7,24.2-42.8,26
			c-3.8,2.9-1.5,4,24.1,12.6c15.5,5.2,30.6,10.1,33.6,11.2c2.9,1.1,5.7,2,6.1,2C5042.4,9929,5048.1,9923.6,5054.8,9917.1z
			 M6149.2,9861.7c11.3-3.6,23.1-6.7,26.4-6.7c7.6,0,6.3,5.2,30.4-128.2c1-5.2,0.2-6.7-4.4-9c-4.4-2-10.3-1.6-31.3,2.2
			c-57.3,10.8-126.5,3.4-174.4-19.1c-9.9-4.5-18.3-7.6-18.9-7.2c-0.4,0.7,5.5,22.9,13.4,49.3c7.8,26.5,17.8,60.8,22.2,76.2l8,28
			l16.6,2.7c9,1.3,23.3,4.7,31.5,7.4C6109.1,9870.3,6121.5,9870.9,6149.2,9861.7z M5801.7,9802.3c51-22.9,93.8-55.4,132.8-100.4
			l19.1-22.2l-15.9-52.9c-8.8-29.1-18-59.9-20.4-68.2c-2.5-8.5-5.2-15.2-6.1-15.2c-1,0-8.8,9.9-17.2,22
			c-59,83.8-152.1,151.3-242.6,175.5c-10.7,2.9-19.5,6.1-19.5,7c0,0.9,18.9,19.5,42.2,41.5l42.2,40.1l31.1-8.3
			C5764.3,9816.5,5788.9,9808.2,5801.7,9802.3z M5679.1,9716c41.1-15.2,92.5-45.7,127.8-75.8c31.9-27.4,65.5-65.5,85.4-97.3
			c4.8-7.8,10.1-15.2,12-16.8c2.7-2.5,1.9-7-6.5-38.1c-5.5-19.5-12.2-45.1-15.1-56.7c-2.9-11.7-5.9-23.1-6.5-25.1
			c-0.8-3.1-3.4-1.1-11.1,9c-32.7,42.1-83.3,76.2-160.7,108.7c-16.2,6.7-56.2,22-89.2,34.1c-66.9,24.2-83.9,32.7-100.7,50
			l-11.3,11.7l20.8,22.6c11.5,12.6,36.7,37.9,55.8,56.7l35,34.3l22.7-5.2C5650,9725.4,5668.8,9720.1,5679.1,9716z M6179,9710.2
			c34.4-5.4,29.8,2.5,41.3-70.6c7.8-50.2,9.2-63.7,7.1-65c-5.9-4-22-4.7-49.5-2.2c-75.3,6.5-150.7,0.9-220.3-16.8
			c-12-2.9-22.7-5.4-23.5-5.4c-1,0,0.4,7.4,3.1,16.4c2.7,8.7,11.3,37.2,18.9,62.8c9.7,32.7,14.9,47.1,17.4,48
			c1.9,0.7,12.4,5.2,23.3,10.1c22.9,10.3,50.4,18.4,76.8,22.9C6099.9,9714.4,6152.1,9714.7,6179,9710.2z M5504.1,9602.6
			c15.5-17,42-29.8,138.3-65.9c79.1-29.6,123-50.7,157.4-75.3c19.7-13.9,50.2-44.8,62.1-62.8l9.2-13.7l-10.9-47.5l-10.7-47.5
			l-5.5,1.3c-7.6,2-17.4,9.2-50.6,36.5c-91.7,76-200.4,136.1-320,176.4c-38,13-58.5,22.2-57.3,25.6c0.8,2.5,77.9,80.7,79.5,80.7
			C5496.3,9610.6,5500.1,9607.1,5504.1,9602.6z M6160.7,9555.7c15.5-2,38.2-3.4,50.4-3.1c12,0.2,22-0.4,22.5-1.6
			c0.2-1.1,3.4-24.2,6.9-51.3s6.9-52,7.6-55.4c1-5.6,0.6-6.1-8.6-7.6c-5.9-0.9-23.9,0.4-46.8,3.4c-60,7.6-81.2,9.2-120.5,9.2
			c-67.4,0-120-11.4-165.6-36.1c-10.7-5.6-12.6-6.1-11.5-2.7c0.6,2.2,5,18.6,9.4,36.5c4.6,17.9,11.5,43.5,15.3,56.9l6.9,24.4
			l13.6,4.3c33.4,10.1,100.5,22.2,139.6,24.9C6106.8,9559.5,6134.7,9558.9,6160.7,9555.7z M5464,9491.8
			c39-11.2,105.6-39.5,151.1-63.9c62.1-33.2,116.3-70.8,195.2-135.2c6.3-5.2,17-11.7,23.7-14.3c6.5-2.5,12-5.2,12-5.6
			c0-0.7-3.4-18.6-7.3-40.1c-6.7-35.9-19.5-115.2-23.5-147.7l-1.9-13.5l-8.8,17.9c-11.8,23.8-40.1,65.7-68.4,101.3
			c-48.3,60.3-217.2,234.5-294,302.9c-4.8,4.3-6.5,7-4.2,6.1C5440.1,9499,5451.9,9495.4,5464,9491.8z M6137.7,9433.3
			c63.6-8.1,91.3-11,102-11h10.7l1.3-8.3c4.2-28.2,18.5-152.5,17.8-156.5l-0.6-5.2l-16.8,5.4c-37.8,11.9-76.8,23.1-96.5,27.6
			c-70.5,15.5-155.1,17.5-237.1,5.6c-12.6-1.8-29.6-3.8-37.6-4.7c-14.5-1.3-14.5-1.3-13.4,4c0.6,2.9,5.7,25.3,11.1,49.8l10.1,44.4
			l13.9,8.5c40.7,25.3,95.7,42.6,145,45.7C6066.5,9440,6100.9,9437.8,6137.7,9433.3z M6056.9,9285.6c56-4.3,111-15,159.9-31.6
			c14.3-4.9,32.9-10.8,41.1-13l15.1-3.8l1.5-13.5c0.8-7.2,6.3-56,12.2-108.3c5.9-52.2,10.3-95.3,9.7-96c-0.6-0.7-15.9,7.2-34.2,17.5
			c-54.8,30.7-82.3,45.3-105.6,56.3c-59.6,27.8-119,47.1-168.9,54.7c-43.4,6.7-107.7,4.5-142.9-4.9c-5.2-1.6-5.9-6.1,8.8,75.8
			l9.7,53.1l9.9,1.3c5.2,0.7,18.3,2.7,28.5,4.5C5958,9287.1,6003.1,9289.4,6056.9,9285.6z M5948,9139.8
			c85-7.4,173.1-40.1,289.4-107.4c23.1-13.5,46.4-26,52-28.2c6.7-2.7,10.3-5.6,10.9-8.7c0.4-2.7,3.4-26.5,6.3-52.9
			c3.1-26.5,8.4-69.7,11.8-96c3.4-26.2,6.1-49.3,6.1-51.1c0-2-7.8,7.4-17,20.9c-107.4,152.7-260,263.2-426.4,308.9
			c-14.7,4-27.3,7.8-27.9,8.5c-0.6,0.4,6.7,2.2,16.4,3.6c15.7,2.2,23.5,2.9,44.9,4.3C5917.9,9141.8,5933.1,9140.9,5948,9139.8z
			 M5878.5,9111.6c94-24.9,184.5-71.1,264.4-135.4c39.7-31.8,61.3-52.7,100.9-97.1c39.7-44.2,91.3-118.6,86.2-124
			c-0.4-0.7-10.3,8.3-21.6,19.7c-138.3,137.2-282.5,220.8-442.2,256c-15.5,3.6-26.7,7.4-31.3,10.8c-3.8,2.7-7.1,5.2-7.3,5.2
			c-0.6,0.2,7.3,63.2,8.8,70.2C5837.8,9122.8,5834.2,9123.2,5878.5,9111.6z M5910.2,9007.3c145.8-42.6,291.5-135.9,402.9-258.1
			l21.2-23.1l13.2-86.3c14.3-94.4,35.9-211.9,52.3-286.8c5.9-26.5,10.5-48.4,10.1-48.7c-0.2-0.2-6.9,12.1-14.9,27.8
			c-104.7,205.8-162.8,305.6-243.4,417.5c-60.9,84.5-92.1,123.1-126.1,155.4c-25.6,24.2-48.7,41.3-109.1,79.8
			c-25.4,16.4-47,30.7-48.3,32.1C5865.3,9019.9,5873,9018.1,5910.2,9007.3z M6415.1,8590.5c14.9-26.5,38.8-73.3,53.3-104l26-55.6
			l-5.5-9.4c-16.6-28.7-40.1-84.3-51.2-121.3c-2.5-8.5-5.2-16.6-5.9-17.9c-3.6-6.5-42.8,185.6-61.5,300.7
			c-9,56-16.6,105.8-16.6,109.6C6353.8,8695.9,6384.9,8644.3,6415.1,8590.5z"/>
	</g>
</g>
</svg>
