<svg clip-rule="evenodd" fill-rule="evenodd" height="512" stroke-linejoin="round" stroke-miterlimit="2" viewBox="0 0 48 48" width="512" xmlns="http://www.w3.org/2000/svg" xmlns:xlink="http://www.w3.org/1999/xlink"><linearGradient id="_Linear1" gradientTransform="matrix(34 -23 23 34 618 443)" gradientUnits="userSpaceOnUse" x1="0" x2="1" y1="0" y2="0"><stop offset="0" stop-color="#0056e0"/><stop offset=".01" stop-color="#0056e0"/><stop offset="1" stop-color="#00e5b8"/></linearGradient><g transform="translate(-212 -318)"><g transform="translate(-400 -90)"><g id="ngicon"><path d="m653.5 417v32.5h-32.5c-.828 0-1.5.672-1.5 1.5s.672 1.5 1.5 1.5h34c.828 0 1.5-.672 1.5-1.5v-34c0-.828-.672-1.5-1.5-1.5s-1.5.672-1.5 1.5zm-3-2c0-.928-.369-1.818-1.025-2.475-.657-.656-1.547-1.025-2.475-1.025h-28c-.928 0-1.818.369-2.475 1.025-.656.657-1.025 1.547-1.025 2.475v28c0 .928.369 1.818 1.025 2.475.657.656 1.547 1.025 2.475 1.025h28c.928 0 1.818-.369 2.475-1.025.656-.657 1.025-1.547 1.025-2.475zm-19 12.5h-4.5c-.828 0-1.5.672-1.5 1.5s.672 1.5 1.5 1.5h4.5v4.5c0 .828.672 1.5 1.5 1.5s1.5-.672 1.5-1.5v-4.5h4.5c.828 0 1.5-.672 1.5-1.5s-.672-1.5-1.5-1.5h-4.5v-4.5c0-.828-.672-1.5-1.5-1.5s-1.5.672-1.5 1.5z" fill="url(#_Linear1)"/></g></g></g></svg>