<?xml version="1.0" encoding="iso-8859-1"?>
<!-- Generator: Adobe Illustrator 19.0.0, SVG Export Plug-In . SVG Version: 6.00 Build 0)  -->
<svg version="1.1" id="Layer_1" xmlns="http://www.w3.org/2000/svg" x="0px" y="0px"
     viewBox="0 0 511.998 511.998" style="enable-background:new 0 0 511.998 511.998;" xml:space="preserve">
<g>
	<g>
		<path d="M482.285,72.338c-39.618-39.619-104.084-39.619-143.702,0L99.081,311.84c-11.516,11.515-17.858,26.826-17.859,43.111
			c0,16.286,6.342,31.596,17.858,43.112c23.771,23.771,62.451,23.771,86.222-0.001L376.903,206.46l-28.74-28.74L156.561,369.32
			c-7.923,7.923-20.816,7.926-28.741,0c-3.838-3.838-5.953-8.942-5.953-14.369c0-5.429,2.115-10.531,5.954-14.371l239.502-239.502
			c23.773-23.771,62.45-23.771,86.223,0c23.771,23.771,23.771,62.45,0,86.222L214.041,426.802
			c-39.618,39.617-104.081,39.619-143.702,0c-39.618-39.619-39.618-104.084,0-143.702L309.843,43.596l-28.74-28.74L41.599,254.36
			c-55.466,55.466-55.466,145.717,0,201.183c27.733,27.732,64.162,41.599,100.592,41.599c36.429,0,72.858-13.867,100.59-41.6
			l239.504-239.504C521.903,176.42,521.903,111.956,482.285,72.338z"/>
	</g>
</g>
<g>
</g>
<g>
</g>
<g>
</g>
<g>
</g>
<g>
</g>
<g>
</g>
<g>
</g>
<g>
</g>
<g>
</g>
<g>
</g>
<g>
</g>
<g>
</g>
<g>
</g>
<g>
</g>
<g>
</g>
</svg>
