<svg id="Capa_1" enable-background="new 0 0 512 512" height="512" viewBox="0 0 512 512" width="512" xmlns="http://www.w3.org/2000/svg"><g><path d="m224 64 32 16-32 16h-32v-32z" fill="#4db5ff"/><path d="m224 128 32 16-32 16h-96v-32z" fill="#4db5ff"/><path d="m512 224c0 88.32-71.68 160-160 160h-192v64l-160-112 160-112v64h192c35.199 0 64-28.801 64-64 0-17.6-7.039-33.6-18.881-45.121-11.519-11.84-27.519-18.879-45.119-18.879h-64l-64-32v-32l64-32h64c88.32 0 160 71.68 160 160z" fill="#80eaff"/><g fill="#37f"><path d="m224 64h64v32h-64z"/><path d="m224 128h64v32h-64z"/></g></g></svg>