<svg id="Capa_1" enable-background="new 0 0 512 512" height="512" viewBox="0 0 512 512" width="512" xmlns="http://www.w3.org/2000/svg"><path d="m303.392 61.393c-31.795-19.61-69.472-30.393-108.392-30.393-105.946 0-195 78.933-195 180 0 35.435 11.008 69.404 31.918 98.741l-29.21 91.706c-3.086 9.687 4.17 19.553 14.295 19.553 2.315 0 4.645-.535 6.795-1.629l88.832-45.167c3.597 1.549 7.239 2.99 10.918 4.328-20.567-32.102-31.548-68.952-31.548-107.532 0-114.897 96.678-203.228 211.392-209.607z"/><path d="m480.082 369.741c20.91-29.337 31.918-63.306 31.918-98.741 0-101.104-89.092-180-195-180-105.946 0-195 78.933-195 180 0 101.104 89.092 180 195 180 28.417 0 56.732-5.791 82.365-16.798l88.837 45.169c5.391 2.741 11.903 1.976 16.512-1.941s6.415-10.219 4.579-15.982zm-224.082-83.741c-8.284 0-15-6.716-15-15s6.716-15 15-15 15 6.716 15 15-6.716 15-15 15zm60 0c-8.284 0-15-6.716-15-15s6.716-15 15-15 15 6.716 15 15-6.716 15-15 15zm60 0c-8.284 0-15-6.716-15-15s6.716-15 15-15 15 6.716 15 15-6.716 15-15 15z"/></svg>