<?xml version="1.0" encoding="utf-8"?>
<!-- Generator: Adobe Illustrator 25.4.1, SVG Export Plug-In . SVG Version: 6.00 Build 0)  -->
<svg version="1.1" id="Calque_1" xmlns="http://www.w3.org/2000/svg" x="0px" y="0px"
     viewBox="0 0 100 100" style="enable-background:new 0 0 100 100;" xml:space="preserve">
<style type="text/css">
	.st0{fill:#627BDF;}
</style>
<path id="chalkboard-teacher-solid" class="st0" d="M32.5,64.7c-0.4,0-0.8,0.1-1.1,0.2C29.3,65.6,27.2,66,25,66s-4.3-0.4-6.4-1.1
	c-0.4-0.1-0.7-0.2-1.1-0.2C7.8,64.7,0,72.6,0,82.2v0.1c0.1,4.1,3.4,7.4,7.5,7.4h35c4.1,0,7.4-3.3,7.5-7.4
	C50,72.6,42.3,64.8,32.5,64.7C32.6,64.7,32.5,64.7,32.5,64.7z M25,59.7c8.3,0,15-6.7,15-15s-6.7-15-15-15s-15,6.7-15,15l0,0
	C10,53,16.7,59.7,25,59.7L25,59.7z M92.5,9.7h-60c-4.2,0.1-7.6,3.5-7.5,7.7v7.2c3.5,0,7,1,10,2.8v-7.8h55v45H80v-10H60v10H48.1
	c3,2.6,5.2,6.1,6.2,10h38.2c4.2-0.1,7.6-3.5,7.5-7.7V17.4C100.1,13.2,96.7,9.8,92.5,9.7z"/>
</svg>
