<?xml version="1.0" encoding="utf-8"?>
<!-- Generator: Adobe Illustrator 25.4.1, SVG Export Plug-In . SVG Version: 6.00 Build 0)  -->
<svg version="1.1" id="Calque_1" xmlns="http://www.w3.org/2000/svg" xmlns:xlink="http://www.w3.org/1999/xlink" x="0px" y="0px"
	 viewBox="0 0 100 100" style="enable-background:new 0 0 100 100;" xml:space="preserve">
<style type="text/css">
	.st0{fill-rule:evenodd;clip-rule:evenodd;fill:#FFFFFF;}
</style>
<path id="Fill-1" class="st0" d="M35,46c0,0.7-0.5,1.2-1.2,1.2c-0.7,0-1.2-0.5-1.2-1.2c0-0.7,0.5-1.2,1.2-1.2c0,0,0,0,0,0
	C34.5,44.8,35,45.4,35,46C35,46,35,46,35,46"/>
<path id="Fill-3" class="st0" d="M43.1,46c0,0.7-0.5,1.2-1.2,1.2c-0.7,0-1.2-0.5-1.2-1.2c0-0.7,0.5-1.2,1.2-1.2c0,0,0,0,0,0
	C42.6,44.8,43.1,45.4,43.1,46C43.1,46,43.1,46,43.1,46"/>
<path id="Fill-5" class="st0" d="M51.3,46c0,0.7-0.5,1.2-1.2,1.2c-0.7,0-1.2-0.5-1.2-1.2c0-0.7,0.5-1.2,1.2-1.2c0,0,0,0,0,0
	C50.7,44.8,51.3,45.4,51.3,46C51.3,46,51.3,46,51.3,46"/>
<path id="Fill-7" class="st0" d="M59.4,46c0,0.7-0.5,1.2-1.2,1.2c-0.7,0-1.2-0.5-1.2-1.2c0-0.7,0.5-1.2,1.2-1.2c0,0,0,0,0,0
	C58.8,44.8,59.4,45.4,59.4,46"/>
<path id="Fill-9" class="st0" d="M67.5,46c0,0.7-0.5,1.2-1.2,1.2c-0.7,0-1.2-0.5-1.2-1.2c0-0.7,0.5-1.2,1.2-1.2c0,0,0,0,0,0
	C67,44.8,67.5,45.4,67.5,46C67.5,46,67.5,46,67.5,46"/>
<path id="Fill-11" class="st0" d="M75.6,46c0,0.7-0.5,1.2-1.2,1.2c-0.7,0-1.2-0.5-1.2-1.2c0-0.7,0.5-1.2,1.2-1.2c0,0,0,0,0,0
	C75.1,44.8,75.6,45.4,75.6,46C75.6,46,75.6,46,75.6,46"/>
<path id="Fill-13" class="st0" d="M83.8,46c0,0.7-0.5,1.2-1.2,1.2c-0.7,0-1.2-0.5-1.2-1.2c0-0.7,0.5-1.2,1.2-1.2c0,0,0,0,0,0
	C83.2,44.8,83.8,45.4,83.8,46C83.8,46,83.8,46,83.8,46"/>
<path id="Fill-15" class="st0" d="M91.9,46c0,0.7-0.5,1.2-1.2,1.2c-0.7,0-1.2-0.5-1.2-1.2c0-0.7,0.5-1.2,1.2-1.2c0,0,0,0,0,0
	C91.3,44.8,91.9,45.4,91.9,46C91.9,46,91.9,46,91.9,46"/>
<path id="Fill-17" class="st0" d="M100,46c0,0.7-0.5,1.2-1.2,1.2c-0.7,0-1.2-0.5-1.2-1.2c0-0.7,0.5-1.2,1.2-1.2c0,0,0,0,0,0
	C99.5,44.8,100,45.4,100,46C100,46,100,46,100,46"/>
<path id="Fill-19" class="st0" d="M35,54.1c0,0.7-0.5,1.2-1.2,1.2c-0.7,0-1.2-0.5-1.2-1.2c0-0.7,0.5-1.2,1.2-1.2c0,0,0,0,0,0
	C34.5,53,35,53.5,35,54.1C35,54.1,35,54.1,35,54.1"/>
<path id="Fill-21" class="st0" d="M43.1,54.1c0,0.7-0.5,1.2-1.2,1.2c-0.7,0-1.2-0.5-1.2-1.2c0-0.7,0.5-1.2,1.2-1.2c0,0,0,0,0,0
	C42.6,53,43.1,53.5,43.1,54.1C43.1,54.1,43.1,54.1,43.1,54.1"/>
<path id="Fill-23" class="st0" d="M51.3,54.1c0,0.7-0.5,1.2-1.2,1.2c-0.7,0-1.2-0.5-1.2-1.2c0-0.7,0.5-1.2,1.2-1.2c0,0,0,0,0,0
	C50.7,53,51.3,53.5,51.3,54.1C51.3,54.1,51.3,54.1,51.3,54.1"/>
<path id="Fill-25" class="st0" d="M59.4,54.1c0,0.7-0.5,1.2-1.2,1.2c-0.7,0-1.2-0.5-1.2-1.2c0-0.7,0.5-1.2,1.2-1.2c0,0,0,0,0,0
	C58.8,53,59.4,53.5,59.4,54.1"/>
<path id="Fill-27" class="st0" d="M67.5,54.1c0,0.7-0.5,1.2-1.2,1.2c-0.7,0-1.2-0.5-1.2-1.2c0-0.7,0.5-1.2,1.2-1.2c0,0,0,0,0,0
	C67,53,67.5,53.5,67.5,54.1C67.5,54.1,67.5,54.1,67.5,54.1"/>
<path id="Fill-29" class="st0" d="M75.6,54.1c0,0.7-0.5,1.2-1.2,1.2c-0.7,0-1.2-0.5-1.2-1.2c0-0.7,0.5-1.2,1.2-1.2c0,0,0,0,0,0
	C75.1,53,75.6,53.5,75.6,54.1C75.6,54.1,75.6,54.1,75.6,54.1"/>
<path id="Fill-31" class="st0" d="M83.8,54.1c0,0.7-0.5,1.2-1.2,1.2c-0.7,0-1.2-0.5-1.2-1.2c0-0.7,0.5-1.2,1.2-1.2c0,0,0,0,0,0
	C83.2,53,83.8,53.5,83.8,54.1C83.8,54.1,83.8,54.1,83.8,54.1"/>
<path id="Fill-33" class="st0" d="M91.9,54.1c0,0.7-0.5,1.2-1.2,1.2c-0.7,0-1.2-0.5-1.2-1.2c0-0.7,0.5-1.2,1.2-1.2c0,0,0,0,0,0
	C91.3,53,91.9,53.5,91.9,54.1C91.9,54.1,91.9,54.1,91.9,54.1"/>
<path id="Fill-35" class="st0" d="M100,54.1c0,0.7-0.5,1.2-1.2,1.2c-0.7,0-1.2-0.5-1.2-1.2c0-0.7,0.5-1.2,1.2-1.2c0,0,0,0,0,0
	C99.5,53,100,53.5,100,54.1C100,54.1,100,54.1,100,54.1"/>
<path id="Fill-37" class="st0" d="M2.5,46c0,0.7-0.5,1.2-1.2,1.2S0.1,46.7,0.1,46c0-0.7,0.5-1.2,1.2-1.2c0,0,0,0,0,0
	C2,44.8,2.5,45.4,2.5,46C2.5,46,2.5,46,2.5,46"/>
<path id="Fill-39" class="st0" d="M10.6,46c0,0.7-0.5,1.2-1.2,1.2c-0.7,0-1.2-0.5-1.2-1.2c0-0.7,0.5-1.2,1.2-1.2c0,0,0,0,0,0
	C10.1,44.8,10.6,45.4,10.6,46C10.6,46,10.6,46,10.6,46"/>
<path id="Fill-41" class="st0" d="M18.8,46c0,0.7-0.5,1.2-1.2,1.2c-0.7,0-1.2-0.5-1.2-1.2c0-0.7,0.5-1.2,1.2-1.2c0,0,0,0,0,0
	C18.2,44.8,18.8,45.4,18.8,46C18.8,46,18.8,46,18.8,46"/>
<path id="Fill-43" class="st0" d="M26.9,46c0,0.7-0.5,1.2-1.2,1.2c-0.7,0-1.2-0.5-1.2-1.2c0-0.7,0.5-1.2,1.2-1.2c0,0,0,0,0,0
	C26.3,44.8,26.9,45.4,26.9,46C26.9,46,26.9,46,26.9,46"/>
<path id="Fill-45" class="st0" d="M35,46c0,0.7-0.5,1.2-1.2,1.2c-0.7,0-1.2-0.5-1.2-1.2c0-0.7,0.5-1.2,1.2-1.2c0,0,0,0,0,0
	C34.5,44.8,35,45.4,35,46C35,46,35,46,35,46"/>
<path id="Fill-47" class="st0" d="M2.5,54.1c0,0.7-0.5,1.2-1.2,1.2s-1.2-0.5-1.2-1.2c0-0.7,0.5-1.2,1.2-1.2c0,0,0,0,0,0
	C2,53,2.5,53.5,2.5,54.1C2.5,54.1,2.5,54.1,2.5,54.1"/>
<path id="Fill-49" class="st0" d="M10.6,54.1c0,0.7-0.5,1.2-1.2,1.2c-0.7,0-1.2-0.5-1.2-1.2c0-0.7,0.5-1.2,1.2-1.2c0,0,0,0,0,0
	C10.1,53,10.6,53.5,10.6,54.1C10.6,54.1,10.6,54.1,10.6,54.1"/>
<path id="Fill-51" class="st0" d="M18.8,54.1c0,0.7-0.5,1.2-1.2,1.2c-0.7,0-1.2-0.5-1.2-1.2c0-0.7,0.5-1.2,1.2-1.2c0,0,0,0,0,0
	C18.2,53,18.8,53.5,18.8,54.1C18.8,54.1,18.8,54.1,18.8,54.1"/>
<path id="Fill-53" class="st0" d="M26.9,54.1c0,0.7-0.5,1.2-1.2,1.2c-0.7,0-1.2-0.5-1.2-1.2c0-0.7,0.5-1.2,1.2-1.2c0,0,0,0,0,0
	C26.3,53,26.9,53.5,26.9,54.1C26.9,54.1,26.9,54.1,26.9,54.1"/>
<path id="Fill-55" class="st0" d="M35,54.1c0,0.7-0.5,1.2-1.2,1.2c-0.7,0-1.2-0.5-1.2-1.2c0-0.7,0.5-1.2,1.2-1.2c0,0,0,0,0,0
	C34.5,53,35,53.5,35,54.1C35,54.1,35,54.1,35,54.1"/>
</svg>
