<?xml version="1.0" encoding="iso-8859-1"?>
<!-- Generator: Adobe Illustrator 19.0.0, SVG Export Plug-In . SVG Version: 6.00 Build 0)  -->
<svg version="1.1" id="Capa_1" xmlns="http://www.w3.org/2000/svg" xmlns:xlink="http://www.w3.org/1999/xlink" x="0px" y="0px"
	 viewBox="0 0 409.6 409.6" style="enable-background:new 0 0 409.6 409.6;" xml:space="preserve">
<g>
	<g>
		<path d="M27.307,177.493C12.25,177.493,0,189.744,0,204.8s12.25,27.307,27.307,27.307s27.307-12.25,27.307-27.307
			S42.363,177.493,27.307,177.493z M27.307,218.453c-7.53,0-13.653-6.123-13.653-13.653c0-7.53,6.124-13.653,13.653-13.653
			c7.53,0,13.653,6.124,13.653,13.653C40.96,212.33,34.836,218.453,27.307,218.453z"/>
	</g>
</g>
<g>
	<g>
		<path d="M116.053,177.493c-15.056,0-27.307,12.25-27.307,27.307s12.25,27.307,27.307,27.307s27.307-12.25,27.307-27.307
			S131.11,177.493,116.053,177.493z M116.053,218.453c-7.53,0-13.653-6.123-13.653-13.653c0-7.53,6.124-13.653,13.653-13.653
			c7.53,0,13.653,6.124,13.653,13.653C129.707,212.33,123.583,218.453,116.053,218.453z"/>
	</g>
</g>
<g>
	<g>
		<path d="M204.8,177.493c-15.056,0-27.307,12.25-27.307,27.307s12.25,27.307,27.307,27.307s27.307-12.25,27.307-27.307
			S219.856,177.493,204.8,177.493z M204.8,218.453c-7.53,0-13.653-6.123-13.653-13.653c0-7.53,6.124-13.653,13.653-13.653
			c7.53,0,13.653,6.124,13.653,13.653C218.453,212.33,212.33,218.453,204.8,218.453z"/>
	</g>
</g>
<g>
	<g>
		<path d="M293.547,177.493c-15.056,0-27.307,12.25-27.307,27.307s12.25,27.307,27.307,27.307c15.056,0,27.307-12.25,27.307-27.307
			S308.603,177.493,293.547,177.493z M293.547,218.453c-7.53,0-13.653-6.123-13.653-13.653c0-7.53,6.124-13.653,13.653-13.653
			c7.53,0,13.653,6.124,13.653,13.653C307.2,212.33,301.076,218.453,293.547,218.453z"/>
	</g>
</g>
<g>
	<g>
		<path d="M382.293,177.493c-15.056,0-27.307,12.25-27.307,27.307s12.25,27.307,27.307,27.307S409.6,219.856,409.6,204.8
			S397.35,177.493,382.293,177.493z M382.293,218.453c-7.53,0-13.653-6.123-13.653-13.653c0-7.53,6.123-13.653,13.653-13.653
			c7.53,0,13.653,6.124,13.653,13.653C395.947,212.33,389.823,218.453,382.293,218.453z"/>
	</g>
</g>
<g>
</g>
<g>
</g>
<g>
</g>
<g>
</g>
<g>
</g>
<g>
</g>
<g>
</g>
<g>
</g>
<g>
</g>
<g>
</g>
<g>
</g>
<g>
</g>
<g>
</g>
<g>
</g>
<g>
</g>
</svg>
