<svg xmlns="http://www.w3.org/2000/svg" viewBox="0 0 1189.57 1197.73"><defs><style>.cls-1{fill:#fdc91c;}.cls-2{fill:#d93922;}.cls-3{fill:#f5a83c;}.cls-4{fill:#e63022;opacity:0;}.cls-5{fill:#f49736;}.cls-6{fill:#ec652b;}</style></defs><g id="Calque_3" data-name="Calque 3"><path class="cls-1" d="M601.82,1059.26c-87,12.62-163.64-113.28-186.73-191.47-7.8-26.41-11.72-59.5,5.93-81.92,20.59-26.16,78.49-44.5,119.08-41.51,3.79.28,10.52,1,15.83-3.16,14.24-11.06,9-49.46-4.75-77.54-8.36-17-18-26.43-14.24-31.65.93-1.3,3.07-2.86,30.06,0,19.93,2.11,22.08,3.31,23.74,4.75,5.35,4.63,6.26,12.28,3.75,40.27-3.44,38.25-7.85,54.06.69,61.09,4.41,3.63,10.17,3.21,13,3.08,34-1.58,132.18,17.84,148.74,61.71,5.8,15.35,1.66,33.85-3.16,55.38a201.56,201.56,0,0,1-11.08,33.24C716.23,951.17,672.91,1049,601.82,1059.26Z" transform="translate(-405.21 -401.13)"/><path class="cls-2" d="M449.13,829.83c17-11.84,33.89-14.67,56.55-18.22,21.72-3.4,37.21-3.34,75.86-2.37,58.23,1.47,87.5,2.25,95.41,5,46.5,16,62.2,51.06,76.55,44.08,11.75-5.7,12-34.46,3.24-55.38-16.72-40-66.33-55.39-84.35-57-40.71-3.55-20.29-6.63-99.06-6.33-62.93.24-74.56,3.23-97.23,11.08-15.49,5.37-44.45,15.4-60,42.73-17.13,30.05-11.12,68.84-1.63,71.2C421.58,866.4,425.37,846.36,449.13,829.83Z" transform="translate(-405.21 -401.13)"/></g><g id="Calque_2" data-name="Calque 2"><path class="cls-3" d="M717.33,548.14C764.2,506.2,814.06,508,828.1,466.65c10.22-30.12-10.26-48.58,0-59.34,26-27.25,208,37.69,238.95,155.86,17.7,67.59-24,115,9.49,217.59,4.92,15.07,12.25,30.62,26.9,61.71,54.52,115.68,78.7,128,101.28,183.56,47.29,116.42,9.22,232,3.16,250-24.2,71.86-67,117.94-63.22,120.61,3.63,2.56,45.77-38.2,74.3-95.29,41.35-82.74,35.92-163.28,33.23-196.22-7.38-90.5-38.16-98-80.7-246.86-25.09-87.77-37.42-132.66-26.9-182,22.06-103.53,115.37-172.58,128.17-163.78,10.11,6.94-38.63,56.41-26.9,116.71,13.48,69.25,93.69,85.92,171.69,146.76,94,73.33,157.77,189.73,173.28,296.7,22.19,153-51.59,305.89-154.29,396.4-113.32,99.87-259,112.94-333.1,120.26a712.58,712.58,0,0,1-90.19,3.17l-470,6.33c3.31-40.34,16.87-61.32,31.65-72.8,34.43-26.73,85.79-9.88,94.94-31.64,4.4-10.47-4.12-22.34-9.72-32-40.48-69.84-10.92-166.57-2.94-192.7,9.88-32.34,25.41-83.15,72.79-110.77a134.88,134.88,0,0,1,46.68-16.22c106-16.72,208.05,88.15,210.07,85.45,1.86-2.48-75.79-104.36-168.53-103.25-14.51.18-39.1,3-52.62-12.34-15.37-17.43-1-40.85-12.65-67.57-9.69-22.26-31.09-29.38-63.3-45.89-122.35-62.72-148.32-72.47-155.87-99.69-6.57-23.69,3.74-50.06,19-64.09,32.81-30.2,93.36-7.82,101.67-4.75,62.86,23.23,75.76,74.37,106.82,68.84,22.66-4,44.66-36.42,43.91-66.46-1.85-73.48-138.72-87.36-148.35-167.34C650.06,609.61,709.78,554.9,717.33,548.14Z" transform="translate(-405.21 -401.13)"/><path class="cls-4" d="M813.86,625.68c-17.52,4.1-36.4-6.38-41.14-22.15-6.14-20.4,12.77-44.89,34.81-44.31,17.14.45,33.81,16,33.23,34.81C840.28,609.6,828.14,622.34,813.86,625.68Z" transform="translate(-405.21 -401.13)"/><path class="cls-5" d="M779.84,1496c-.58-51.7-12.28-61.07-14.24-104.44-1.67-36.84-3.52-77.77,22.15-109.19,29.2-35.73,77.6-39.07,107.61-41.14,35.06-2.42,77.45,4.3,93.36,17.41,1.32,1.08,9.28,7.84,11.07,6.33,1.16-1-.8-4.9-3.16-10.29-5.44-12.41-7-18.76-8.47-22.19-2.86-6.53-34.52-58.25-104.46-92.36-30.49-14.87-56.39-15.2-76.18-14.93-21.22.28-35.55-2.34-45.07-16.9-12.74-19.51,2.09-34.54-9.51-63.29-5-12.3-15-20.86-63.3-45.89-56.79-29.4-75.52-37.81-114.5-59.36-43.38-24-43.38-32.42-45.32-47.45-3.36-26,14.82-53.75,37.23-66.35,40.77-22.91,90.64,5.46,97.47,8.78,17,8.25,40.77,21.34,57.56,41.74,14,17,24.81,21.34,35.21,22.16,20.68,1.61,36.07-20.59,42.92-44.11.63-2.16,9-25.9-2.49-48.28-7.47-14.51-20.29-24.32-27.62-29.94-12.56-9.61-14.74-10.5-18.21-13-6.45-4.59,58.4-13.61,115,5.55,21.1,7.14,34.33,11.62,48.27,23.73,33,28.66,25.17,61.12,52.22,105.23,6.91,11.27,12.76,18.83,59.73,59.74,84.17,73.31,108.66,89.69,123.43,108,35.74,44.31,27.45,94,24.13,189.89a311.74,311.74,0,0,1-19.38,97.32c-9.12,24-20.19,43-38,58.15a114.56,114.56,0,0,1-19,13.06c-44.23,25-75.33,84.81-108.79,115.52-64.46,59.13-186.09,54.53-209.67,15.82C772.68,1543.59,780.31,1538.13,779.84,1496Z" transform="translate(-405.21 -401.13)"/><path class="cls-6" d="M815.44,1385.24c-2.11-7.88,21.28-24.24,45.1-30.86,33-9.16,58.76,3.07,119.47,26.11,66,25.07,99.34,37.58,112.36,36.4,68-6.17,112-88.25,126.59-115.52,38.63-72.1,36-141.85,34.73-172.42a394.84,394.84,0,0,0-14.88-91.06c-11.65-40.75-23.58-57.46-40.93-99.09A693.39,693.39,0,0,1,1161,821c262.34,268.92,368.89,539.05,297.94,626.9-19.49,24.14-84.07,73.73-159.57,101.76-46,17.08-97.43,26.63-108.84,28.69-33.07,5.95-61.52,8.58-77.33,10-14.3,1.31-44.1,3.18-77,4.23-57.38,1.85-92.9-.23-100.48-.1-62.58,1-144.41,6.22-360.27,5.89,1.28-1.11,12.42-12.36,15.7-14.77A134,134,0,0,1,631,1564.77c106.29-28.85,201.79-16.94,201.79-16.94,13.29,1.66,77.36,9.06,105.14-12.88a28,28,0,0,0,4.15-4.13c17.65-21.28,11.06-55.66,3.16-74.37-20.66-49-83.53-62.29-89.83-63.53C833.37,1388.57,817.1,1391.41,815.44,1385.24Z" transform="translate(-405.21 -401.13)"/></g></svg>