<?xml version="1.0" encoding="utf-8"?>
<!-- Generator: Adobe Illustrator 25.4.1, SVG Export Plug-In . SVG Version: 6.00 Build 0)  -->
<svg version="1.1" id="Calque_1" xmlns="http://www.w3.org/2000/svg" xmlns:xlink="http://www.w3.org/1999/xlink" x="0px" y="0px"
	 viewBox="0 0 1189.6 1197.7" style="enable-background:new 0 0 1189.6 1197.7;" xml:space="preserve">
<style type="text/css">
	.st0{fill:#FDC91C;}
	.st1{fill:#D93922;}
	.st2{fill:#F5A83C;}
	.st3{fill:#E63022;fill-opacity:0;}
	.st4{fill:#F49736;}
	.st5{fill:#EC652B;}
</style>
<g id="Calque_3">
	<path class="st0" d="M852.1,490.4c-4.7-10.7-8.4-21.9-11.1-33.2c-4.8-21.5-9-40-3.2-55.4c16.6-43.9,114.7-63.3,148.7-61.7
		c2.8,0.1,8.6,0.5,13-3.1c8.5-7,4.1-22.8,0.7-61.1c-2.5-28-1.6-35.6,3.8-40.3c1.7-1.4,3.8-2.6,23.7-4.8c27-2.9,29.1-1.3,30.1,0
		c3.8,5.2-5.9,14.7-14.2,31.7c-13.8,28.1-19,66.5-4.8,77.5c5.3,4.2,12,3.4,15.8,3.2c40.6-3,98.5,15.4,119.1,41.5
		c17.7,22.4,13.7,55.5,5.9,81.9c-23.1,78.2-99.7,204.1-186.7,191.5C921.9,647.9,878.6,550,852.1,490.4z"/>
	<path class="st1" d="M1180.3,463.5c9.5-2.4,15.5-41.2-1.6-71.2c-15.6-27.3-44.5-37.4-60-42.7c-22.7-7.9-34.3-10.8-97.2-11.1
		c-78.8-0.3-58.3,2.8-99.1,6.3c-18,1.6-67.6,17-84.3,57c-8.8,20.9-8.5,49.7,3.2,55.4c14.3,7,30-28.1,76.5-44.1
		c7.9-2.8,37.2-3.5,95.4-5c38.6-1,54.1-1,75.9,2.4c22.7,3.5,39.5,6.4,56.5,18.2C1169.4,445.2,1173.2,465.3,1180.3,463.5z"/>
</g>
<g id="Calque_2_00000072986730916535048770000008889645629157537412_">
	<path class="st2" d="M938,264.5c-9.6,80-146.5,93.9-148.3,167.3c-0.8,30,21.2,62.5,43.9,66.5c31.1,5.5,44-45.6,106.8-68.8
		c8.3-3.1,68.9-25.5,101.7,4.8c15.3,14,25.6,40.4,19,64.1c-7.6,27.2-33.5,37-155.9,99.7c-32.2,16.5-53.6,23.6-63.3,45.9
		c-11.7,26.7,2.7,50.1-12.7,67.6c-13.5,15.3-38.1,12.5-52.6,12.3c-92.7-1.1-170.4,100.8-168.5,103.2c2,2.7,104.1-102.2,210.1-85.4
		c16.4,2.5,32.3,8,46.7,16.2c47.4,27.6,62.9,78.4,72.8,110.8c8,26.1,37.5,122.9-2.9,192.7c-5.6,9.7-14.1,21.5-9.7,32
		c9.2,21.8,60.5,4.9,94.9,31.6c14.8,11.5,28.3,32.5,31.7,72.8l-470-6.3c-30.1,0.8-60.2-0.2-90.2-3.2
		c-74.1-7.3-219.8-20.4-333.1-120.3C55.6,977.4-18.2,824.5,4,671.5c15.5-107,79.3-223.4,173.3-296.7c78-60.8,158.2-77.5,171.7-146.8
		c11.7-60.3-37-109.8-26.9-116.7c12.8-8.8,106.1,60.2,128.2,163.8c10.5,49.3-1.8,94.2-26.9,182C380.8,606,350,613.5,342.6,704
		c-2.7,32.9-8.1,113.5,33.2,196.2c28.5,57.1,70.7,97.9,74.3,95.3c3.8-2.7-39-48.8-63.2-120.6c-6.1-18-44.1-133.6,3.2-250
		c22.6-55.6,46.8-67.9,101.3-183.6c14.7-31.1,22-46.6,26.9-61.7c33.5-102.6-8.2-150,9.5-217.6C558.7,43.9,740.7-21.1,766.7,6.2
		c10.3,10.8-10.2,29.2,0,59.3c14,41.4,63.9,39.6,110.8,81.5C885,153.8,944.8,208.5,938,264.5z"/>
	<path class="st3" d="M754.1,192.9c-0.6-18.8,16.1-34.4,33.2-34.8c22-0.6,41,23.9,34.8,44.3c-4.7,15.8-23.6,26.2-41.1,22.2
		C766.7,221.2,754.5,208.5,754.1,192.9z"/>
	<path class="st4" d="M815,1154.2c-23.6,38.7-145.2,43.3-209.7-15.8c-33.5-30.7-64.6-90.5-108.8-115.5c-6.8-3.7-13.1-8.1-19-13.1
		c-17.8-15.2-28.9-34.2-38-58.2c-11.6-31.2-18.2-64.1-19.4-97.3c-3.3-95.9-11.6-145.6,24.1-189.9c14.8-18.3,39.3-34.7,123.4-108
		c47-40.9,52.8-48.5,59.7-59.7c27-44.1,19.2-76.6,52.2-105.2c13.9-12.1,27.2-16.6,48.3-23.7c56.6-19.2,121.5-10.1,115-5.5
		c-3.5,2.5-5.7,3.4-18.2,13c-7.3,5.6-20.2,15.4-27.6,29.9c-11.5,22.4-3.1,46.1-2.5,48.3c6.8,23.5,22.2,45.7,42.9,44.1
		c10.4-0.8,21.2-5.2,35.2-22.2c16.8-20.4,40.6-33.5,57.6-41.7c6.8-3.3,56.7-31.7,97.5-8.8c22.4,12.6,40.6,40.3,37.2,66.3
		c-1.9,15-1.9,23.5-45.3,47.5c-39,21.5-57.7,30-114.5,59.4c-48.3,25-58.3,33.6-63.3,45.9c-11.6,28.8,3.2,43.8-9.5,63.3
		c-9.5,14.6-23.9,17.2-45.1,16.9c-19.8-0.3-45.7,0.1-76.2,14.9c-69.9,34.1-101.6,85.8-104.5,92.4c-1.5,3.4-3,9.8-8.5,22.2
		c-2.4,5.4-4.3,9.3-3.2,10.3c1.8,1.5,9.8-5.2,11.1-6.3c15.9-13.1,58.3-19.8,93.4-17.4c30,2.1,78.4,5.4,107.6,41.1
		c25.7,31.4,23.8,72.3,22.2,109.2c-2,43.4-13.7,52.7-14.2,104.4C814.5,1137,822.1,1142.5,815,1154.2z"/>
	<path class="st5" d="M739.4,991.8c-6.3,1.2-69.2,14.5-89.8,63.5c-7.9,18.7-14.5,53.1,3.2,74.4c1.2,1.5,2.6,2.9,4.2,4.1
		c27.8,21.9,91.9,14.5,105.1,12.9c0,0,95.5-11.9,201.8,16.9c14.2,4,27.7,10.4,39.9,18.8c3.3,2.4,14.4,13.7,15.7,14.8
		c-215.9,0.3-297.7-4.9-360.3-5.9c-7.6-0.1-43.1,1.9-100.5,0.1c-32.9-1-62.7-2.9-77-4.2c-15.8-1.4-44.3-4.1-77.3-10
		c-11.4-2.1-62.8-11.6-108.8-28.7c-75.5-28-140.1-77.6-159.6-101.8c-71-87.8,35.6-358,297.9-626.9c-8.8,40.3-21.1,79.7-36.9,117.8
		c-17.4,41.6-29.3,58.3-40.9,99.1c-8.5,29.7-13.5,60.2-14.9,91.1c-1.3,30.6-3.9,100.3,34.7,172.4c14.6,27.3,58.6,109.3,126.6,115.5
		c13,1.2,46.4-11.3,112.4-36.4c60.7-23,86.5-35.3,119.5-26.1c23.8,6.6,47.2,23,45.1,30.9C777.7,990.3,761.4,987.4,739.4,991.8z"/>
</g>
</svg>
