<?xml version="1.0" encoding="utf-8"?>
<!-- Generator: Adobe Illustrator 25.4.1, SVG Export Plug-In . SVG Version: 6.00 Build 0)  -->
<svg version="1.1" id="Calque_1" xmlns="http://www.w3.org/2000/svg" x="0px" y="0px"
     viewBox="0 0 100 100" style="enable-background:new 0 0 100 100;" xml:space="preserve">
<style type="text/css">
	.st0{fill:#080708;}
</style>
<path id="hands-helping-solid" class="st0" d="M23.7,60h23.8v-8.8c0-6.2,5-11.3,11.3-11.3C65,40,70,45,70,51.3v19l10.1-6.1
	c3-1.8,4.9-5.1,4.9-8.6v-7.4L97.5,41c2.4-1.4,3.2-4.4,1.8-6.8c0,0,0,0,0,0L86.8,12.5c-1.4-2.4-4.4-3.2-6.8-1.9c0,0,0,0,0,0L63.8,20
	H42.5c-5.5,0-10,4.5-10,10H30c-2.8,0-5,2.2-5,5l0,0v10h-1.2c-2.1,0-3.7,1.7-3.7,3.7c0,0,0,0,0,0v7.5C20,58.3,21.7,60,23.7,60
	C23.7,60,23.7,60,23.7,60z M0.7,65.9l12.5,21.6c1.4,2.4,4.4,3.2,6.8,1.8c0,0,0,0,0,0L36.1,80h16c1.9,0,3.7-0.5,5.3-1.5l5.2-3.3
	c1.5-0.9,2.4-2.5,2.4-4.2V51.3c-0.1-3.4-3.1-6.1-6.5-6c-3.2,0.1-5.8,2.7-6,6V65H23.7c-4.8,0-8.7-3.9-8.8-8.8v-4.4L2.5,59
	C0.1,60.4-0.7,63.5,0.7,65.9z"/>
</svg>
