<svg id="Capa_1" enable-background="new 0 0 512 512" height="512" viewBox="0 0 512 512" width="512" xmlns="http://www.w3.org/2000/svg"><g><path d="m452 196h-136v-136c0-33.084-26.916-60-60-60s-60 26.916-60 60v136h-136c-33.084 0-60 26.916-60 60s26.916 60 60 60h136v136c0 33.084 26.916 60 60 60s60-26.916 60-60v-136h136c33.084 0 60-26.916 60-60s-26.916-60-60-60zm0 90h-151c-8.284 0-15 6.716-15 15v151c0 16.542-13.458 30-30 30s-30-13.458-30-30v-151c0-8.284-6.716-15-15-15h-151c-16.542 0-30-13.458-30-30s13.458-30 30-30h151c8.284 0 15-6.716 15-15v-151c0-16.542 13.458-30 30-30s30 13.458 30 30v151c0 8.284 6.716 15 15 15h151c16.542 0 30 13.458 30 30s-13.458 30-30 30z"/></g></svg>