<?xml version="1.0" encoding="utf-8"?>
<!-- Generator: Adobe Illustrator 25.4.1, SVG Export Plug-In . SVG Version: 6.00 Build 0)  -->
<svg version="1.1" id="Calque_1" xmlns="http://www.w3.org/2000/svg" x="0px" y="0px"
     viewBox="0 0 100 100" style="enable-background:new 0 0 100 100;" xml:space="preserve">
<style type="text/css">
	.st0{fill:#627BDF;}
</style>
<path id="question-solid" class="st0" d="M50.1,10c-10.9-0.4-21.1,5-26.9,14.2c-1.2,1.7-0.8,3.9,0.8,5.1l6.7,5.1
	c1.6,1.2,3.9,0.9,5.2-0.6c3.9-4.9,6.8-7.7,12.9-7.7c4.8,0,10.7,3.1,10.7,7.8c0,3.5-2.9,5.3-7.7,8c-5.5,3.1-12.9,7-12.9,16.6V60
	c0,2.1,1.7,3.7,3.7,3.7l0,0h11.3c2.1,0,3.7-1.7,3.7-3.7v0v-0.9c0-6.7,19.6-7,19.6-25.1C77.5,20.4,63.3,10,50.1,10z M48.5,68.4
	c-6,0-10.8,4.8-10.8,10.8c0,6,4.8,10.8,10.8,10.8c6,0,10.8-4.8,10.8-10.8C59.3,73.2,54.5,68.4,48.5,68.4L48.5,68.4z"/>
</svg>
