<?xml version="1.0" encoding="utf-8"?>
<!-- Generator: Adobe Illustrator 25.4.1, SVG Export Plug-In . SVG Version: 6.00 Build 0)  -->
<svg version="1.1" xmlns="http://www.w3.org/2000/svg" x="0px" y="0px"
     viewBox="0 0 850.7 662" style="enable-background:new 0 0 850.7 662;" xml:space="preserve">
<style type="text/css">
	.st0{fill:none;}
	.st1{fill:#0C1115;}
	.st2{fill:#1E1F2C;}
	.st3{fill:#121B22;}
	.st4{fill:#0A0C0F;}
	.st5{opacity:0.6;}
	.st6{fill:#463E46;}
	.st7{fill:#706F70;}
	.st8{fill:#13141A;}
	.st9{fill:#0F0F13;}
	.st10{fill:#B28B67;}
	.st11{fill:#191847;}
	.st12{fill:#C5CFD6;}
	.st13{fill:#1F28CF;}
	.st14{fill:#2B44FF;}
	.st15{fill:#E4E4E4;}
	.st16{fill:#DB2721;}
	.st17{fill:#DDE3E9;}
	.st18{fill:#FF4133;}
	.st19{fill:#E87613;}
	.st20{fill:#FF9B21;}

</style>
<g id="Calque_1">
	<g id="Illustration_landing" transform="translate(-982 -250.5)">
		<path id="Rectangle_155" class="st0" d="M1032,250.5h732c27.6,0,50,22.4,50,50v562c0,27.6-22.4,50-50,50h-732
			c-27.6,0-50-22.4-50-50v-562C982,272.9,1004.4,250.5,1032,250.5z"/>
		<g id="Scene_Wireframe" transform="translate(1028 242.5)">
			<path id="Twisted_Leaf" class="st1" d="M690.2,195.3c-0.8-0.3-1.6-0.6-2.4-0.6c-2.5-0.5-5-0.7-7.5-0.7c-7.7,0-15.5,0.7-23.1,2.1
				c-4.8,0.8-10.6,3.6-15.4,2.1c-8.3-2.6-16.7-2.5-24.6,1.3c-7.2,3.4-12.7,10-15.9,17.1c-1.2,2.5-2.2,5-3,7.7
				c-0.2,0.5-0.5,1.1-0.7,1.6c-0.6,1.6-1.1,3.2-1.6,4.8c-0.2,0.7-0.7,2.2-0.1,2.5c-1,1.8-1.9,3.7-2.6,5.7
				c-2.1,5.7-4.5,11.9-5.2,17.8c-0.3,2.2-0.3,4.5,0,6.7c0.1,1.1,0.1,3.3,0.8,4.1c1.6,1.8,2.4-0.7,2.2-1.9c-1.4-9,1.3-17.5,4.4-25.9
				c2.2-5.5,5.2-10.5,9-15c2.9-3.6,6.4-6.7,10.3-9c5.1-2.9,10.3-5.5,15.7-7.8c3.5-1.6,7-3.1,10.6-4.5c0.9-0.5,1.9-0.9,2.9-1.1
				c1.9,0,4.5,1.4,6.4,1.9c6,1.7,12,3.9,18.2,4.7c3.8,0.5,7.7,0,11.4-1.4c0.6-0.3,1.2-0.6,1.8-1c2.8-1,5.3-2.4,7.6-4.3
				c1.3-1.2,2.5-2.5,3.6-3.8c0.3-0.4,0.5-0.8,0.5-1.3c0.2-0.1,0.4-0.3,0.4-0.5C694.2,195.3,691.8,195.3,690.2,195.3"/>
			<path id="Fill_16" class="st2" d="M65.3,302.5c-1.5,1.2-3,2.5-4.4,3.8c-1.1,1-3,2.2-3.4,3.7c-0.4,1.6,0.9,3,1.9,4
				c5.4,5,11.5,8.4,19,8.9c11.6,0.9,21.6-2.1,31.6-7.9c7-4.1,11.7-10.1,12.7-18.3c8.5,3.5,16.4,8.3,23.4,14.2c3.4,2.9,6.4,6.2,9,9.7
				c1.7,2.3,3.4,4.6,5,7c0.7,1,1.4,2.9,2.5,3.5c1,0.5,2.2,0.1,2.6-0.9c0.1-0.3,0.2-0.6,0.2-0.9c-0.1-1.2-1.4-2.6-2-3.6
				c-1-1.6-2.1-3.3-3.1-4.9c-1.8-2.6-3.6-5.2-5.6-7.6c-4.6-5.4-10-10.1-16-13.8c-11.3-7.4-23.7-12-37.4-12.4
				c-8.5-0.2-15.6,2.6-22.8,7C73.9,296.5,69.5,299.4,65.3,302.5"/>
			<path id="Leaf" class="st3" d="M174.9,266.9c-8.8-9.1-17.6-18-27.5-26c-5.8-4.7-11.9-9-17.9-13.5c0.7,0.6,1.4,1.2,2,1.9
				c-1.9-1.3-4.3-2-6.3-3.2c-2.2-1.3-4.3-2.8-6.4-4.3c-4-2.9-8-6-12.2-8.7c-4.6-3.1-9.4-6-14.1-9c-4-2.7-8.1-5.2-12.3-7.4
				c-2.3-1.1-4.7-2.5-7-3.7c-0.8-0.4-8.7-5.4-8.7-5.4c0.4-0.3,4.4,1.5,5.1,1.8c1.8,0.7,3.5,1.6,5.3,2.5c-1-1.9-1.7-3.9-2.1-5.9
				c-0.1-0.6-1.1-5.3-0.6-5.7c0.3-0.2,2.8,8.2,2.9,9c0,0.7,0.1,1.5,0.3,2.2c0.3,1,0.3,0.7,1.1,1.3c1.5,0.9,3.1,1.8,4.8,2.5
				c1.5,1.1,3.2,2,4.8,2.8c4.6,2.2,9.2,5.7,13.6,8.5c-1.1-2.1-2-4.4-2.6-6.8c-0.2-0.6-1.8-5.6-1.4-5.9c0.4-0.3,3.5,7.3,3.7,8.1
				c0.3,1.3,0.4,2.8,0.8,4.2c0.5,1.4,1.9,2,3.3,2.8c4.9,3.1,9.6,6.4,14.2,9.8c5-9-0.8-19.8-5.7-27.3c-3.7-5.4-8.2-10.1-13.3-14.1
				c-6.7-5.4-14.3-9.7-22-13.7c-8.9-4.6-18.6-7.5-28.5-8.8c-5.3-0.6-10.6-0.8-15.9-0.5c-2.6,0.1-5.1,0.5-7.5,1.3
				c-1.1,0.4-2.2,0.9-3.2,1.4c-0.8,0.4-2.7,0.8-3.2,1.4c-3.8,4.9-5.7,9.8-5.4,16c0.4,5.9,2,11.6,4.6,16.9
				c2.7,5.8,6.5,11.1,11.1,15.5c3.7,3.3,7.5,6.4,11.6,9.2c14.2,10.3,32.1,19.3,50.4,17c5.9-0.8,11.6-2.7,16.9-5.6
				c1.2-0.7,2.5-1.3,3.7-2.1c0.8-0.5,2.9-2.9,3.7-3c1.1-0.1,3.4,2.1,4.5,2.8c7.8,5.1,15.3,10.5,22.8,16.2c7.9,6,15.4,12.4,22.7,19.1
				c3.1,2.8,6.2,5.7,9.2,8.7c0.7,0.7,2.4,3.2,3.7,3.3c0.6,0.1,1.2-0.4,1.2-1c0-0.1,0-0.2,0-0.3C178.6,269.8,175.8,267.8,174.9,266.9
				"/>
			<path id="Fill_10" class="st4" d="M681,231.7c-3.5-0.6-7.1-0.8-10.7-0.6c-18.8,0.4-36.6,8.8-48.8,23.2
				c-10.1,12-12.9,26.9-14.9,42c-0.2,1.5-0.3,3-0.4,4.5c0,0.3-0.1,0.6-0.1,0.9c-0.8,0.5-1.1,1.6-0.7,2.4c-1.7,3.8-3.2,7.7-4.5,11.7
				c-3.7,11.8-7.5,23.9-5.2,36.3c0.6-6.9,1.6-13.8,3-20.6c0.1-0.4,0.2-0.8,0.3-1.2v-0.1c0.5-2.1,1.1-4.1,1.9-6c0,0,0,0,0-0.1
				c0.1-0.3,0.2-0.5,0.3-0.8c0.2-0.5,0.4-1.1,0.7-1.6c0.1-0.2,0.2-0.4,0.2-0.5c1.1-2.7,1.6-5.8,2.6-8.6c0.2-0.6,0.5-1.3,0.7-1.9
				v-0.1c0.7-1.7,1.5-3.4,2.3-5.1c0.5-0.6,0.8-1.2,1.1-1.9c0.3-0.5,0.6-1.1,0.9-1.7c0.5-0.9,1-1.9,1.5-2.8l0,0
				c0.5-0.9,1-1.8,1.5-2.7l0.3-0.6l0.5-0.9c1.6-2.9,3.4-5.8,5.2-8.6c0.6-1,2.2-2.5,2.5-3.6v-0.1c3.8-5.5,8.5-10.4,13.8-14.5
				c-0.7,0.7-2,3.1-2.4,3.6c-1.1,1.4-2.3,2.8-3.6,4.2c-2.2,2.4-4.3,5-6.2,7.6c-3.4,4.9-6.5,10-9.3,15.2l-0.1,0.1
				c-1.4,1.8-2.3,4.4-3.3,6.4c4-1.9,8.5-3.1,12.7-4.8c4.1-1.6,8.2-3.5,12.1-5.7c5.4-2.9,10.5-6.2,15.4-9.8
				c5.5-3.6,10.4-8.1,14.5-13.3c4.9-5.9,9.4-11.9,12.2-19.1c1.4-3.5,2.4-7.2,3.1-11c0-0.2,0.1-0.3,0.1-0.5c0.7-1.3,1.2-2.6,1.7-4
				C682.6,234.8,684.4,232.4,681,231.7"/>
			<path id="Leave_the_Leaf_" class="st1" d="M145,263.6c0.1-0.2,0.1-0.5,0-0.9c-0.3-0.9-2.7-1.8-4-2.3c-0.2-0.1-0.4-0.2-0.6-0.2
				c-1.1-0.5-2.2-0.9-3.4-1.2c-3.5-1-7.1-1.7-10.7-2.3c-1.3-0.2-2.7-0.5-4.1-0.7c-0.3,0-0.5-0.1-0.6-0.1c-0.6-0.1-0.6-0.1-0.8-0.8
				V255c-0.1-0.4-0.2-0.8-0.2-1.2c0-0.3-0.1-0.7-0.1-1c-0.6-2.7-1.9-5.2-3.7-7.3c-1.7-2-3.8-3.6-6.1-4.7c-2.4-1.1-4.9-1.9-7.5-2.3
				c-4.4-0.9-8.9-1.2-13.3-1.1c-4.5,0.1-9,0.8-13.3,2c-4.6,1.3-9.5,3.9-14.9,7.8c-2.6,1.9-4.9,4.1-6.8,6.7c-0.3,0.4-0.5,0.7-0.8,1.1
				c-0.5,0.9-1,1.8-1.5,2.7c-0.1,0.3-0.2,0.6-0.3,0.8c-0.1,0.4-0.3,0.8-0.5,1.2l-0.1,0.2c-0.1,0.1-0.1,0.2-0.2,0.3
				c-0.2,0.3-0.4,0.4-1,0.6c-0.2,0-0.3,0.1-0.4,0.3c-0.1,0.2-0.1,0.4,0.1,0.5c0.3,0.3,0.8,0.5,1.2,0.4c-0.3,1.8,0,3.6,0.9,5.2
				c0.8,1.5,2,2.9,3.4,3.9c2.9,2.1,6.1,3.7,9.4,4.9c3.5,1.3,7.1,2.2,10.8,2.7c3.6,0.5,7.3,0.6,10.9,0.3c7.4-0.6,14.7-2.2,21.7-4.9
				c3.7-1.3,7-3.5,9.6-6.4c0.4-0.5,0.8-1,1.2-1.6c0.7-1.2,1.3-2.5,1.6-3.9c0-0.1,0.1-0.2,0.1-0.4c0.2-0.6,0.5-1.6,0.2-2
				c-0.2-0.4-0.6-0.4-1-0.4c-0.1,0-0.3,0-0.4,0c-0.6,0-1.1-0.1-1.7-0.1c-1.5-0.1-3.1-0.2-4.6-0.2c-0.2,0-0.5-0.1-0.9-0.1
				c-0.7-0.2-1.5-0.2-2.2,0c0,0-0.1,0.1-0.1,0.2c-0.1,0.2-0.2,0.3-0.4,0.5c-0.1,0.1-0.3,0-0.5-0.1c-0.1,0-0.1-0.1-0.1-0.1
				c-0.6,0.4-1.2,1-1.6,1.7c-0.2,0.3-0.5,0.6-0.7,0.8c-0.6,0.6-1.2,1.3-2,1.9c-0.7,0.6-1.5,1.2-2.3,1.8c-0.2,0.1-0.5,0.3-0.8,0.4
				c-0.5,0.2-1,0.5-1.4,0.9c1.2-1.6,2.5-3.1,4-4.5c0.8-0.7,1.7-1.4,2.6-2.1c0.1-0.1,0.3-0.2,0.5-0.3c0.5-0.2,1-0.6,1.5-1V259
				c-2.4,0-4.8,0.1-7.2,0.4c-1.2,0.1-2.6,0.3-3.9,0.3c-0.1,0-0.3,0-0.6,0c-0.8-0.1-1.6-0.1-2.4,0c0.2-0.4,1.7-0.7,2.6-0.8
				c0.3,0,0.5-0.1,0.6-0.1c1.1-0.3,2.1-0.5,3.2-0.6c1.8-0.2,3.7-0.4,5.6-0.4c2.6-0.1,5.3,0,7.7,0.2c0.6,0,1.2,0,1.7,0.1
				c1.6,0,3.1,0.1,4.7,0.4c0-0.1,0-0.1,0-0.2c0.1-0.1,0.3-0.1,0.6,0c0.1,0,0.2,0,0.3,0.1c1,0.2,2,0.3,2.9,0.5c2,0.3,3.7,0.7,5.3,1
				h0.1c1.8,0.4,3.7,0.7,5.5,1.2c1.7,0.4,3.4,1,5,1.8c0.6,0.3,1.3,0.6,1.9,1C143.2,263.6,144.6,264.2,145,263.6z M115.6,249
				c1.1,1.6,2,3.3,2.7,5.2c-0.5-1.1-1-2.2-1.5-3.1c-0.1-0.2-0.4-0.6-0.6-1.1C115.9,249.5,115.6,249,115.6,249z M96.1,252.6
				c0.2-0.3,2.8,1,3.2,1.2c1.4,0.8,2.6,1.8,3.7,2.9l0,0l0,0c-0.6-0.4-1.3-0.8-2-1.1c-2-1-4.7-2.4-4.9-2.9
				C96.1,252.7,96.1,252.6,96.1,252.6z"/>
			<g id="Background_Shape_2" transform="translate(39 358)" class="st5">
				<path id="Background_Shape" class="st2" d="M661.7,146.2c9.7,65.3-224.4,107.9-425.8,78.2S-57.9,78.5,38.2,16.6
					S652.1,80.8,661.7,146.2z"/>
			</g>
			<g id="Mobile3" transform="translate(138 76)">
				<path id="Container" class="st6" d="M8,0h143c4.4,0,8,3.6,8,8v286c0,4.4-3.6,8-8,8H8c-4.4,0-8-3.6-8-8V8C0,3.6,3.6,0,8,0z"/>
				<circle id="Touch" class="st7" cx="79" cy="268" r="15"/>
				<g id="Camera" transform="translate(64 16)">
					<circle id="Lens" class="st7" cx="2" cy="2" r="2"/>
					<path id="Sensor" class="st7" d="M11,0h17c1.1,0,2,0.9,2,2l0,0c0,1.1-0.9,2-2,2H11C9.9,4,9,3.1,9,2l0,0C9,0.9,9.9,0,11,0z"/>
				</g>
				<g id="Rows" transform="translate(14 28)">
					<g id="Row">
						<path id="Background" class="st7" d="M4,0h123c2.2,0,4,1.8,4,4v46c0,2.2-1.8,4-4,4H4c-2.2,0-4-1.8-4-4V4C0,1.8,1.8,0,4,0z"/>
						<g id="Text" transform="translate(39 16.2)">
							<path id="Name" class="st2" d="M3,0h67c1.7,0,3,1.3,3,3v2.1c0,1.7-1.3,3-3,3H3c-1.7,0-3-1.3-3-3V3C0,1.3,1.3,0,3,0z"/>
							<path id="Name-2" class="st2" d="M3,13.5h43c1.7,0,3,1.3,3,3v2.1c0,1.7-1.3,3-3,3H3c-1.7,0-3-1.3-3-3v-2.1
								C0,14.8,1.3,13.5,3,13.5z"/>
						</g>
						<circle id="Avatar" class="st8" cx="21" cy="27" r="12"/>
					</g>
					<g id="Row-2" transform="translate(0 62)">
						<path id="Background-2" class="st7" d="M4,0h123c2.2,0,4,1.8,4,4v34c0,2.2-1.8,4-4,4H4c-2.2,0-4-1.8-4-4V4C0,1.8,1.8,0,4,0z"
							/>
						<g id="Text-2" transform="translate(39 12.6)">
							<path id="Name-3" class="st2" d="M3,0h67c1.7,0,3,1.3,3,3v0.3c0,1.7-1.3,3-3,3H3c-1.7,0-3-1.3-3-3V3C0,1.3,1.3,0,3,0z"/>
							<path id="Name-4" class="st2" d="M3,10.5h43c1.7,0,3,1.3,3,3v0.3c0,1.7-1.3,3-3,3H3c-1.7,0-3-1.3-3-3v-0.3
								C0,11.8,1.3,10.5,3,10.5z"/>
						</g>
						<circle id="Avatar-2" class="st8" cx="21" cy="21" r="12"/>
					</g>
					<g id="Row-3" transform="translate(0 112)">
						<path id="Background-3" class="st7" d="M4,0h123c2.2,0,4,1.8,4,4v34c0,2.2-1.8,4-4,4H4c-2.2,0-4-1.8-4-4V4C0,1.8,1.8,0,4,0z"
							/>
						<g id="Text-3" transform="translate(39 12.6)">
							<path id="Name-5" class="st2" d="M3,0h67c1.7,0,3,1.3,3,3v0.3c0,1.7-1.3,3-3,3H3c-1.7,0-3-1.3-3-3V3C0,1.3,1.3,0,3,0z"/>
							<path id="Name-6" class="st2" d="M3,10.5h43c1.7,0,3,1.3,3,3v0.3c0,1.7-1.3,3-3,3H3c-1.7,0-3-1.3-3-3v-0.3
								C0,11.8,1.3,10.5,3,10.5z"/>
						</g>
						<circle id="Avatar-3" class="st9" cx="21" cy="21" r="12"/>
					</g>
					<g id="Row-4" transform="translate(0 162)">
						<path id="Background-4" class="st7" d="M4,0h123c2.2,0,4,1.8,4,4v34c0,2.2-1.8,4-4,4H4c-2.2,0-4-1.8-4-4V4C0,1.8,1.8,0,4,0z"
							/>
						<g id="Text-4" transform="translate(39 12.6)">
							<path id="Name-7" class="st2" d="M3,0h67c1.7,0,3,1.3,3,3v0.3c0,1.7-1.3,3-3,3H3c-1.7,0-3-1.3-3-3V3C0,1.3,1.3,0,3,0z"/>
							<path id="Name-8" class="st2" d="M3,10.5h43c1.7,0,3,1.3,3,3v0.3c0,1.7-1.3,3-3,3H3c-1.7,0-3-1.3-3-3v-0.3
								C0,11.8,1.3,10.5,3,10.5z"/>
						</g>
						<circle id="Avatar-4" class="st8" cx="21" cy="21" r="12"/>
					</g>
				</g>
			</g>
			<g id="Mobile3-2" transform="translate(156 102)">
				<g id="Group" transform="translate(0 218)">
					<path id="Fill_16-2" class="st1" d="M12.1,0c-1.3,0-2.6,0-4,0.1c-1,0-2.5-0.2-3.4,0.5S3.9,2.6,4,3.5c0.7,5,2.5,9.4,6.3,13
						c5.8,5.4,12.4,8.2,20.2,9.4c5.5,0.9,10.5-0.3,14.6-4.2c3,5.5,5.1,11.5,6.3,17.7c0.5,3,0.7,6,0.6,9.1c-0.1,2-0.2,3.9-0.4,5.9
						c-0.1,0.9-0.5,2.1-0.2,2.9c0.3,0.7,1.1,1,1.8,0.7c0.2-0.1,0.4-0.2,0.5-0.4c0.5-0.7,0.4-2,0.5-2.8c0.2-1.3,0.3-2.6,0.4-4
						c0.2-2.1,0.3-4.3,0.3-6.4c-0.1-4.9-1-9.7-2.6-14.3C49.6,21.2,45,13.4,37.9,7.2c-4.4-3.8-9.4-5.3-15.1-6.1
						C19.3,0.5,15.7,0.1,12.1,0"/>
					<path id="Fill_18" class="st1" d="M32.6,35c-14.3,0-24,11.5-28.5,23.5C2.4,63,2,68,1.3,72.7c-0.2,1.5-0.1,3.8-0.8,5.2
						c-0.2,0.5-0.7,0.7-0.5,1.3c0.1,0.4,0.5,0.7,0.9,0.7c0.9,0.2,2.2-0.8,2.9-1.2c6.4-3.2,10.6-8.2,14-14.2
						c2.3-3.7,4.1-7.7,5.5-11.8c0.7-2.5,1.2-5.2,1.5-7.8c0.1-1,0.2-2.1,0.2-3.1c-0.1-0.9-0.4-1.7-0.8-2.5c4.8-1.8,10.2-2.3,15-0.4
						c4.5,1.7,8.1,5,10.3,9.3c0.5,1.1,1,2.2,1.3,3.4c0.1,0.8,0.3,1.7,0.6,2.5c0.9,1.7,2.8,0.6,2.6-1c-0.7-4.5-2.9-8.7-6.2-11.8
						C43.7,37.3,38.3,35.1,32.6,35"/>
				</g>
				<path id="Container-2" class="st2" d="M56,0h143c4.4,0,8,3.6,8,8v286c0,4.4-3.6,8-8,8H56c-4.4,0-8-3.6-8-8V8C48,3.6,51.6,0,56,0
					z"/>
				<circle id="Touch-2" class="st7" cx="127" cy="268" r="15"/>
				<g id="Camera-2" transform="translate(112 16)">
					<circle id="Lens-2" class="st7" cx="2" cy="2" r="2"/>
					<path id="Sensor-2" class="st7" d="M11,0h17c1.1,0,2,0.9,2,2l0,0c0,1.1-0.9,2-2,2H11C9.9,4,9,3.1,9,2l0,0C9,0.9,9.9,0,11,0z"/>
				</g>
				<g id="Rows-2" transform="translate(62 28)">
					<g id="Row-5">
						<path id="Container-3" class="st7" d="M4,0h123c2.2,0,4,1.8,4,4v46c0,2.2-1.8,4-4,4H4c-2.2,0-4-1.8-4-4V4C0,1.8,1.8,0,4,0z"/>
						<g id="Text_Stuff" transform="translate(9 16.2)">
							<path id="Label" class="st2" d="M3,0h67c1.7,0,3,1.3,3,3v2.1c0,1.7-1.3,3-3,3H3c-1.7,0-3-1.3-3-3V3C0,1.3,1.3,0,3,0z"/>
							<path id="Label-2" class="st2" d="M3,13.5h43c1.7,0,3,1.3,3,3v2.1c0,1.7-1.3,3-3,3H3c-1.7,0-3-1.3-3-3v-2.1
								C0,14.8,1.3,13.5,3,13.5z"/>
						</g>
						<g id="Check" transform="translate(110 20)">
							<circle id="Background-5" class="st2" cx="7" cy="7" r="7"/>
							<circle id="Indicator" class="st6" cx="7" cy="7" r="3"/>
						</g>
					</g>
					<g id="Row-6" transform="translate(0 62)">
						<path id="Background-6" class="st7" d="M4,0h123c2.2,0,4,1.8,4,4v34c0,2.2-1.8,4-4,4H4c-2.2,0-4-1.8-4-4V4C0,1.8,1.8,0,4,0z"
							/>
						<g id="Text-5" transform="translate(39 12.6)">
							<path id="Name-9" class="st2" d="M3,0h67c1.7,0,3,1.3,3,3v0.3c0,1.7-1.3,3-3,3H3c-1.7,0-3-1.3-3-3V3C0,1.3,1.3,0,3,0z"/>
							<path id="Name-10" class="st2" d="M3,10.5h43c1.7,0,3,1.3,3,3v0.3c0,1.7-1.3,3-3,3H3c-1.7,0-3-1.3-3-3v-0.3
								C0,11.8,1.3,10.5,3,10.5z"/>
						</g>
						<circle id="Avatar-5" class="st8" cx="21" cy="21" r="12"/>
					</g>
					<g id="Row-7" transform="translate(0 112)">
						<path id="Container-4" class="st7" d="M4,0h123c2.2,0,4,1.8,4,4v34c0,2.2-1.8,4-4,4H4c-2.2,0-4-1.8-4-4V4C0,1.8,1.8,0,4,0z"/>
						<g id="Text_Stuff-2" transform="translate(9 12.6)">
							<path id="Label-3" class="st2" d="M3,0h67c1.7,0,3,1.3,3,3v0.3c0,1.7-1.3,3-3,3H3c-1.7,0-3-1.3-3-3V3C0,1.3,1.3,0,3,0z"/>
							<path id="Label-4" class="st9" d="M3,10.5h43c1.7,0,3,1.3,3,3v0.3c0,1.7-1.3,3-3,3H3c-1.7,0-3-1.3-3-3v-0.3
								C0,11.8,1.3,10.5,3,10.5z"/>
						</g>
						<g id="Check-2" transform="translate(110 14)">
							<circle id="Background-7" class="st2" cx="7" cy="7" r="7"/>
							<circle id="Indicator-2" class="st6" cx="7" cy="7" r="3"/>
						</g>
					</g>
					<g id="Row-8" transform="translate(0 162)">
						<path id="Background-8" class="st7" d="M4,0h123c2.2,0,4,1.8,4,4v34c0,2.2-1.8,4-4,4H4c-2.2,0-4-1.8-4-4V4C0,1.8,1.8,0,4,0z"
							/>
						<g id="Text-6" transform="translate(39 12.6)">
							<path id="Name-11" class="st2" d="M3,0h67c1.7,0,3,1.3,3,3v0.3c0,1.7-1.3,3-3,3H3c-1.7,0-3-1.3-3-3V3C0,1.3,1.3,0,3,0z"/>
							<path id="Name-12" class="st2" d="M3,10.5h43c1.7,0,3,1.3,3,3v0.3c0,1.7-1.3,3-3,3H3c-1.7,0-3-1.3-3-3v-0.3
								C0,11.8,1.3,10.5,3,10.5z"/>
						</g>
						<circle id="Avatar-6" class="st8" cx="21" cy="21" r="12"/>
					</g>
				</g>
			</g>
			<g id="Web" transform="translate(270 127)">
				<path id="Container-5" class="st6" d="M8,0h319c4.4,0,8,3.6,8,8v330c0,4.4-3.6,8-8,8H8c-4.4,0-8-3.6-8-8V8C0,3.6,3.6,0,8,0z"/>
				<path id="Background-9" class="st7" d="M257,43h54c4.4,0,8,3.6,8,8v65c0,4.4-3.6,8-8,8h-54c-4.4,0-8-3.6-8-8V51
					C249,46.6,252.6,43,257,43z"/>
				<g id="Profile_Info" transform="translate(259 58)">
					<circle id="Avatar-7" class="st2" cx="25" cy="16" r="16"/>
					<path id="Name-13" class="st2" d="M3,36h44c1.7,0,3,1.3,3,3l0,0c0,1.7-1.3,3-3,3H3c-1.7,0-3-1.3-3-3l0,0C0,37.3,1.3,36,3,36z"
						/>
					<path id="Name-14" class="st2" d="M11,46h28c1.7,0,3,1.3,3,3l0,0c0,1.7-1.3,3-3,3H11c-1.7,0-3-1.3-3-3l0,0C8,47.3,9.3,46,11,46
						z"/>
				</g>
				<path id="Header" class="st8" d="M8,0h319c4.4,0,8,3.6,8,8v19l0,0H0l0,0V8C0,3.6,3.6,0,8,0z"/>
				<g id="Buttons" transform="translate(9 10)">
					<circle id="buttons-2" class="st6" cx="4" cy="4" r="4"/>
					<circle id="buttons-3" class="st6" cx="16" cy="4" r="4"/>
					<circle id="buttons-4" class="st6" cx="28" cy="4" r="4"/>
				</g>
				<g id="Components" transform="translate(249 132)">
					<path id="Background-10" class="st7" d="M8,0h54c4.4,0,8,3.6,8,8v178c0,4.4-3.6,8-8,8H8c-4.4,0-8-3.6-8-8V8C0,3.6,3.6,0,8,0z"
						/>
					<g id="Rows-3" transform="translate(18 18)">
						<path id="Data" class="st2" d="M4,0h26c2.2,0,4,1.8,4,4v18c0,2.2-1.8,4-4,4H4c-2.2,0-4-1.8-4-4V4C0,1.8,1.8,0,4,0z"/>
						<path id="Data-2" class="st9" d="M4,34h26c2.2,0,4,1.8,4,4v17c0,2.2-1.8,4-4,4H4c-2.2,0-4-1.8-4-4V38C0,35.8,1.8,34,4,34z"/>
						<path id="Data-3" class="st2" d="M4,67h26c2.2,0,4,1.8,4,4v17c0,2.2-1.8,4-4,4H4c-2.2,0-4-1.8-4-4V71C0,68.8,1.8,67,4,67z"/>
						<path id="Data-4" class="st2" d="M4,133h26c2.2,0,4,1.8,4,4v17c0,2.2-1.8,4-4,4H4c-2.2,0-4-1.8-4-4v-17C0,134.8,1.8,133,4,133
							z"/>
						<path id="Data-5" class="st8" d="M4,100h26c2.2,0,4,1.8,4,4v17c0,2.2-1.8,4-4,4H4c-2.2,0-4-1.8-4-4v-17C0,101.8,1.8,100,4,100
							z"/>
					</g>
				</g>
				<g id="Rows-4" transform="translate(16 44)">
					<g id="Row-9">
						<path id="Container-6" class="st7" d="M4,0h217c2.2,0,4,1.8,4,4v39c0,2.2-1.8,4-4,4H4c-2.2,0-4-1.8-4-4V4C0,1.8,1.8,0,4,0z"/>
						<g id="Text_Stuff-3" transform="translate(9 14.1)">
							<path id="Label-5" class="st2" d="M3,0h161c1.7,0,3,1.3,3,3v1.1c0,1.7-1.3,3-3,3H3c-1.7,0-3-1.3-3-3V3C0,1.3,1.3,0,3,0z"/>
							<path id="Label-6" class="st2" d="M3,11.8h106.1c1.7,0,3,1.3,3,3v1.1c0,1.7-1.3,3-3,3H3c-1.7,0-3-1.3-3-3v-1.1
								C0,13.1,1.3,11.8,3,11.8z"/>
						</g>
						<g id="Check-3" transform="translate(193.954 16.5)">
							<circle id="Background-11" class="st2" cx="7" cy="7" r="7"/>
							<circle id="Indicator-3" class="st6" cx="7" cy="7" r="3"/>
						</g>
					</g>
					<g id="Row-10" transform="translate(0 55)">
						<path id="Container-7" class="st7" d="M4,0h217c2.2,0,4,1.8,4,4v31c0,2.2-1.8,4-4,4H4c-2.2,0-4-1.8-4-4V4C0,1.8,1.8,0,4,0z"/>
						<g id="Text_Stuff-4" transform="translate(9 11.7)">
							<path id="Label-7" class="st2" d="M2.9,0H164c1.6,0,2.9,1.3,2.9,2.9l0,0c0,1.6-1.3,2.9-2.9,2.9H2.9C1.3,5.8,0,4.5,0,2.9l0,0
								C0,1.3,1.3,0,2.9,0z"/>
							<path id="Label-8" class="st2" d="M2.9,9.8h106.2c1.6,0,2.9,1.3,2.9,2.9l0,0c0,1.6-1.3,2.9-2.9,2.9H2.9
								c-1.6,0-2.9-1.3-2.9-2.9l0,0C0,11.1,1.3,9.8,2.9,9.8z"/>
						</g>
						<g id="Check-4" transform="translate(193.954 12.5)">
							<circle id="Background-12" class="st2" cx="7" cy="7" r="7"/>
							<circle id="Indicator-4" class="st6" cx="7" cy="7" r="3"/>
						</g>
					</g>
					<g id="Row-11" transform="translate(0 102)">
						<path id="Container-8" class="st7" d="M4,0h217c2.2,0,4,1.8,4,4v31c0,2.2-1.8,4-4,4H4c-2.2,0-4-1.8-4-4V4C0,1.8,1.8,0,4,0z"/>
						<g id="Text_Stuff-5" transform="translate(9 11.7)">
							<path id="Label-9" class="st2" d="M2.9,0H164c1.6,0,2.9,1.3,2.9,2.9l0,0c0,1.6-1.3,2.9-2.9,2.9H2.9C1.3,5.8,0,4.5,0,2.9l0,0
								C0,1.3,1.3,0,2.9,0z"/>
							<path id="Label-10" class="st2" d="M2.9,9.8h106.2c1.6,0,2.9,1.3,2.9,2.9l0,0c0,1.6-1.3,2.9-2.9,2.9H2.9
								c-1.6,0-2.9-1.3-2.9-2.9l0,0C0,11.1,1.3,9.8,2.9,9.8z"/>
						</g>
						<g id="Check-5" transform="translate(193.954 12.5)">
							<circle id="Background-13" class="st2" cx="7" cy="7" r="7"/>
							<circle id="Indicator-5" class="st9" cx="7" cy="7" r="3"/>
						</g>
					</g>
					<g id="Row-12" transform="translate(0 243)">
						<path id="Container-9" class="st7" d="M4,0h217c2.2,0,4,1.8,4,4v31c0,2.2-1.8,4-4,4H4c-2.2,0-4-1.8-4-4V4C0,1.8,1.8,0,4,0z"/>
						<g id="Text_Stuff-6" transform="translate(9 11.7)">
							<path id="Label-11" class="st2" d="M2.9,0H164c1.6,0,2.9,1.3,2.9,2.9l0,0c0,1.6-1.3,2.9-2.9,2.9H2.9C1.3,5.8,0,4.5,0,2.9l0,0
								C0,1.3,1.3,0,2.9,0z"/>
							<path id="Label-12" class="st2" d="M2.9,9.8h106.2c1.6,0,2.9,1.3,2.9,2.9l0,0c0,1.6-1.3,2.9-2.9,2.9H2.9
								c-1.6,0-2.9-1.3-2.9-2.9l0,0C0,11.1,1.3,9.8,2.9,9.8z"/>
						</g>
						<g id="Check-6" transform="translate(193.954 12.5)">
							<circle id="Background-14" class="st2" cx="7" cy="7" r="7"/>
							<circle id="Indicator-6" class="st6" cx="7" cy="7" r="3"/>
						</g>
					</g>
					<g id="Row-13" transform="translate(0 196)">
						<path id="Container-10" class="st7" d="M4,0h217c2.2,0,4,1.8,4,4v31c0,2.2-1.8,4-4,4H4c-2.2,0-4-1.8-4-4V4C0,1.8,1.8,0,4,0z"
							/>
						<g id="Text_Stuff-7" transform="translate(9 11.7)">
							<path id="Label-13" class="st2" d="M2.9,0H164c1.6,0,2.9,1.3,2.9,2.9l0,0c0,1.6-1.3,2.9-2.9,2.9H2.9C1.3,5.8,0,4.5,0,2.9l0,0
								C0,1.3,1.3,0,2.9,0z"/>
							<path id="Label-14" class="st2" d="M2.9,9.8h106.2c1.6,0,2.9,1.3,2.9,2.9l0,0c0,1.6-1.3,2.9-2.9,2.9H2.9
								c-1.6,0-2.9-1.3-2.9-2.9l0,0C0,11.1,1.3,9.8,2.9,9.8z"/>
						</g>
						<g id="Check-7" transform="translate(193.954 12.5)">
							<circle id="Background-15" class="st2" cx="7" cy="7" r="7"/>
							<circle id="Indicator-7" class="st6" cx="7" cy="7" r="3"/>
						</g>
					</g>
					<g id="Row-14" transform="translate(0 149)">
						<path id="Container-11" class="st7" d="M4,0h217c2.2,0,4,1.8,4,4v31c0,2.2-1.8,4-4,4H4c-2.2,0-4-1.8-4-4V4C0,1.8,1.8,0,4,0z"
							/>
						<g id="Text_Stuff-8" transform="translate(9 11.7)">
							<path id="Label-15" class="st2" d="M2.9,0H164c1.6,0,2.9,1.3,2.9,2.9l0,0c0,1.6-1.3,2.9-2.9,2.9H2.9C1.3,5.8,0,4.5,0,2.9l0,0
								C0,1.3,1.3,0,2.9,0z"/>
							<path id="Label-16" class="st2" d="M2.9,9.8h106.2c1.6,0,2.9,1.3,2.9,2.9l0,0c0,1.6-1.3,2.9-2.9,2.9H2.9
								c-1.6,0-2.9-1.3-2.9-2.9l0,0C0,11.1,1.3,9.8,2.9,9.8z"/>
						</g>
						<g id="Check-8" transform="translate(193.954 12.5)">
							<circle id="Background-16" class="st2" cx="7" cy="7" r="7"/>
							<circle id="Indicator-8" class="st6" cx="7" cy="7" r="3"/>
						</g>
					</g>
				</g>
			</g>
			<path id="Fill_1" class="st3" d="M688,297.4c-3.9-2.7-9.2-3.4-13.9-3.4c-18.4,0-35.8,6.8-50.7,17c-8.2,5.7-15.6,12.5-22,20.1
				c-3.8,4.2-7,8.9-9.4,14c-1.6,3.5-2.7,7.1-3.4,10.8c-0.9,4.6-1.6,9.2-1.9,13.8c-0.1,1.8-1.2,11.5,1.8,11.6c0,0.2,0,0.4,0,0.7
				c-6.6,10.3-10.6,22.3-14.4,33.7c-3.4,9.9-6.1,20-8.1,30.2c-2.5,13.5-4.1,27.2-4.9,41c-0.2,3-0.3,5.9-0.4,8.9
				c-0.1,2.5-0.2,5-0.3,7.6c-0.1,2.8-0.6,6.1-0.1,8.9c0.4,2.4,2.5,2.1,2.6-0.4c0.1-2.9,0.1-5.9,0.2-8.8c0.2-3.9,0.4-7.8,0.5-11.7
				c1.2-27.1,6.4-53.8,15.5-79.4c3.6-10.3,8.1-20.2,13.5-29.7c4.9-8.4,10.5-16.5,16.5-24.2c5.8-7.4,11.8-14.6,18.8-20.8
				c5.8-5,12-9.6,18.5-13.6c8.2-5.2,16.4-10.3,25.4-14.3c4.6-2.1,9.4-3.9,14-5.9c0.8-0.4,1.7-0.7,2.5-1.1
				C691,300.9,690.1,298.8,688,297.4"/>
			<path id="Fill_20" class="st1" d="M613.8,392c7.5,0,14.1,1,21,3.9c5.9,2.6,11.4,5.9,16.6,9.7c7.4,5.2,13.2,11.2,17.3,19.3
				c2.4,4.8,4.2,11.6,2.6,16.8c-1.9,6.2-7.2,11.3-14.2,10.2c-4.3-0.7-8.3-3.5-11.5-6.2c-3.8-3.2-7.1-7.1-9.7-11.4
				c-4.2-7-6.7-14.9-10.3-22.2c-1.7-3.5-3.4-7-5.4-10.3c-0.9-1.7-2.2-3.2-3.6-4.5c-0.8-0.6-4.3-1.8-3-3.2
				c-19.4,0.3-36.6,15.1-40.3,33.6c-0.3,1.7-0.6,3.5-0.9,5.2c-0.2,1.1-0.1,5.1-1.1,5.8c-2.2,1.5-1.2-3.1-1.2-3.8
				c0.2-1.7,0.5-3.5,0.8-5.2c1.3-9.5,5.8-18.2,12.7-24.9C591.7,397,602.5,392,613.8,392"/>
			<g id="Plant" transform="translate(65 333)">
				<path id="Fill_19" class="st2" d="M9.9,35.7C28.6,67,50.3,97.3,63.4,131.6c-0.5-4-1.1-8.1-1.7-12.1C58.4,98.2,54.3,77,49.9,55.8
					C47.7,45,45.4,34.3,43,23.6c-1.3-5.8-2.6-11.5-3.9-17.3c-0.3-1.4-0.6-3.8-1-6.3c12.7,41.6,25,83.3,33.9,125.9
					c1.2,5.6,2.2,11.2,3,16.8c0.3-1.3,0.6-2.5,0.9-3.8c3.7-15.3,8.9-30.2,15.5-44.5c3.1-6.8,6.7-13.4,10.8-19.6
					c2.6-3.9,8.8-8.5,11.1-12.4c-13,23.9-17.7,53.7-25.2,79.7c-1.8,6.3-3.7,12.7-5.5,19c11.3-22.7,28.9-41.4,53.3-49.5
					c-29.6,19.5-47.3,53.8-59.3,88.8c0,0.4-0.1,0.8-0.1,1.2c3.5-6.7,7.9-12.7,14-16.9c12.9-9.1,27.1-6.4,39.6,1.4
					c-9.8-6.2-27.5-0.6-35.7,5.8c-5.9,4.5-10.9,10.6-15.3,16.5c-1,1.4-2.5,3.1-4,4.8c-2.2,14-5.7,27.7-10.5,41
					c0.8-3.9,0.2-10.1,0.4-13c0-0.3,0-0.6,0.1-0.9c-0.7,3-1.5,5.9-2.2,8.8c1.3-5.6,2.2-11.3,2.7-17.1c0.1-2.5,0.3-5,0.5-7.5
					c0-4.7-0.2-9.5-0.6-14.3c-1.2-4.6-2.5-9-3.6-12.6c-4-13.1-9.6-25.7-16.6-37.4c-6.4-10.6-14.1-20.4-23-29.1
					c-4.8-4.7-9.8-9.2-14.7-13.8c-1.8-1.6-5-5.7-7.7-7.8c20.1,11.1,40.7,23,55.4,40.9c-1.7-6.6-3.6-13.1-5.6-19.5
					C39.8,98.5,27.2,65,9.9,35.7z"/>
				<path id="Base" class="st8" d="M30,213c0,35.9,2.8,65,41,65s41-29.1,41-65"/>
			</g>
			<g id="Graph" transform="translate(520 52)">
				<path id="Value" class="st2" d="M3,32L3,32c1.7,0,3,1.3,3,3v19c0,1.7-1.3,3-3,3l0,0c-1.7,0-3-1.3-3-3V35C0,33.3,1.3,32,3,32z"/>
				<path id="Value-2" class="st2" d="M17,16L17,16c1.7,0,3,1.3,3,3v35c0,1.7-1.3,3-3,3l0,0c-1.7,0-3-1.3-3-3V19
					C14,17.3,15.3,16,17,16z"/>
				<path id="Value-3" class="st2" d="M31,8L31,8c1.7,0,3,1.3,3,3v43c0,1.7-1.3,3-3,3l0,0c-1.7,0-3-1.3-3-3V11C28,9.3,29.3,8,31,8z"
					/>
				<path id="Value-4" class="st2" d="M45,16L45,16c1.7,0,3,1.3,3,3v35c0,1.7-1.3,3-3,3l0,0c-1.7,0-3-1.3-3-3V19
					C42,17.3,43.3,16,45,16z"/>
				<path id="Value-5" class="st8" d="M59,0L59,0c1.7,0,3,1.3,3,3v51c0,1.7-1.3,3-3,3l0,0c-1.7,0-3-1.3-3-3V3C56,1.3,57.3,0,59,0z"
					/>
			</g>
			<g id="Pie_Chart" transform="translate(68 338) rotate(180)">
				<path id="Value-6" class="st6" d="M40-20.3C40-9.2,31.1-0.1,20,0v-20.3L33.7-35C37.7-31.2,40-25.8,40-20.3z"/>
				<path id="Value-7" class="st9" d="M20.5-20H0.3c0-5.1,2-10,5.5-13.7c3.8-4,9.1-6.3,14.7-6.3c5.1,0,10,2,13.8,5.4L20.5-20z"/>
				<path id="Value-8" class="st8" d="M20-20H0c0,2.7,0.5,5.3,1.6,7.8c1,2.4,2.5,4.5,4.3,6.4c1.8,1.8,4,3.3,6.4,4.3S17.3,0,20,0V-20
					z M22-18L22-18l8,18c4.5-1.9,8.1-5.5,10-10L22-18z"/>
			</g>
			<g id="Chart" transform="translate(641 330)">
				<path id="Value-9" class="st6" d="M37.8,37.2c-4,4.2-10.6,4.5-14.9,0.5s-4.5-10.6-0.5-14.9c2-2.1,4.8-3.4,7.7-3.3V0
					c-16.6,0-30,13.4-30,30s13.4,30,30,30l0,0c8.3,0,16.3-3.4,21.9-9.5L37.8,37.2z"/>
				<path id="Value-10" class="st9" d="M30,0v19.5c5.8,0,10.5,4.7,10.5,10.5H60C59.9,13.5,46.5,0.1,30,0z"/>
				<path id="Value-11" class="st8" d="M40.1,30c0,3.3-1.5,6.4-4.1,8.4L48.3,54C55.7,48.2,60,39.4,60,30H40.1z"/>
			</g>
			<g id="Chart-2" transform="translate(459 63)">
				<path id="Value-12" class="st6" d="M29.1,28.5c-3,3.3-8.1,3.5-11.4,0.4s-3.5-8.1-0.4-11.4c1.5-1.7,3.7-2.6,6-2.6V0
					C10.4,0,0.1,10.3,0,23c0.1,12.7,10.4,23,23.1,23c6.4,0,12.5-2.6,16.9-7.3L29.1,28.5z"/>
				<path id="Value-13" class="st9" d="M23,0v14.9c4.4,0,8,3.6,8,8.1h15C46,10.3,35.7,0,23,0z"/>
				<path id="Value-14" class="st8" d="M31.1,23c0,2.5-1.1,4.8-3.1,6.3L37.2,41c5.6-4.3,8.8-11,8.8-18H31.1z"/>
			</g>
			<g id="Image" transform="translate(76 57)">
				<path id="Fill_35" class="st8" d="M48,52L48,52L48,52"/>
				<path id="Fill_37" class="st8" d="M48,52L48,52L48,52"/>
				<path id="Fill_39" class="st8" d="M48.1,51.8L48.1,51.8C48,51.9,48,51.9,48.1,51.8C47.8,52.4,48,52.1,48.1,51.8"/>
				<path id="Fill_41" class="st8" d="M48,52L48,52C47.9,52.1,48,52,48,52"/>
				<path id="Fill_43" class="st8" d="M48,52L48,52L48,52z"/>
				<path id="Fill_45" class="st8" d="M48,52L48,52L48,52"/>
				<path id="Fill_47" class="st8" d="M48,52C48,52,48,51.9,48,52"/>
				<path id="Fill_49" class="st8" d="M48,52L48,52L48,52"/>
				<path id="Photo_Background" class="st2" d="M4,0h87c2.2,0,4,1.8,4,4v55c0,2.2-1.8,4-4,4H4c-2.2,0-4-1.8-4-4V4C0,1.8,1.8,0,4,0z"
					/>
				<g id="icons8-night_landscape" transform="translate(8 18)">
					<path id="Mountains" class="st9" d="M28,0L0,45h56L28,0z"/>
					<path id="Mountains-2" class="st8" d="M55.5,12L31,45h49L55.5,12z"/>
				</g>
				<circle id="Sun" class="st7" cx="74" cy="21" r="9"/>
			</g>
			<g id="Image-2" transform="translate(672 459) rotate(180)">
				<path id="Fill_35-2" class="st8" d="M71-77L71-77L71-77"/>
				<path id="Fill_37-2" class="st8" d="M71-77L71-77L71-77"/>
				<path id="Fill_39-2" class="st8" d="M71.1-76.8L71.1-76.8C71-76.9,71-76.9,71.1-76.8C70.8-77.4,71-77.1,71.1-76.8"/>
				<path id="Fill_41-2" class="st8" d="M71-77L71-77C70.9-77.1,71-77,71-77"/>
				<path id="Fill_43-2" class="st8" d="M71-77L71-77L71-77z"/>
				<path id="Fill_45-2" class="st8" d="M71-77L71-77L71-77"/>
				<path id="Fill_47-2" class="st8" d="M71-77C71-77,71-76.9,71-77"/>
				<path id="Fill_49-2" class="st8" d="M71-77L71-77L71-77"/>
				<path id="Photo_Background-2" class="st2" d="M138,0H4C1.8,0,0-1.8,0-4v-86c0-2.2,1.8-4,4-4h134c2.2,0,4,1.8,4,4v86
					C142-1.8,140.2,0,138,0z"/>
				<g id="icons8-night_landscape-2" transform="translate(11 -27)">
					<path id="Mountains-3" class="st9" d="M41.7,0l-41-67h82.1L41.7,0z"/>
					<path id="Mountains-4" class="st8" d="M84.1-17.9L47.8-67h72.6L84.1-17.9z"/>
				</g>
				<circle id="Sun-2" class="st7" cx="110.5" cy="-31.5" r="13.5"/>
			</g>
		</g>
	</g>
</g>
<g id="Calque_2">
	<g id="A_Human_Standing" transform="translate(996 519.5)">
		<g id="Head_Front" transform="translate(82)">
			<g id="Head" transform="translate(54 31)">
				<path id="Head-2" class="st10" d="M-982-177.5l8.3-38.5c-4.6-5.4-7.7-12-7.2-19.5c1.5-21.4,31.2-16.7,37-5.9
					c5.8,10.8,5.1,38.2-2.4,40.1c-3,0.8-9.3-1.1-15.8-5l4.1,28.8H-982z"/>
			</g>
			<path id="hair" class="st11" d="M-903.5-222.8c-3.2-0.5-11.7-0.9-13.3-0.9c-1,0-2.1,0.2-2.7-0.7c-0.5-0.8-0.3-2-0.5-2.9
				c-0.2-1-0.4-2-0.7-3c-0.7-2.8-1.7-5.6-3.2-8.1c-2.7-4.8-6.8-8.5-11.8-10.7c-5.7-2.3-11.8-3.1-17.9-2.5
				c-6.4,0.5-12.2,2.7-18.3,4.7c-5.7,1.9-11.9,2.5-17.9,1.7c-6.1-0.9-10.7-4.3-15.8-7.4c-5.3-3.2-11.3-5.3-17.5-4.8
				c-5.8,0.5-11.2,2.9-16,6.1c-4.5,3-8.2,6.6-10.3,11.7c-2.3,5.5-2.3,11.5,1.5,16.3c5.4,7,15.4,8.8,23.7,8.6c4.8-0.1,9.5-1,14-2.6
				c6-2.1,11.3-5.7,16.9-8.7c2.6-1.4,5.4-2.5,8.3-3.3c2.8-0.8,5.5-1.1,8.1,0.5c2.5,1.9,5.2,3.4,8.1,4.6c2.9,1.1,6,1.6,9.2,1.6
				c6.1,0,12.1-1.9,18-3.2c4.8-1,10-2.1,14.9-1.1c2,0.4,5,1.3,5.8,3.4c-12.5,2.3-17.3,17.7-13.8,29c1.9,6.1,13.3,13.2,17.7,10
				c2.8-2,1.1-4.7,0-6.5c-2.1-3.4-2.8-7.7,1.1-10.1c3.4-2,6.9,2.8,7,2.8c0.9-0.1,8.9-4.6,14.4-11.2c5.4,0.3,6.3-3.3,5-6.2
				C-890.8-218.6-899.2-222.1-903.5-222.8z"/>
		</g>
		<g id="Bottom_Skinny_Jeans_1" transform="translate(0 187)">
			<g id="Seat" transform="translate(10 42)">
				<ellipse id="Ballsy_Ball" class="st12" cx="-866" cy="-192" rx="77" ry="73.5"/>
			</g>
			<path id="Skin" class="st10" d="M-736.3-153.9c-6.4-22.3-11.2-41.9-12.4-49.3c-2.9-17.5,22.5-18.5,25.8-9.8
				c5.1,13.1,13.9,56.4,24.6,121.6l-12.2,3.6C-723.3-116.2-732.6-140.9-736.3-153.9z M-859.1-176.8c11.8-4.6,52.9-19.2,72.8-23.3
				c5.7-1.2,11.2-2.3,16.4-3.3c15.5-3,23.5,24.9,8.6,27.1c-37.1,5.3-89.6,10.8-94.1,11.5c-0.3,0-0.5,0.1-0.8,0.1
				C-862.1-164.8-866.2-174-859.1-176.8z"/>
			<path id="Leg_Back" class="st13" d="M-760.2-207.8c-0.2-1.1-0.3-2.2-0.2-3.3l-63.6-32.4v-7h7.6c0,0,92.3,23.5,94.3,30.1v0.1
				l0.1,0.1c12.2,16.8,19.5,98.6,21.9,104.8l-23.4,3.5C-732.4-145-761-168.1-760.2-207.8z"/>
			<path id="Leg_Front" class="st14" d="M-837.9-185.3l19.2-6.6c-5.8-1.2-11.2-2.2-15.8-3c-29.6-5.2-38.2-21-33.1-55.6h54.6
				c8.9,2.6,55.2,22,79.3,32.3c15.9,6.8,10.9,31.5,1.9,37.9c0,0.3-0.2,0.6-0.5,0.8c-33.3,13.8-61.9,13.1-80.6,12.5
				c-8.5-0.3-15-0.6-19,0.4L-837.9-185.3z"/>
			<g id="Right_Shoe" transform="matrix(0.438, 0.899, -0.899, 0.438, 148.565, 57.151)">
				<path id="shoe" class="st15" d="M-649.8,797.1c-1-0.4-2.2,0.2-2.5,1.3v0.1l-2,6.7c0.1,2.6,0.4,5.3,0.9,7.9h56.4
					c0,0,2.2-7.3-2.5-7.8c-4.7-0.6-7.9-1-7.9-1l-26.2-11.8c-0.5-0.2-1.1,0-1.3,0.5l0,0l-1.7,4.1c0,0-4.4,2-7.1,2L-649.8,797.1z"/>
			</g>
			<g id="Right_Shoe-2" transform="translate(263 132)">
				<path id="shoe-2" class="st15" d="M-976.5-226.5c-1-0.4-2.2,0.2-2.5,1.3v0.1l-2,6.7c0.1,2.6,0.4,5.3,0.9,7.9h56.4
					c0,0,2.2-7.3-2.5-7.8c-4.7-0.6-7.9-1-7.9-1l-26.2-11.8c-0.5-0.2-1.1,0-1.3,0.5l0,0l-1.7,4.1c0,0-4.4,2-7.1,2L-976.5-226.5z"/>
			</g>
		</g>
		<g id="Body_Long_Sleeve_1" transform="translate(22 82)">
			<path id="Skin-2" class="st10" d="M-948.2-87.2c-1.4-2.3-2.9-4.6-7.6-3.4c-8.4,2.1-15.5,7.4-23.4,0.2c-1-0.9-1.7-3.7,1.6-5.1
				c8.2-3.5,20.3-10.2,22.2-12.8c2.7-3.5,11-23.6,24.9-60.2l20.5,4.1c-20.6,38.4-31.7,58.8-33.2,61.1c-3.4,5.2-0.2,14.7,0.9,19.7
				c-0.5,0.1-0.9,0.2-1.4,0.2C-946.1-83.5-947.1-85.4-948.2-87.2z M-784-172.9l36.2-15.9c5.4-5.6,11.6-10.5,18.4-14.4
				c1.8-0.6,4.8-0.7,1.6,4c-3.2,4.7-6.4,9.8-5.1,11.5c1.3,1.7,5-0.2,6.5,2.5c1,1.8-5.3,3.9-18.9,6.4l-27.1,20.8L-784-172.9z"/>
			<path id="Coat_Back" class="st16" d="M-854.3-245.2l8.6-1.5c18.8,18.3,26.5,62.1,39.1,68c11.9,5.5,28.7,0.2,48.7-7l6.1,13.7
				c-18.2,19.7-56.9,36.3-72.5,26.8C-849.4-160.4-855.2-214.5-854.3-245.2z"/>
			<path id="Shirt" class="st17" d="M-892-136.5h76.5c3.5,0,2.8-5,2.3-7.6c-5.8-29.4-28.6-61.1-28.6-102.9l-22-3.5
				C-882.1-221.1-888.4-185-892-136.5z"/>
			<path id="Coat_Front" class="st18" d="M-955-108.6c10.3-64.1,40.2-111.4,89.7-141.9h8.7c0,0,29.7,101.3,16.4,135H-909
				c1.1-16.4,4.6-33.8,9.4-50.8c-15.6,28.2-28.7,48.4-39.4,60.8L-955-108.6z"/>
		</g>
	</g>
	<g id="Head-3" transform="translate(1702.58 483.997)">
		<g id="Head-4" transform="translate(0 30.352)">
			<path id="Head-5" class="st10" d="M-934.8-168.4l-9.3-43.3c5.2-6.1,8.7-13.5,8.1-21.9c-1.7-24.1-35.2-18.8-41.7-6.6
				s-5.7,42.9,2.7,45.1c3.4,0.9,10.5-1.3,17.8-5.6l-4.6,32.3C-961.8-168.4-934.8-168.4-934.8-168.4z"/>
		</g>
		<path id="hair-2" class="st11" d="M-967-223.1c3.7-1,7.5-1.4,11.3-1.2c-1.3-3.1-1.8-6.5-1.4-9.8c0.4-3.2,1.8-6,3.2-8.9
			c0.6-1.4,1.4-2.6,2.4-3.7c1.1-1,2.4-1.7,3.8-2c1.4-0.3,2.9-0.3,4.4,0c0.6,0.1,1.2,0.4,1.8,0.6c0.6,0.2,1-0.2,1.4-0.6
			c1.2-0.9,2.7-1.5,4.2-1.6c1.6-0.2,3.2,0,4.8,0.6c1.5,0.5,2.9,1.4,4,2.5c0.4,0.4,0.8,1,1.1,1.7c0.1,0.3,0.1,0.4,0.4,0.5
			c0.3,0.1,0.6,0.1,0.8,0.2c2.6,0.9,4.7,2.8,5.9,5.4c0.8,2.2,1.1,4.6,0.9,7c-0.1,2.9-2.7,10.5-5.2,13.3c-2.3,2.4-5.3,4.1-8.5,4.8
			c2,2.5,3.5,5.3,4.5,8.3c1.1,3.3,1.8,6.7,2,10.1c0.3,3.3,0.2,6.7-0.5,9.9c-0.6,2.9-2.3,5.4-4.8,7c-1.2,0.7-2.4,1.3-3.7,1.7
			c-1.2,0.5-2.5,0.9-3.8,1.2c-2.5,0.5-5.3,0.4-7.3-1.6c-0.7-0.7-1.4-1.6-2-2.5c-0.2-0.3-0.3-0.5-0.1-0.8c0.3-0.4,0.6-0.7,1-0.9
			c1.9-1.6,3.2-3.9,3.4-6.4c0.3-2.6-0.4-6-3-7.2c-3.2-1.4-6.6,0.2-9.4,1.7c-1.2-4.2-3.6-8-7.5-9.9c-4.2-2.1-9.1-2.4-13.5-4.2
			c-1.2-0.4-2.3-1.1-3.1-2c-0.4-0.4-0.7-0.9-0.9-1.5c-0.1-0.7,0.2-1.4,0.6-1.9C-977.8-216.1-970.7-222-967-223.1z"/>
	</g>
	<g id="Bottom" transform="translate(1532.043 690.835)">
		<path id="Seat-2" class="st12" d="M-716-56.8h-162c-8.8,0-16-7.2-16-16v-126c0-8.8,7.2-16,16-16h162c8.8,0,16,7.2,16,16v126
			C-700-64-707.2-56.8-716-56.8z M-853.1-179.2c-2.2,0-4,1.8-4,4v78.7c0,2.2,1.8,4,4,4H-741c2.2,0,4-1.8,4-4v-78.7c0-2.2-1.8-4-4-4
			H-853.1z"/>
		<path id="Skin-3" class="st10" d="M-896.5-141.9c7.2-25.1,12.6-47.1,14-55.4c3.3-19.6-25.2-20.8-29-11
			c-5.7,14.8-15.7,63.3-27.6,136.7l13.7,4C-911.1-99.5-900.7-127.3-896.5-141.9z M-758.5-167.7c-13.2-5.2-59.5-21.6-81.8-26.2
			c-6.4-1.3-12.6-2.6-18.5-3.7c-17.4-3.3-26.4,28-9.6,30.4c41.6,6,100.7,12.2,105.7,12.9c0.3,0,0.6,0.1,0.9,0.1
			C-755.2-154.2-750.6-164.5-758.5-167.7z"/>
		<path id="Leg_Back-2" class="st13" d="M-869.6-202.5c0.2-1.2,0.3-2.5,0.2-3.7l71.4-36.4v-7.9h-8.5c0,0-103.7,26.4-105.9,33.9
			c0,0.1,0,0.1,0,0.2l-0.1,0.1c-13.8,18.8-22,110.8-24.6,117.7l26.2,3.9C-900.9-131.9-868.8-157.8-869.6-202.5z"/>
		<path id="Leg_Front-2" class="st14" d="M-782.3-177.2l-21.6-7.4c6.5-1.3,12.6-2.5,17.7-3.4c33.3-5.8,43-23.7,37.2-62.5h-61.3
			c-10,2.9-62,24.7-89,36.3c-17.9,7.7-12.3,35.4-2.1,42.6c0,0.4,0.2,0.7,0.6,0.9c37.4,15.5,69.5,14.8,90.5,14
			c9.6-0.3,16.8-0.7,21.3,0.5L-782.3-177.2z"/>
		<g id="Right_Shoe-3" transform="matrix(-0.438, 0.899, -0.899, -0.438, 230.128, 82.679)">
			<path id="shoe-3" class="st15" d="M209.4,1008.5c-1,0.4-2.2-0.2-2.5-1.3v-0.1l-2-6.7c0.1-2.7,0.4-5.3,0.9-7.9h56.4
				c0,0,2.2,7.3-2.5,7.8c-4.7,0.5-7.9,1-7.9,1l-26.2,11.8c-0.5,0.2-1.1,0-1.3-0.5l0,0l-1.7-4.1c0,0-4.4-2-7.1-2L209.4,1008.5z"/>
		</g>
		<g id="Right_Shoe-4" transform="translate(0 170.116)">
			<path id="shoe-4" class="st15" d="M-922.1-245.2c1.2-0.4,2.4,0.2,2.8,1.4v0.1l2.1,7.6c-0.2,3-0.5,5.9-1,8.9h-63.2
				c0,0-2.5-8.2,2.9-8.8s8.8-1.2,8.8-1.2l29.4-13.2c0.6-0.3,1.2,0,1.5,0.6l0,0l1.9,4.6c0,0,4.9,2.3,8,2.3L-922.1-245.2z"/>
		</g>
	</g>
	<g id="Body_Long_Sleeve_1-2" transform="translate(1595.083 567.729)">
		<path id="Skin-4" class="st10" d="M-745.8-45.3c1.3-0.8,2.6-3.7-0.7-6c-8.3-5.7-20.2-15.6-21.8-18.9c-3.3-6.7-14.5-71.8-14.5-71.8
			l-23.5,0.1c0,0,21.7,70.2,23.5,74.5c2.6,6.4-2.9,16.3-5.3,21.5c3.7,1.7,5.4-0.5,7.3-2.6c2-2.3,4.2-4.5,9.2-2.2
			c6.4,3,11.7,7.7,17.9,7.7C-750.8-43-748.1-43.8-745.8-45.3z M-947.9-108.6l35.5-14.7l-7.9-19.6l-35.8,26.3
			c-9.7,2.6-17.8,5.9-24.4,9.8c-1.5,1.4-3.4,4.2,3,3.8s13.1-0.7,14,1.5s-3,4.8-1.2,7.7c0.2,0.3,0.5,0.4,0.8,0.4
			C-961.8-93.4-956.5-98.5-947.9-108.6z"/>
		<path id="Coat_Back-2" class="st19" d="M-849.4-240.5l-9.7-1.7c-36,31.1-50.8,91-95,122.7l10.6,13.2
			C-866.9-115.8-847.9-188.8-849.4-240.5z"/>
		<path id="Shirt-2" class="st17" d="M-807.1-118.4h-86c-3.9,0-3.2-5.7-2.6-8.5c6.6-33,32.1-68.7,32.1-115.7l24.8-3.9
			C-818.2-213.6-811.2-172.9-807.1-118.4z"/>
		<path id="Coat_Front-2" class="st20" d="M-767.8-71.2c2-64.2-22.3-113.5-42.6-143.3c4.5-0.3,8.6-2.2,11.2-6.9
			c9.1-16.4,5.8-25.4-3.9-28.3c-9.7-3-18.3,3.1-33.7,3.1c-0.6,0-1.2,0-1.8,0.1l-8.4,0.6c0,0-33.4,113.3-18.4,151.2h67.9
			c3.3,8.1,7,16,11.2,23.6h18.5V-71.2z"/>
		<path id="Shade" d="M-822.8-94.8h25.4c-4.7-11.2-9.8-25-15.3-41.1C-815-116.1-818.4-102.3-822.8-94.8L-822.8-94.8z"/>
	</g>
</g>
</svg>
